<svg width="143" height="81" viewBox="0 0 143 81" fill="none" xmlns="http://www.w3.org/2000/svg">
<path d="M46.048 50.336C41.224 50.336 37.72 47.336 37.72 41.432C37.72 35.504 41.224 32.528 46.048 32.528C49.792 32.528 53.272 34.712 53.656 38.84H50.704C50.344 36.392 48.28 35.072 46.048 35.072C42.904 35.072 40.672 37.184 40.672 41.432C40.672 45.68 42.904 47.768 46.048 47.768C48.28 47.768 50.32 46.472 50.704 44.024H53.656C53.272 48.176 49.792 50.336 46.048 50.336ZM67.186 50H55.45V32.864H58.282V47.456H67.186V50ZM71.4539 50H68.6219V32.864H71.4539V50ZM81.6964 50.336C76.8724 50.336 73.3684 47.336 73.3684 41.432C73.3684 35.504 76.8724 32.528 81.6964 32.528C85.4404 32.528 88.9204 34.712 89.3044 38.84H86.3524C85.9924 36.392 83.9284 35.072 81.6964 35.072C78.5524 35.072 76.3204 37.184 76.3204 41.432C76.3204 45.68 78.5524 47.768 81.6964 47.768C83.9284 47.768 85.9684 46.472 86.3524 44.024H89.3044C88.9204 48.176 85.4404 50.336 81.6964 50.336ZM93.9304 50H91.0984V32.864H93.9304V40.52H94.1704L101.73 32.864H105.234L97.0744 41.192L105.714 50H101.826L94.1704 42.248H93.9304V50Z" fill="#E6EBF4"/>
<path d="M27.5 20L12.5 5" stroke="#E6EBF4" stroke-width="3"/>
<path d="M27.5 61L12.5 76" stroke="#E6EBF4" stroke-width="3"/>
<path d="M115 20L130 5" stroke="#E6EBF4" stroke-width="3"/>
<path d="M115 61L130 76" stroke="#E6EBF4" stroke-width="3"/>
<path d="M71 20V0" stroke="#E6EBF4" stroke-width="3"/>
<path d="M71 61V81" stroke="#E6EBF4" stroke-width="3"/>
<path d="M20 40.5L0 40.5" stroke="#E6EBF4" stroke-width="3"/>
<path d="M123 40.5L143 40.5" stroke="#E6EBF4" stroke-width="3"/>
</svg>
