<svg width="635" height="618" viewBox="0 0 635 618" fill="none" xmlns="http://www.w3.org/2000/svg">
<g clip-path="url(#clip0_5_16195)">
<rect width="635" height="618" rx="10" fill="#DDDDDD"/>
<path d="M651.625 52.7622C674.7 52.7622 693.405 71.4676 693.405 94.5419C693.405 117.616 674.7 136.321 651.625 136.321C628.551 136.321 609.846 117.616 609.846 94.5419C609.846 71.4676 628.551 52.7622 651.625 52.7622Z" fill="black"/>
<path fill-rule="evenodd" clip-rule="evenodd" d="M651.625 -375C392.305 -375 182.083 -164.779 182.083 94.5419C182.083 353.863 392.305 564.084 651.625 564.084C910.946 564.084 1121.17 353.863 1121.17 94.5419C1121.17 -164.779 910.946 -375 651.625 -375ZM488.723 94.5419C488.723 4.57341 561.657 -68.3604 651.625 -68.3604C741.594 -68.3604 814.528 4.57341 814.528 94.5419C814.528 184.51 741.594 257.444 651.625 257.444C561.657 257.444 488.723 184.51 488.723 94.5419Z" fill="black"/>
<rect x="519.387" y="-7.03247" width="7.66599" height="7.66599" fill="black"/>
<rect x="511.721" y="0.633545" width="7.66599" height="7.66599" fill="black"/>
<rect x="504.055" y="8.29932" width="7.66599" height="7.66599" fill="black"/>
<rect x="504.055" y="15.9653" width="7.66599" height="7.66599" fill="black"/>
<rect x="496.389" y="23.6313" width="7.66599" height="7.66599" fill="black"/>
<rect x="496.389" y="31.2974" width="7.66599" height="7.66599" fill="black"/>
<rect x="496.389" y="38.9634" width="7.66599" height="7.66599" fill="black"/>
<rect x="488.723" y="46.6294" width="7.66599" height="7.66599" fill="black"/>
<rect x="488.723" y="54.2954" width="7.66599" height="7.66599" fill="black"/>
<rect x="488.723" y="61.9614" width="7.66599" height="7.66599" fill="black"/>
<rect x="488.723" y="69.6274" width="7.66599" height="7.66599" fill="black"/>
<rect x="488.723" y="77.2932" width="7.66599" height="7.66599" fill="black"/>
<rect x="488.723" y="84.9592" width="7.66599" height="7.66599" fill="black"/>
<rect x="488.723" y="92.6252" width="7.66599" height="7.66599" fill="black"/>
<rect x="488.723" y="100.292" width="7.66599" height="7.66599" fill="black"/>
<rect x="488.723" y="107.957" width="7.66599" height="7.66599" fill="black"/>
<rect x="488.723" y="115.623" width="7.66599" height="7.66599" fill="black"/>
<rect x="488.723" y="123.289" width="7.66599" height="7.66599" fill="black"/>
<rect x="488.723" y="130.955" width="7.66599" height="7.66599" fill="black"/>
<rect x="488.723" y="138.621" width="7.66599" height="7.66599" fill="black"/>
<rect x="496.389" y="146.287" width="7.66599" height="7.66599" fill="black"/>
<rect x="496.389" y="153.953" width="7.66599" height="7.66599" fill="black"/>
<rect x="504.055" y="161.619" width="7.66599" height="7.66599" fill="black"/>
<rect x="504.055" y="169.285" width="7.66599" height="7.66599" fill="black"/>
<rect x="511.721" y="176.951" width="7.66599" height="7.66599" fill="black"/>
<rect x="511.721" y="184.617" width="7.66599" height="7.66599" fill="black"/>
<rect x="519.387" y="192.283" width="7.66599" height="7.66599" fill="black"/>
<rect x="527.053" y="199.949" width="7.66599" height="7.66599" fill="black"/>
<rect x="534.719" y="207.615" width="7.66599" height="7.66599" fill="black"/>
<rect x="542.385" y="215.281" width="7.66599" height="7.66599" fill="black"/>
<rect x="550.051" y="222.947" width="7.66599" height="7.66599" fill="black"/>
<rect x="565.383" y="230.613" width="7.66599" height="7.66599" fill="black"/>
<rect x="580.715" y="238.279" width="7.66599" height="7.66599" fill="black"/>
<rect x="596.047" y="245.945" width="7.66599" height="7.66599" fill="black"/>
<rect x="557.717" y="222.947" width="7.66599" height="7.66599" fill="black"/>
<rect x="573.049" y="238.279" width="7.66599" height="7.66599" fill="black"/>
<rect x="588.381" y="245.945" width="7.66599" height="7.66599" fill="black"/>
<rect x="603.713" y="245.945" width="7.66599" height="7.66599" fill="black"/>
<rect x="611.379" y="245.945" width="7.66599" height="7.66599" fill="black"/>
<rect x="619.045" y="253.611" width="7.66599" height="7.66599" fill="black"/>
<rect x="626.711" y="253.611" width="7.66599" height="7.66599" fill="black"/>
<rect x="634.376" y="253.611" width="7.66599" height="7.66599" fill="black"/>
<rect x="189.749" y="-7.03247" width="7.66599" height="7.66599" fill="black"/>
<rect x="189.749" y="0.633545" width="7.66599" height="7.66599" fill="black"/>
<rect x="182.083" y="8.29932" width="7.66599" height="7.66599" fill="black"/>
<rect x="182.083" y="15.9653" width="7.66599" height="7.66599" fill="black"/>
<rect x="182.083" y="23.6313" width="7.66599" height="7.66599" fill="black"/>
<rect x="182.083" y="31.2974" width="7.66599" height="7.66599" fill="black"/>
<rect x="182.083" y="38.9634" width="7.66599" height="7.66599" fill="black"/>
<rect x="182.083" y="46.6294" width="7.66599" height="7.66599" fill="black"/>
<rect x="182.083" y="54.2954" width="7.66599" height="7.66599" fill="black"/>
<rect x="182.083" y="61.9614" width="7.66599" height="7.66599" fill="black"/>
<rect x="182.083" y="69.6274" width="7.66599" height="7.66599" fill="black"/>
<rect x="182.083" y="77.2932" width="7.66599" height="7.66599" fill="black"/>
<rect x="182.083" y="84.9592" width="7.66599" height="7.66599" fill="black"/>
<rect x="182.083" y="92.6252" width="7.66599" height="7.66599" fill="black"/>
<rect x="182.083" y="100.292" width="7.66599" height="7.66599" fill="black"/>
<rect x="182.083" y="107.957" width="7.66599" height="7.66599" fill="black"/>
<rect x="182.083" y="115.623" width="7.66599" height="7.66599" fill="black"/>
<rect x="182.083" y="123.289" width="7.66599" height="7.66599" fill="black"/>
<rect x="182.083" y="130.955" width="7.66599" height="7.66599" fill="black"/>
<rect x="182.083" y="138.621" width="7.66599" height="7.66599" fill="black"/>
<rect x="182.083" y="146.287" width="7.66599" height="7.66599" fill="black"/>
<rect x="182.083" y="153.953" width="7.66599" height="7.66599" fill="black"/>
<rect x="182.083" y="161.619" width="7.66599" height="7.66599" fill="black"/>
<rect x="182.083" y="169.285" width="7.66599" height="7.66599" fill="black"/>
<rect x="189.749" y="176.951" width="7.66599" height="7.66599" fill="black"/>
<rect x="189.749" y="184.617" width="7.66599" height="7.66599" fill="black"/>
<rect x="189.749" y="192.283" width="7.66599" height="7.66599" fill="black"/>
<rect x="189.749" y="199.949" width="7.66599" height="7.66599" fill="black"/>
<rect x="189.749" y="207.615" width="7.66599" height="7.66599" fill="black"/>
<rect x="197.415" y="215.281" width="7.66599" height="7.66599" fill="black"/>
<rect x="197.415" y="222.947" width="7.66599" height="7.66599" fill="black"/>
<rect x="197.415" y="230.613" width="7.66599" height="7.66599" fill="black"/>
<rect x="205.081" y="238.279" width="7.66599" height="7.66599" fill="black"/>
<rect x="205.081" y="245.945" width="7.66599" height="7.66599" fill="black"/>
<rect x="205.081" y="253.611" width="7.66599" height="7.66599" fill="black"/>
<rect x="212.747" y="261.277" width="7.66599" height="7.66599" fill="black"/>
<rect x="212.747" y="268.943" width="7.66599" height="7.66599" fill="black"/>
<rect x="212.747" y="276.609" width="7.66599" height="7.66599" fill="black"/>
<rect x="220.413" y="284.275" width="7.66599" height="7.66599" fill="black"/>
<rect x="220.413" y="291.941" width="7.66599" height="7.66599" fill="black"/>
<rect x="228.079" y="299.607" width="7.66599" height="7.66599" fill="black"/>
<rect x="228.079" y="307.273" width="7.66599" height="7.66599" fill="black"/>
<rect x="235.745" y="314.939" width="7.66599" height="7.66599" fill="black"/>
<rect x="235.745" y="322.605" width="7.66599" height="7.66599" fill="black"/>
<rect x="243.411" y="330.271" width="7.66599" height="7.66599" fill="black"/>
<rect x="251.077" y="337.937" width="7.66599" height="7.66599" fill="black"/>
<rect x="251.077" y="345.603" width="7.66599" height="7.66599" fill="black"/>
<rect x="258.743" y="353.269" width="7.66599" height="7.66599" fill="black"/>
<rect x="266.409" y="360.935" width="7.66599" height="7.66599" fill="black"/>
<rect x="266.409" y="368.601" width="7.66599" height="7.66599" fill="black"/>
<rect x="274.075" y="376.267" width="7.66599" height="7.66599" fill="black"/>
<rect x="281.741" y="383.933" width="7.66599" height="7.66599" fill="black"/>
<rect x="289.407" y="391.599" width="7.66599" height="7.66599" fill="black"/>
<rect x="297.073" y="399.265" width="7.66599" height="7.66599" fill="black"/>
<rect x="297.073" y="406.931" width="7.66599" height="7.66599" fill="black"/>
<rect x="304.739" y="414.597" width="7.66599" height="7.66599" fill="black"/>
<rect x="312.405" y="422.263" width="7.66599" height="7.66599" fill="black"/>
<rect x="320.071" y="429.929" width="7.66599" height="7.66599" fill="black"/>
<rect x="327.737" y="437.595" width="7.66599" height="7.66599" fill="black"/>
<rect x="343.069" y="445.261" width="7.66599" height="7.66599" fill="black"/>
<rect x="350.735" y="452.927" width="7.66599" height="7.66599" fill="black"/>
<rect x="358.401" y="460.593" width="7.66599" height="7.66599" fill="black"/>
<rect x="366.067" y="468.259" width="7.66599" height="7.66599" fill="black"/>
<rect x="381.399" y="475.925" width="7.66599" height="7.66599" fill="black"/>
<rect x="389.065" y="483.591" width="7.66599" height="7.66599" fill="black"/>
<rect x="404.397" y="491.257" width="7.66599" height="7.66599" fill="black"/>
<rect x="412.063" y="498.923" width="7.66599" height="7.66599" fill="black"/>
<rect x="427.395" y="506.588" width="7.66599" height="7.66599" fill="black"/>
<rect x="442.727" y="514.255" width="7.66599" height="7.66599" fill="black"/>
<rect x="458.059" y="521.921" width="7.66599" height="7.66599" fill="black"/>
<rect x="481.057" y="529.586" width="7.66599" height="7.66599" fill="black"/>
<rect x="504.055" y="537.253" width="7.66599" height="7.66599" fill="black"/>
<rect x="527.053" y="544.918" width="7.66599" height="7.66599" fill="black"/>
<rect x="565.383" y="552.585" width="7.66599" height="7.66599" fill="black"/>
<rect x="335.403" y="437.595" width="7.66599" height="7.66599" fill="black"/>
<rect x="373.733" y="468.259" width="7.66599" height="7.66599" fill="black"/>
<rect x="396.731" y="491.257" width="7.66599" height="7.66599" fill="black"/>
<rect x="419.729" y="498.923" width="7.66599" height="7.66599" fill="black"/>
<rect x="435.061" y="506.588" width="7.66599" height="7.66599" fill="black"/>
<rect x="450.393" y="514.255" width="7.66599" height="7.66599" fill="black"/>
<rect x="465.725" y="521.921" width="7.66599" height="7.66599" fill="black"/>
<rect x="473.391" y="529.586" width="7.66599" height="7.66599" fill="black"/>
<rect x="488.723" y="529.586" width="7.66599" height="7.66599" fill="black"/>
<rect x="496.389" y="537.253" width="7.66599" height="7.66599" fill="black"/>
<rect x="511.721" y="537.253" width="7.66599" height="7.66599" fill="black"/>
<rect x="519.387" y="544.918" width="7.66599" height="7.66599" fill="black"/>
<rect x="534.719" y="544.918" width="7.66599" height="7.66599" fill="black"/>
<rect x="542.385" y="544.918" width="7.66599" height="7.66599" fill="black"/>
<rect x="550.051" y="552.585" width="7.66599" height="7.66599" fill="black"/>
<rect x="557.717" y="552.585" width="7.66599" height="7.66599" fill="black"/>
<rect x="573.049" y="552.585" width="7.66599" height="7.66599" fill="black"/>
<rect x="580.715" y="552.585" width="7.66599" height="7.66599" fill="black"/>
<rect x="588.381" y="560.25" width="7.66599" height="7.66599" fill="black"/>
<rect x="596.047" y="560.25" width="7.66599" height="7.66599" fill="black"/>
<rect x="603.713" y="560.25" width="7.66599" height="7.66599" fill="black"/>
<rect x="611.379" y="560.25" width="7.66599" height="7.66599" fill="black"/>
<rect x="619.045" y="560.25" width="7.66599" height="7.66599" fill="black"/>
<rect x="626.711" y="560.25" width="7.66599" height="7.66599" fill="black"/>
<rect x="634.376" y="560.25" width="7.66599" height="7.66599" fill="black"/>
<rect x="603.713" y="92.6252" width="7.66599" height="7.66599" fill="black"/>
<rect x="603.713" y="100.292" width="7.66599" height="7.66599" fill="black"/>
<rect x="611.379" y="107.957" width="7.66599" height="7.66599" fill="black"/>
<rect x="611.379" y="115.623" width="7.66599" height="7.66599" fill="black"/>
<rect x="619.045" y="123.289" width="7.66599" height="7.66599" fill="black"/>
<rect x="634.376" y="130.955" width="7.66599" height="7.66599" fill="black"/>
<rect x="626.711" y="123.289" width="7.66599" height="7.66599" fill="black"/>
<rect x="626.711" y="54.2954" width="7.66599" height="7.66599" fill="black"/>
<rect x="619.045" y="61.9614" width="7.66599" height="7.66599" fill="black"/>
<rect x="611.379" y="69.6274" width="7.66599" height="7.66599" fill="black"/>
<rect x="611.379" y="77.2932" width="7.66599" height="7.66599" fill="black"/>
<rect x="603.713" y="84.9592" width="7.66599" height="7.66599" fill="black"/>
<rect x="634.376" y="54.2954" width="7.66599" height="7.66599" fill="black"/>
<rect x="153.375" y="498.959" width="561.429" height="23.0846" fill="#D9D9D9"/>
<rect x="88.2651" y="403.069" width="461.692" height="57.4155" fill="#D9D9D9"/>
<rect x="-160.93" y="190.276" width="461.692" height="57.4155" fill="#D9D9D9"/>
<rect x="-229" y="162.457" width="541.304" height="5.62317" fill="#D9D9D9"/>
<g filter="url(#filter0_diiii_5_16195)">
<path fill-rule="evenodd" clip-rule="evenodd" d="M55.6808 193.339C54.3509 189.556 53.0178 185.973 51.6816 182.591C51.9521 181.263 52.3774 179.858 52.9576 178.375C54.4067 174.511 56.0168 171.452 57.7879 169.197C56.9829 173.223 57.3854 178.053 58.9955 183.688C60.6056 189.163 62.7793 193.43 65.5165 196.489C65.0334 192.464 65.5165 187.714 66.9656 182.239C68.4147 176.765 70.5078 172.418 73.245 169.197C75.4992 171.452 77.5118 174.752 79.2829 179.1C80.893 183.447 81.5371 187.231 81.2151 190.451C83.6302 188.358 85.6429 185.138 87.253 180.79C88.7021 176.282 89.4267 172.418 89.4267 169.197C90.8758 171.291 91.9223 174.028 92.5664 177.409C93.0494 180.629 92.9689 183.447 92.3249 185.862C93.6129 183.769 94.579 181.112 95.2231 177.892C95.7061 174.511 95.7061 171.613 95.2231 169.197C97.3162 171.13 99.0873 174.108 100.536 178.134C101.825 182.159 102.308 185.621 101.986 188.519C103.918 186.265 105.689 183.205 107.299 179.341C108.748 175.477 109.231 172.096 108.748 169.197C110.197 171.13 111.405 173.706 112.371 176.926C113.176 180.146 113.256 182.964 112.612 185.379C114.061 183.447 115.188 180.871 115.994 177.651C116.799 174.43 116.96 171.613 116.477 169.197C118.57 170.808 120.582 173.545 122.514 177.409C124.286 181.112 125.171 184.252 125.171 186.828C126.942 185.54 128.633 183.447 130.243 180.549C131.853 177.49 132.9 174.591 133.383 171.854C133.222 175.557 133.785 179.583 135.073 183.93C136.2 188.116 137.73 191.578 139.662 194.315C139.179 190.612 139.501 186.265 140.628 181.273C141.594 176.282 143.204 172.257 145.459 169.197C147.069 171.13 148.196 173.867 148.84 177.409C149.323 180.79 149.323 183.769 148.84 186.345C150.128 184.091 151.094 181.273 151.738 177.892C152.06 180.307 152.624 182.642 153.429 184.896C154.073 186.989 154.878 188.841 155.844 190.451C155.039 187.392 155.039 183.769 155.844 179.583C156.649 175.235 157.937 171.774 159.708 169.197C161.962 171.774 163.894 175.396 165.504 180.066C167.115 184.574 167.92 188.519 167.92 191.9C170.335 189.485 172.347 185.943 173.958 181.273C175.407 176.604 176.131 172.579 176.131 169.197C178.868 172.418 180.801 176.926 181.928 182.722C183.055 188.519 183.377 193.51 182.894 197.696C185.309 194.154 187.322 189.565 188.932 183.93C190.381 178.295 190.622 173.384 189.656 169.197C194.97 169.358 200.444 169.197 206.079 168.714C211.876 168.231 216.545 166.863 220.087 164.609C216.062 165.897 211.312 166.219 205.838 165.575C200.524 164.77 196.016 163.482 192.313 161.71C195.372 159.134 199.558 157.041 204.872 155.431C210.185 153.66 214.774 152.855 218.638 153.016C216.867 151.084 214.371 149.393 211.151 147.944C208.092 146.495 204.791 145.448 201.249 144.804C197.868 143.999 194.889 143.838 192.313 144.321C195.372 141.584 199.639 139.41 205.113 137.8C210.749 136.029 215.579 135.466 219.604 136.11C217.672 134.177 215.015 132.487 211.634 131.038C208.414 129.589 205.033 128.623 201.491 128.14C198.109 127.495 195.05 127.415 192.313 127.898C194.406 125.966 197.385 124.436 201.249 123.309C205.113 122.182 208.414 121.78 211.151 122.102C209.058 120.169 206.079 118.72 202.215 117.754C198.512 116.627 195.211 116.144 192.313 116.305C193.923 114.695 196.338 113.568 199.558 112.924C202.779 112.119 205.516 111.797 207.77 111.958C205.194 109.704 201.571 108.255 196.902 107.611C200.927 107.289 205.194 106.323 209.702 104.712C214.21 102.941 217.672 100.848 220.087 98.433C217.35 98.916 214.13 98.8355 210.427 98.1914C206.884 97.3864 203.423 96.1788 200.041 94.5687C196.821 92.9586 194.245 91.1875 192.313 89.2553C196.338 90.7044 201.249 91.0264 207.045 90.2214C212.842 89.2553 217.431 87.4842 220.812 84.908C216.626 86.0351 211.634 86.2766 205.838 85.6326C200.202 84.8275 195.694 83.1369 192.313 80.5607C194.889 79.1116 198.109 78.065 201.974 77.421C205.838 76.777 209.219 76.8575 212.117 77.6625C210.024 76.5354 207.448 75.6499 204.389 75.0058C207.448 74.5228 210.346 73.7983 213.083 72.8322C215.821 71.8661 218.155 70.739 220.087 69.4509C216.062 70.256 211.312 70.1755 205.838 69.2094C200.363 68.0823 195.855 66.3917 192.313 64.1376C196.338 65.2646 201.168 65.6672 206.804 65.3452C212.439 64.8621 217.109 63.4935 220.812 61.2394C216.787 62.3664 211.956 62.6885 206.321 62.2054C200.685 61.5614 196.016 60.2733 192.313 58.3412C195.372 58.9852 198.995 59.0657 203.181 58.5827C207.528 57.9386 210.99 56.7311 213.566 54.9599C210.507 55.765 206.804 55.926 202.457 55.443C198.27 54.7989 194.889 53.5108 192.313 51.5787C193.565 50.0139 194.665 47.9167 195.612 45.2873C195.825 45.2219 196.04 45.1576 196.258 45.0946L196.258 44.1031L197.993 44.1031C202.041 42.3681 205.346 39.972 207.907 36.9149L208.899 36.9149C211.708 32.1227 213.195 28.2394 213.361 25.2649C216.996 19.7292 219.475 15.4327 220.797 12.3757L220.301 8.03788C223.523 4.56773 225.672 -0.55495 226.746 -7.3301C223.936 -16.5839 222.201 -23.5243 221.54 -28.1513C221.045 -29.6385 220.508 -31.167 219.929 -32.7369C219.351 -34.3894 219.227 -35.9179 219.557 -37.3225L217.822 -39.0576L217.822 -41.9081C215.922 -43.6432 213.526 -47.857 210.634 -54.5496L206.916 -58.0197L204.189 -59.0112L200.719 -64.4644L200.719 -68.926C199.562 -72.3136 198.075 -74.7097 196.257 -76.1143L196.257 -77.1058L194.275 -78.0973C192.705 -81.3196 188.408 -85.1616 181.385 -89.6233C174.61 -93.9198 169.281 -96.3985 165.398 -97.0595L157.218 -103.504L157.218 -104.248L147.799 -106.974L143.585 -105.239L141.85 -106.974L137.264 -107.966C136.333 -108.564 135.536 -109.27 134.873 -110.082L261.099 -110.082C265.268 -110.082 268.498 -108.936 270.791 -106.643C272.875 -104.559 273.918 -101.536 273.918 -97.5763C273.918 -94.2414 273.292 -90.5939 272.042 -86.6337L279.858 -86.6337L279.858 -183.24C279.858 -200.957 274.335 -217.319 263.288 -232.326C252.033 -247.541 237.026 -259.525 218.267 -268.279C204.336 -274.935 189.658 -279.12 174.232 -280.833C203.979 -293.734 227.398 -300.185 244.489 -300.185C266.099 -300.185 276.904 -304.044 276.904 -311.762C276.904 -319.48 266.099 -323.339 244.489 -323.339C223.072 -323.339 191.718 -333.468 150.428 -353.728C109.331 -373.987 88.782 -379.775 88.782 -371.093C88.782 -362.603 105.568 -350.641 139.141 -335.205C172.906 -319.962 172.906 -304.527 139.141 -288.898C124.641 -282.148 113.272 -276.046 105.035 -270.592C103.684 -269.953 102.348 -269.286 101.026 -268.592C84.3516 -259.838 71.429 -247.853 62.2581 -232.638C53.0873 -217.631 48.5019 -201.165 48.5019 -183.24L48.5019 -86.6337L56.3179 -86.6337C55.0674 -90.5939 54.4421 -94.2414 54.4421 -97.5762C54.4421 -101.536 55.5884 -104.559 57.8811 -106.643C59.9654 -108.936 63.0919 -110.082 67.2604 -110.082L115.947 -110.082C115.77 -109.716 115.605 -109.341 115.451 -108.957L118.922 -105.487L117.187 -102.513C114.956 -102.678 111.651 -102.513 107.272 -102.017C102.893 -101.521 99.5877 -101.356 97.3569 -101.521L88.4335 -98.0509L86.5745 -98.0509L80.1299 -93.5892L77.4033 -88.0122L77.4033 -83.3026C79.3036 -80.2455 81.4518 -78.1799 83.8479 -77.1058L91.9037 -78.0973C93.5562 -80.3281 96.0349 -81.8154 99.3399 -82.559L107.272 -90.7387C113.716 -90.7387 118.674 -91.3171 122.144 -92.4738L127.101 -90.9866C128.093 -91.4823 129.911 -92.1433 132.555 -92.9696C139.33 -92.9696 145.155 -92.226 150.03 -90.7387L150.03 -92.4738L155.483 -92.4738L157.218 -89.7473L160.688 -88.7558C161.432 -87.8469 162.919 -86.7315 165.15 -85.4095C167.298 -84.0875 168.868 -82.8068 169.859 -81.5675L179.774 -81.5675L181.509 -79.8324L183.244 -79.8324L186.962 -75.3707L188.697 -69.9176L194.275 -63.4729C194.77 -60.6637 195.927 -57.8132 197.745 -54.9213L202.454 -47.3613C203.363 -45.6262 204.396 -41.3711 205.553 -34.5959C206.709 -27.9034 207.164 -23.6896 206.916 -21.9545L208.403 -18.9801C207.329 -11.3787 206.585 -5.67763 206.172 -1.87691L204.437 -1.13332L203.446 0.849653L203.446 4.31987L201.463 4.31987L200.719 6.05498L200.719 14.3586L195.266 22.5384C193.531 23.8603 190.598 25.3063 186.467 26.8761C183.191 28.1268 180.645 28.8409 178.829 29.0184C178.687 26.631 178.914 24.4904 179.512 22.5967C178.348 24.5376 177.388 26.7417 176.633 29.209C176.333 29.3725 176.044 29.53 175.766 29.6814C175.426 29.8662 175.103 30.0421 174.795 30.2091C174.412 28.2352 173.891 26.2612 173.233 24.2873C172.106 20.9061 170.737 18.0884 169.127 15.8342C169.932 20.0205 169.771 25.0118 168.644 30.8083C168.107 33.1575 167.458 35.2968 166.698 37.2263L166.141 37.9064L164.406 37.9064L159.731 33.2311C159.557 31.2813 159.63 29.5076 159.95 27.91C158.979 29.0748 158.242 30.4737 157.74 32.1066L155.483 31.4617L151.765 32.4532L149.038 36.1713L144.576 37.9064C143.833 39.311 143.172 40.2198 142.593 40.633L142.593 41.6244L142.054 42.164C139.343 42.2698 136.924 42.6686 134.799 43.3605C132.173 42.9519 129.359 42.0428 126.358 40.633L125.366 41.6244L119.913 41.6244C116.608 39.4762 112.394 38.5674 107.272 38.8979L106.528 36.9149L102.81 36.9149L99.3399 29.7266L98.3484 29.7266C98.1005 27.1653 95.9936 22.1252 92.0277 14.6065C87.3181 5.51787 84.5915 0.0234254 83.8479 -1.8769L87.3181 -1.8769L88.4335 -3.85988L85.583 -11.7918L86.5745 -18.2364L85.583 -20.963L84.5915 -20.963L84.5915 -23.6896L82.8564 -27.1598L84.5915 -29.8864L84.5915 -31.8693L87.3181 -33.6044L87.3181 -34.5959L90.1686 -36.331L90.1686 -39.0576L91.1601 -39.0576L91.1601 -41.9081L93.8867 -44.6347C94.4651 -49.84 93.8041 -54.6322 91.9037 -59.0112L88.4335 -60.0027C87.1942 -62.3162 84.4263 -65.6211 80.1299 -69.9176C79.1384 -70.4133 77.6511 -70.9917 75.6682 -71.6527L74.6767 -73.3877L66.4969 -74.3792L65.7533 -74.3792L62.0353 -71.6527L58.5651 -70.6611C55.3427 -67.9346 52.6162 -64.3818 50.3853 -60.0027L50.3853 -56.2846L48.4024 -56.2846C48.5676 -53.9712 48.3197 -50.6662 47.6587 -46.3698C46.9978 -41.5776 46.6673 -38.2313 46.6673 -36.331C46.6673 -33.6044 48.485 -26.0856 52.1204 -13.7747C57.4083 4.23723 66.3317 19.8118 78.8905 32.949C84.1784 37.989 88.5162 42.0376 91.9037 45.0947L91.1601 49.5563L89.1772 49.5563L89.1772 50.5478L87.3181 51.5393L77.4033 49.5563L76.4118 47.8212L72.9416 47.8212L70.215 51.5393L70.215 57.7361L72.9416 65.0483L75.6682 67.7749L75.6682 69.7578L78.3948 72.2365L80.1299 72.2365L82.8565 74.2195L88.4335 74.2195L90.1686 72.2365L91.9037 72.2365L95.6218 69.7578L97.3569 67.0312L100.083 66.0398C100.414 61.2476 101.323 57.5708 102.81 55.0095L115.452 60.4626L118.178 63.3132C124.683 65.7437 131.219 67.1228 137.786 67.4504C134.765 68.6948 132.331 70.0862 130.485 71.6246C133.705 71.1416 137.569 71.7051 142.077 73.3152C146.586 74.9253 150.047 76.938 152.463 79.3531C149.564 81.9293 145.539 83.8615 140.387 85.1496C135.234 86.2766 130.726 86.6792 126.862 86.3571C128.955 88.2893 131.773 89.8994 135.315 91.1875C138.857 92.4755 142.319 93.2806 145.7 93.6026C145.7 93.4416 145.781 93.4416 145.942 93.6026L145.942 94.3272C142.56 95.1322 139.501 96.4203 136.764 98.1915C136.603 96.4203 136.683 94.8907 137.005 93.6026C134.59 96.3398 132.739 100.124 131.451 104.954C130.001 109.784 129.599 113.971 130.243 117.513C128.311 115.903 126.298 113.246 124.205 109.543C122.112 105.839 121.065 102.7 121.065 100.124C118.972 101.734 116.96 104.39 115.027 108.094C113.095 111.797 112.049 114.937 111.888 117.513C110.117 114.615 108.829 110.992 108.023 106.645C107.218 102.136 107.057 98.1915 107.54 94.8102C106.091 96.9034 104.884 99.6406 103.918 103.022C103.596 100.446 103.032 97.9499 102.227 95.5348C101.261 93.1196 100.134 91.0264 98.8458 89.2553C100.295 93.2806 100.456 98.1109 99.3288 103.746C98.2018 109.221 96.5916 113.81 94.4985 117.513C92.7274 114.937 91.5198 111.636 90.8757 107.611C90.0707 103.424 89.9902 99.8016 90.6342 96.7424C88.7021 99.1575 87.3335 102.539 86.5284 106.886C85.7234 111.072 85.8039 114.615 86.77 117.513C85.4819 115.42 84.4353 112.763 83.6302 109.543C82.8252 106.162 82.7447 103.263 83.3887 100.848C81.7786 102.78 80.6515 105.437 80.0075 108.818C79.5244 105.437 78.6389 102.136 77.3508 98.916C75.9017 95.6958 74.2111 93.1196 72.2789 91.1875C72.762 95.0517 72.2789 99.7211 70.8298 105.195C69.2197 110.509 67.1266 114.615 64.5504 117.513C65.9995 113.81 66.3215 109.301 65.5165 103.988C64.7114 98.6745 63.1013 94.4882 60.6861 91.429C61.6522 95.2933 61.8132 99.8016 61.1692 104.954C60.3641 110.106 58.915 114.293 56.8219 117.513C54.4067 114.615 52.3135 110.589 50.5424 105.437C48.6103 100.285 47.9662 95.8568 48.6103 92.1535C46.1951 95.0517 44.102 99.077 42.3308 104.229C40.3987 109.382 39.7547 113.81 40.3987 117.513C37.5005 117.513 34.2803 116.627 30.738 114.856C27.0348 112.924 24.1366 110.911 22.0434 108.818C22.3654 111.716 23.6535 114.937 25.9077 118.479C28.1618 121.86 30.4965 124.356 32.9117 125.966C30.4965 125.322 27.5983 125.483 24.2171 126.449C20.8358 127.254 18.1791 128.381 16.247 129.83C18.6622 129.186 21.5604 129.267 24.9416 130.072C28.3229 130.877 30.9795 132.084 32.9117 133.694C30.1745 134.016 26.8738 135.144 23.0095 137.076C21.1108 137.946 19.4647 138.855 18.0713 139.803C17.7752 139.785 17.4788 139.776 17.1824 139.776C5.18649 139.776 -0.811449 156.096 -0.811448 188.736C-0.811447 208.822 2.11779 227.652 7.97625 245.228C1.55985 266.988 -1.92733 279.123 -2.48529 281.634C-7.50682 303.394 -10.0176 324.456 -10.0176 344.822C-10.0176 364.476 -7.90809 381.917 -3.6891 397.147C-4.49302 398.859 -4.89498 401.068 -4.89498 403.774C-4.89498 414.589 0.199018 426.345 10.387 439.041C20.4183 451.736 33.3492 464.04 49.1798 475.952C33.6627 487.238 20.8101 499.933 10.6221 514.04C0.277391 527.99 -4.89498 540.999 -4.89498 553.068C-4.89498 557.143 -3.87618 560.591 -1.83857 563.413C0.0422914 566.234 2.47174 567.645 5.44977 567.645C12.0328 567.645 16.0296 564.431 17.4403 558.005C64.6186 558.632 114.226 563.334 166.263 572.112C191.342 576.343 206.389 578.459 211.404 578.459C216.577 578.459 220.26 577.284 222.454 574.933C224.805 572.425 225.981 569.76 225.981 566.939C225.981 563.961 224.805 561.375 222.454 559.181C220.26 556.986 217.125 555.732 213.05 555.419C208.975 554.949 194.32 554.322 169.085 553.538C113.129 551.5 67.9884 547.739 33.6627 542.253C25.3556 540.999 20.9669 540.372 20.4967 540.372C23.6314 531.438 29.3524 522.269 37.6595 512.864C45.9667 503.46 55.5277 495.153 66.3427 487.943C79.0385 496.25 91.2641 502.99 103.019 508.162C114.618 513.178 124.258 515.686 131.938 515.686C139.461 515.686 145.809 513.57 150.981 509.338C156.154 504.949 158.74 498.758 158.74 490.764C158.74 482.771 153.803 474.15 143.928 464.902C133.897 455.655 122.063 451.031 108.427 451.031C94.634 451.031 77.9413 457.222 58.349 469.605C50.3856 463.473 43.4836 457.279 37.6431 451.021C40.2342 451.639 42.8991 451.948 45.6377 451.948C57.6336 451.948 67.2582 443.718 74.5115 427.258C75.652 424.704 76.6993 422.022 77.6533 419.214C95.8485 417.174 116.53 415.319 139.696 413.649C144.712 413.179 149.414 411.768 153.803 409.417C155.525 408.396 156.897 407.298 157.918 406.122C161.145 406.822 164.449 407.172 167.828 407.172C183.73 407.172 197.679 401.314 209.674 389.597C218.044 380.949 223.623 372.161 226.413 363.234C246.22 362.118 262.54 355.98 275.373 344.822C276.21 343.985 276.628 342.45 276.628 340.218C275.233 340.218 273.838 340.637 272.444 341.474C261.006 352.075 246.081 357.933 227.668 359.049C229.063 354.307 229.761 348.03 229.761 340.218C229.761 310.647 220.136 281.913 200.887 254.016C180.522 224.444 157.646 209.659 132.259 209.659C123.332 209.659 116.358 212.727 111.336 218.865C106.036 224.723 103.385 232.256 103.385 241.462C103.385 278.565 116.776 308.834 143.558 332.268C167.27 352.912 193.773 363.234 223.065 363.234C218.881 375.509 208.977 381.646 193.354 381.646C170.479 381.646 147.882 368.674 125.564 342.729C103.246 316.785 90.692 288.608 87.9023 258.2C92.3659 242.857 94.7372 228.629 95.0161 215.517C95.2951 199.616 93.3423 191.665 89.1577 191.665C84.9731 191.665 82.8808 203.94 82.8808 228.489C82.8808 239.648 83.2992 249.412 84.1362 257.782C82.1833 264.198 79.2541 268.662 75.3485 271.172C70.6059 243.554 64.05 217.609 55.6808 193.339ZM16.7639 146.471C20.9052 146.471 25.1889 148.961 29.6148 153.942C27.9717 154.705 26.0919 155.362 23.9756 155.914C20.1113 156.88 16.73 157.202 13.8318 156.88C16.086 158.651 19.1452 160.1 23.0095 161.227C26.8738 162.193 30.1745 162.354 32.9117 161.71C32.2676 163.321 31.9456 165.655 31.9456 168.714C31.7846 171.613 32.1066 173.867 32.9117 175.477C34.0388 174.028 35.9709 172.659 38.7081 171.371C39.2974 171.04 39.8657 170.746 40.4129 170.49C43.353 176.135 46.35 182.775 49.4039 190.409C59.7259 216.075 67.3977 243.415 72.4192 272.428C71.3033 272.707 69.769 272.846 67.8162 272.846C58.0521 272.846 47.8695 267.825 37.2685 257.782C28.6203 249.691 21.7855 240.764 16.7639 231C22.0644 217.609 26.9465 207.985 31.41 202.126C31.968 201.289 32.247 199.755 32.247 197.523C30.5731 197.523 29.1783 198.36 28.0624 200.034C22.7619 207.287 18.2983 216.354 14.6716 227.234C6.86034 213.843 2.9547 197.663 2.9547 178.692C2.9547 168.37 4.34957 160.42 7.13931 154.84C9.92906 149.261 13.1373 146.471 16.7639 146.471ZM135.032 394.213C125.769 386.204 117.312 374.483 109.662 359.049C96.8295 333.105 88.4602 301.72 84.5546 264.895C82.3228 269.917 79.6726 274.381 76.6039 278.286C82.1833 320.132 84.9731 349.425 84.9731 366.163C84.9731 380.152 83.8906 392.669 81.7256 403.713C97.0846 402.888 109.59 402.046 119.242 401.188C124.414 400.718 129.508 398.524 134.524 394.605C134.694 394.472 134.864 394.341 135.032 394.213ZM78.4081 403.889C80.553 392.847 81.6254 380.132 81.6254 365.745C81.6254 337.01 78.9751 308.973 73.6746 281.634C66.7003 289.724 58.889 293.769 50.2408 293.769C31.5495 293.769 18.1588 279.681 10.0686 251.505C1.69933 282.75 -2.48529 312.182 -2.48529 339.8C-2.48529 360.084 -0.949413 377.773 2.12233 392.867C2.72273 392.772 3.36166 392.724 4.03911 392.724C6.8604 392.724 9.28985 393.978 11.3275 396.486C13.3651 398.837 14.3839 401.267 14.3839 403.774L14.619 406.596C39.4694 405.714 60.7324 404.812 78.4081 403.889ZM32.6453 445.338C36.7865 447.234 41.2568 448.181 46.0562 448.181C56.0993 448.181 64.4685 441.207 71.1639 427.258C72.2809 424.846 73.3085 422.293 74.2466 419.601C52.9665 422.057 35.2066 424.775 20.9669 427.755C23.9567 433.67 27.8495 439.531 32.6453 445.338ZM85.81 220.539C85.81 204.358 86.9259 196.268 89.1577 196.268C90.8315 196.268 91.529 203.8 91.25 218.865C90.971 231.419 89.4367 241.88 86.6469 250.249C86.089 242.996 85.81 233.092 85.81 220.539ZM114.265 221.794C118.729 216.493 124.727 213.843 132.259 213.843C157.367 213.564 179.964 228.768 200.05 259.455C217.904 286.795 226.831 313.576 226.831 339.8C226.831 347.053 225.994 353.609 224.321 359.468C203.398 359.468 179.545 348.03 152.764 325.154C122.356 299.488 107.152 271.591 107.152 241.462C107.152 233.65 109.523 227.094 114.265 221.794ZM76.2172 482.065C91.2641 473.758 104.744 469.605 116.656 469.605C123.395 469.605 129.587 471.25 135.229 474.542C140.715 477.677 143.458 481.438 143.458 485.827C143.458 490.216 141.342 493.899 137.11 496.877C132.878 499.698 127.941 501.109 122.298 501.109C111.954 501.109 96.5932 494.761 76.2172 482.065ZM147.149 102.539C143.607 100.929 140.226 100.043 137.005 99.8821C137.328 102.458 137.972 105.115 138.938 107.852C141.675 106.886 144.331 106.242 146.908 105.92C147.069 104.793 147.149 103.666 147.149 102.539ZM143.768 117.513C144.573 116.225 145.217 114.695 145.7 112.924C143.929 112.28 142.158 111.797 140.387 111.475C141.353 113.89 142.48 115.903 143.768 117.513ZM146.425 94.0857L147.632 93.8441L147.874 93.8441C147.23 93.8441 146.666 93.7637 146.183 93.6026L146.425 94.0857ZM152.463 105.92C152.141 105.598 151.738 105.276 151.255 104.954C151.255 105.276 151.335 105.598 151.496 105.92L152.463 105.92ZM62.0353 -57.2761L65.7533 -60.7463C68.893 -60.7463 72.4458 -59.5896 76.4118 -57.2761L78.3948 -52.5665C78.56 -51.5751 78.6426 -50.5836 78.6426 -49.5921C78.6426 -46.7003 77.9816 -43.1062 76.6597 -38.8097C74.9246 -33.2739 73.9331 -29.7211 73.6852 -28.1513C73.1895 -25.2594 72.9416 -21.624 72.9416 -17.2449C72.9416 -17.0797 73.6026 -14.3531 74.9246 -9.0652C76.4118 -3.44679 77.238 -0.141796 77.4033 0.849659L78.3948 1.59325C81.6997 10.2688 85.046 17.8288 88.4335 24.2735L87.3181 26.2565L86.5745 25.2649L84.5915 26.2565C79.7994 22.4557 75.0072 15.7219 70.215 6.05498L70.215 3.32836C66.0012 -1.95955 63.853 -4.60353 63.7704 -4.60353L63.7704 -5.59498L60.3002 -12.7833C61.0438 -13.5269 61.6221 -14.7662 62.0353 -16.5014L61.0438 -23.6896L62.0353 -26.4161L61.0438 -33.6044L58.5651 -36.331C58.5651 -36.4963 58.9369 -40.0491 59.6805 -46.9895C60.0936 -50.9554 60.8785 -54.3843 62.0353 -57.2761ZM274.543 -176.362C274.543 -188.243 270.583 -200.332 262.662 -212.629C254.742 -225.135 242.445 -235.66 225.771 -244.206C208.888 -252.752 187.941 -257.024 162.929 -257.024C143.545 -257.024 125.516 -253.273 108.842 -245.769C91.9593 -238.474 78.5156 -228.574 68.511 -216.068C58.5064 -203.771 53.5041 -190.536 53.5041 -176.362L53.5041 -148.224C53.5041 -144.473 54.6505 -141.034 56.9432 -137.907C59.0275 -134.989 62.4666 -133.53 67.2604 -133.53L261.099 -133.53C265.893 -133.53 269.332 -134.989 271.416 -137.907C273.501 -141.034 274.543 -144.473 274.543 -148.224L274.543 -176.362Z" fill="white"/>
</g>
<path d="M306.89 313.987V273.561H307.149L313.111 313.987H315.47L321.431 273.561H321.69V313.987H323.971V262.9H320.628L314.433 305.258H314.174L307.979 262.9H304.609V313.987H306.89Z" fill="white"/>
<path d="M327.255 313.987L329.095 301.18H338.141L339.982 313.987H342.6L335.031 262.9H332.309L324.741 313.987H327.255ZM333.502 270.556H333.761L337.364 295.456H329.873L333.502 270.556Z" fill="white"/>
<path d="M345.721 313.987V290.447H345.98L355.078 313.987H358.447L348.364 287.8L357.929 262.9H354.87L345.98 286.011H345.721V262.9H343.388V313.987H345.721Z" fill="white"/>
<path d="M372.323 313.987V308.263H361.566V291.306H371.027V285.581H361.566V268.624H372.193V262.9H359.233V313.987H372.323Z" fill="white"/>
<path d="M388.354 314.989C393.435 314.989 395.742 308.192 395.742 300.393C395.742 280.573 383.818 290.662 383.818 276.423C383.818 271.414 385.166 267.479 388.303 267.479C391.646 267.479 392.916 271.7 392.916 277.496V278.069H395.249V277.353C395.249 268.838 393.305 261.898 388.303 261.898C383.585 261.898 381.434 268.481 381.434 276.494C381.434 296.815 393.357 286.726 393.357 300.321C393.357 305.473 391.854 309.408 388.303 309.408C384.674 309.408 383.248 304.972 383.248 299.462V298.818H380.915V299.82C380.915 308.049 383.119 314.989 388.354 314.989Z" fill="white"/>
<path d="M406.311 314.989C411.91 314.989 415.306 305.473 415.306 288.444C415.306 271.414 411.91 261.898 406.311 261.898C400.687 261.898 397.291 271.414 397.291 288.444C397.291 305.473 400.687 314.989 406.311 314.989ZM406.311 309.265C402.138 309.265 399.702 301.824 399.702 288.444C399.702 275.063 402.138 267.622 406.311 267.622C410.459 267.622 412.921 275.063 412.921 288.444C412.921 301.824 410.459 309.265 406.311 309.265Z" fill="white"/>
<path d="M419.657 313.987V273.561H419.916L425.878 313.987H428.237L434.198 273.561H434.457V313.987H436.738V262.9H433.395L427.2 305.258H426.941L420.746 262.9H417.376V313.987H419.657Z" fill="white"/>
<path d="M452.412 313.987V308.263H441.655V291.306H451.116V285.581H441.655V268.624H452.282V262.9H439.322V313.987H452.412Z" fill="white"/>
<path d="M468.443 314.989C473.523 314.989 475.83 308.192 475.83 300.393C475.83 280.573 463.907 290.662 463.907 276.423C463.907 271.414 465.255 267.479 468.391 267.479C471.735 267.479 473.005 271.7 473.005 277.496V278.069H475.338V277.353C475.338 268.838 473.394 261.898 468.391 261.898C463.674 261.898 461.522 268.481 461.522 276.494C461.522 296.815 473.446 286.726 473.446 300.321C473.446 305.473 471.942 309.408 468.391 309.408C464.762 309.408 463.337 304.972 463.337 299.462V298.818H461.004V299.82C461.004 308.049 463.207 314.989 468.443 314.989Z" fill="white"/>
<path d="M486.4 314.989C491.999 314.989 495.394 305.473 495.394 288.444C495.394 271.414 491.999 261.898 486.4 261.898C480.775 261.898 477.38 271.414 477.38 288.444C477.38 305.473 480.775 314.989 486.4 314.989ZM486.4 309.265C482.227 309.265 479.791 301.824 479.791 288.444C479.791 275.063 482.227 267.622 486.4 267.622C490.547 267.622 493.01 275.063 493.01 288.444C493.01 301.824 490.547 309.265 486.4 309.265Z" fill="white"/>
<path d="M505.319 314.989C510.347 314.989 513.146 308.836 513.146 294.74V262.9H510.814V294.812C510.814 304.757 508.844 309.265 505.319 309.265C501.845 309.265 499.798 304.757 499.798 294.812V262.9H497.465V294.74C497.465 308.836 500.368 314.989 505.319 314.989Z" fill="white"/>
<path d="M518.073 313.987V273.704H518.333L528.83 313.987H531.422V262.9H529.089V303.183H528.83L518.333 262.9H515.741V313.987H518.073Z" fill="white"/>
<path d="M541.04 313.987C545.965 313.987 549.957 306.546 549.957 288.444C549.957 269.769 545.965 262.9 541.04 262.9H534.016V313.987H541.04ZM536.349 268.624H541.04C544.669 268.624 547.572 273.919 547.572 288.444C547.572 302.968 544.669 308.263 541.04 308.263H536.349V268.624Z" fill="white"/>
<path d="M349.278 386.678L353.14 346.18H353.4L357.262 386.678H360.294L365.53 335.59H363.068L358.972 377.805H358.713L354.721 335.59H351.896L347.93 377.805H347.671L343.576 335.59H340.984L346.246 386.678H349.278Z" fill="white"/>
<path d="M368.918 386.678V335.59H366.585V386.678H368.918Z" fill="white"/>
<path d="M378.908 386.678V341.314H385.155V335.59H370.355V341.314H376.576V386.678H378.908Z" fill="white"/>
<path d="M388.915 386.678V363.996H399.931V386.678H402.264V335.59H399.931V358.272H388.915V335.59H386.582V386.678H388.915Z" fill="white"/>
<path d="M419.231 386.678V341.314H425.478V335.59H410.678V341.314H416.898V386.678H419.231Z" fill="white"/>
<path d="M434.293 387.679C439.892 387.679 443.287 378.163 443.287 361.134C443.287 344.105 439.892 334.588 434.293 334.588C428.668 334.588 425.273 344.105 425.273 361.134C425.273 378.163 428.668 387.679 434.293 387.679ZM434.293 381.955C430.12 381.955 427.683 374.514 427.683 361.134C427.683 347.754 430.12 340.312 434.293 340.312C438.44 340.312 440.903 347.754 440.903 361.134C440.903 374.514 438.44 381.955 434.293 381.955Z" fill="white"/>
<path d="M447.691 386.678V346.394H447.95L458.447 386.678H461.039V335.59H458.706V375.873H458.447L447.95 335.59H445.358V386.678H447.691Z" fill="white"/>
<path d="M476.723 386.678V380.954H465.966V363.996H475.427V358.272H465.966V341.314H476.593V335.59H463.633V386.678H476.723Z" fill="white"/>
<path d="M479.988 387.178C480.921 387.178 481.647 385.175 481.647 382.456C481.647 379.88 480.921 377.877 479.988 377.877C479.003 377.877 478.277 379.88 478.277 382.456C478.277 385.175 479.003 387.178 479.988 387.178Z" fill="white"/>
<path d="M488.76 387.679C493.037 387.679 495.033 381.526 495.033 367.788V335.59H492.7V367.645C492.7 377.591 491.43 381.955 488.708 381.955C486.09 381.955 485.053 377.877 485.053 370.793H482.721V371.58C482.721 381.383 484.561 387.679 488.76 387.679Z" fill="white"/>
<path d="M504.6 387.679C509.681 387.679 511.988 380.882 511.988 373.083C511.988 353.263 500.064 363.352 500.064 349.113C500.064 344.105 501.412 340.169 504.549 340.169C507.892 340.169 509.162 344.391 509.162 350.186V350.759H511.495V350.043C511.495 341.529 509.551 334.588 504.549 334.588C499.831 334.588 497.68 341.171 497.68 349.185C497.68 369.505 509.603 359.417 509.603 373.011C509.603 378.163 508.1 382.098 504.549 382.098C500.92 382.098 499.494 377.662 499.494 372.153V371.509H497.161V372.51C497.161 380.739 499.365 387.679 504.6 387.679Z" fill="white"/>
<g filter="url(#filter1_iii_5_16195)">
<circle cx="281.673" cy="383.684" r="19.0892" fill="#0500FF"/>
</g>
<g filter="url(#filter2_iii_5_16195)">
<circle cx="305.645" cy="46.5897" r="19.0892" fill="#38D900"/>
</g>
<g filter="url(#filter3_iii_5_16195)">
<circle cx="595.978" cy="247.544" r="19.0892" fill="#38D900"/>
</g>
<g filter="url(#filter4_iii_5_16195)">
<path d="M100.171 491.321C100.171 492.228 90.0966 508.203 69.9468 539.245C53.7906 564.114 42.6266 582.539 36.4545 594.52C30.2825 606.32 25.6535 618.21 22.5675 630.191C19.4815 629.465 16.7586 629.102 14.3987 629.102C11.8573 629.102 7.04673 629.646 -0.0329291 630.735C5.95755 613.127 24.3828 585.716 55.2429 548.503C74.122 525.811 86.6475 509.564 92.8195 499.762C69.7653 526.991 46.6202 549.501 23.3844 567.291C8.31744 578.727 -0.668284 584.445 -3.57276 584.445C-4.29888 584.445 -4.66194 584.173 -4.66194 583.629C-4.66194 583.084 -4.11735 582.539 -3.02817 581.995C19.4815 571.829 52.1569 542.966 94.9979 495.405L96.6316 493.499C98.2654 491.684 99.2638 490.776 99.6269 490.776C99.99 490.776 100.171 490.958 100.171 491.321Z" fill="#FFE600"/>
</g>
<g filter="url(#filter5_iii_5_16195)">
<path d="M276.768 516.372C276.768 528.534 271.685 539.426 261.519 549.047C254.258 555.945 246.725 561.482 238.919 565.657C231.294 569.651 216.137 576.186 193.446 585.262C165.127 596.699 145.612 608.861 134.902 621.75C142.889 615.578 151.512 612.492 160.77 612.492C168.213 612.492 178.016 614.398 190.178 618.21C200.707 621.477 208.694 623.111 214.14 623.111C221.583 623.111 228.481 620.116 234.834 614.126C241.369 607.954 245.817 600.148 248.177 590.708C248.358 589.619 248.812 589.074 249.538 589.074C249.901 589.074 250.083 589.256 250.083 589.619C250.083 594.702 247.088 601.418 241.097 609.769C230.024 625.199 216.228 632.914 199.708 632.914C193.536 632.914 184.46 631.099 172.479 627.468C157.956 623.111 148.789 620.933 144.977 620.933C135.719 620.933 130.636 624.654 129.729 632.097C129.547 634.094 128.912 635.092 127.823 635.092C127.096 635.092 126.733 634.729 126.733 634.003C126.733 629.828 130.273 624.11 137.353 616.848C143.525 610.495 149.788 605.321 156.141 601.328C162.676 597.334 174.839 591.162 192.629 582.812C214.957 572.283 232.384 560.302 244.909 546.869C257.616 533.254 263.97 519.73 263.97 506.297C263.97 500.669 261.882 496.222 257.707 492.954C253.532 489.687 247.995 488.053 241.097 488.053C225.486 488.053 208.603 496.04 190.45 512.015C172.297 527.99 163.221 542.875 163.221 556.671C163.221 566.655 169.211 571.648 181.192 571.648C190.632 571.648 201.251 567.019 213.051 557.761C224.85 548.321 232.928 538.155 237.285 527.264C237.466 526.356 237.83 525.902 238.374 525.902C238.919 525.902 239.191 526.174 239.191 526.719C239.191 530.531 235.379 536.975 227.755 546.052C221.038 553.858 213.323 560.302 204.61 565.385C196.078 570.468 188.363 573.009 181.465 573.009C174.748 573.009 169.302 571.012 165.127 567.019C160.952 562.843 158.864 557.397 158.864 550.681C158.864 534.162 169.847 518.641 191.812 504.119C209.783 492.319 226.393 486.419 241.642 486.419C251.989 486.419 260.43 489.233 266.965 494.86C273.5 500.306 276.768 507.477 276.768 516.372Z" fill="#38D900"/>
</g>
<g filter="url(#filter6_iii_5_16195)">
<path d="M439.477 510.109C439.477 531.166 421.233 544.872 384.746 551.225C406.166 556.127 416.876 567.019 416.876 583.901C416.876 596.608 409.524 607.863 394.821 617.665C380.298 627.286 363.416 632.097 344.174 632.097C332.011 632.097 322.027 629.646 314.221 624.745C306.416 619.844 302.513 613.581 302.513 605.957C302.513 597.969 306.325 591.253 313.949 585.807C321.755 580.179 331.194 577.366 342.268 577.366C350.618 577.366 354.793 577.91 354.793 579C354.793 579.544 354.521 579.816 353.976 579.816H352.887C349.62 579.272 346.897 579 344.718 579C335.097 579 326.928 581.813 320.212 587.441C313.495 592.887 310.137 599.603 310.137 607.59C310.137 614.126 312.769 619.481 318.033 623.656C323.298 627.831 330.105 629.919 338.456 629.919C354.612 629.919 369.497 624.2 383.112 612.764C396.727 601.146 403.534 588.439 403.534 574.643C403.534 563.206 396.545 555.673 382.567 552.042C374.943 553.132 368.68 553.676 363.779 553.676C359.241 553.676 356.972 553.132 356.972 552.042C356.972 550.227 360.239 549.319 366.774 549.319C371.857 549.319 377.121 549.773 382.567 550.681C396 546.143 406.711 539.608 414.698 531.076C422.685 522.544 426.679 513.286 426.679 503.302C426.679 492.047 419.509 486.419 405.168 486.419C392.824 486.419 380.389 490.685 367.863 499.217C355.519 507.749 349.347 516.372 349.347 525.085C349.347 533.073 354.43 537.066 364.596 537.066C370.768 537.066 377.666 534.616 385.29 529.714C393.096 524.813 399.177 519.004 403.534 512.287C403.897 511.38 404.442 510.926 405.168 510.926C405.531 510.926 405.712 511.107 405.712 511.47C405.712 512.378 403.988 514.738 400.539 518.55C397.271 522.181 394.185 525.176 391.281 527.536C381.841 534.979 372.765 538.7 364.051 538.7C358.968 538.7 354.702 537.157 351.253 534.071C347.986 530.985 346.352 527.082 346.352 522.362C346.352 513.286 352.615 504.754 365.14 496.767C377.847 488.779 391.281 484.786 405.44 484.786C415.787 484.786 424.047 487.055 430.219 491.593C436.391 496.131 439.477 502.303 439.477 510.109Z" fill="#0500FF"/>
</g>
<g filter="url(#filter7_iii_5_16195)">
<path d="M658.823 474.166C658.823 474.892 658.46 475.255 657.734 475.255C657.552 475.255 657.099 475.165 656.372 474.983C652.197 473.531 648.204 472.805 644.391 472.805C621.337 472.805 591.748 491.502 555.623 528.897C537.833 547.232 524.763 559.939 516.413 567.019C508.063 574.098 498.351 580.543 487.277 586.351C497.625 583.629 511.33 582.267 528.394 582.267C534.747 582.267 540.012 582.449 544.187 582.812C549.088 575.369 559.617 560.483 575.773 538.155C589.751 518.913 598.464 505.662 601.913 498.4C602.458 497.311 603.003 496.767 603.547 496.767C603.91 496.767 604.092 496.948 604.092 497.311C604.092 497.493 604.001 497.765 603.82 498.128L602.458 500.851C601.369 503.029 595.106 514.466 583.67 535.16C572.233 555.673 563.701 571.829 558.074 583.629C563.52 583.992 568.603 584.173 573.323 584.173C582.581 584.173 590.114 582.176 595.923 578.183C601.732 574.007 604.636 568.743 604.636 562.39C604.636 560.03 604.001 557.488 602.73 554.765C602.549 554.402 602.458 553.948 602.458 553.404C602.458 552.859 602.73 552.587 603.275 552.587C605.272 552.587 606.27 555.854 606.27 562.39C606.27 580.179 589.297 589.074 555.351 589.074C547.545 605.957 542.826 619.571 541.192 629.919C537.924 628.829 534.657 628.285 531.389 628.285C527.214 628.285 522.767 628.829 518.047 629.919C522.767 617.212 530.118 603.597 540.103 589.074C538.106 589.074 533.386 588.711 525.943 587.985C515.596 586.896 507.881 586.351 502.798 586.351C497.897 586.351 492.451 586.715 486.461 587.441C475.932 594.157 467.491 597.516 461.137 597.516C459.685 597.516 458.959 597.062 458.959 596.154C458.959 593.068 467.491 589.801 484.555 586.351C496.717 579.09 506.883 571.92 515.051 564.84C522.857 558.305 535.927 545.598 554.262 526.719C591.112 488.961 621.156 470.082 644.391 470.082C647.659 470.082 650.836 470.536 653.922 471.443C657.189 472.351 658.823 473.258 658.823 474.166Z" fill="#FF00C7"/>
</g>
</g>
<defs>
<filter id="filter0_diiii_5_16195" x="-125.415" y="-404.596" width="509.637" height="3407.12" filterUnits="userSpaceOnUse" color-interpolation-filters="sRGB">
<feFlood flood-opacity="0" result="BackgroundImageFix"/>
<feColorMatrix in="SourceAlpha" type="matrix" values="0 0 0 0 0 0 0 0 0 0 0 0 0 0 0 0 0 0 127 0" result="hardAlpha"/>
<feOffset/>
<feGaussianBlur stdDeviation="14.7978"/>
<feComposite in2="hardAlpha" operator="out"/>
<feColorMatrix type="matrix" values="0 0 0 0 1 0 0 0 0 1 0 0 0 0 1 0 0 0 1 0"/>
<feBlend mode="normal" in2="BackgroundImageFix" result="effect1_dropShadow_5_16195"/>
<feBlend mode="normal" in="SourceGraphic" in2="effect1_dropShadow_5_16195" result="shape"/>
<feColorMatrix in="SourceAlpha" type="matrix" values="0 0 0 0 0 0 0 0 0 0 0 0 0 0 0 0 0 0 127 0" result="hardAlpha"/>
<feOffset dx="1.47978" dy="1.47978"/>
<feGaussianBlur stdDeviation="2.95956"/>
<feComposite in2="hardAlpha" operator="arithmetic" k2="-1" k3="1"/>
<feColorMatrix type="matrix" values="0 0 0 0 0 0 0 0 0 0 0 0 0 0 0 0 0 0 1 0"/>
<feBlend mode="normal" in2="shape" result="effect2_innerShadow_5_16195"/>
<feColorMatrix in="SourceAlpha" type="matrix" values="0 0 0 0 0 0 0 0 0 0 0 0 0 0 0 0 0 0 127 0" result="hardAlpha"/>
<feOffset dx="1.47978" dy="1.47978"/>
<feGaussianBlur stdDeviation="5.91913"/>
<feComposite in2="hardAlpha" operator="arithmetic" k2="-1" k3="1"/>
<feColorMatrix type="matrix" values="0 0 0 0 0 0 0 0 0 0 0 0 0 0 0 0 0 0 0.15 0"/>
<feBlend mode="normal" in2="effect2_innerShadow_5_16195" result="effect3_innerShadow_5_16195"/>
<feColorMatrix in="SourceAlpha" type="matrix" values="0 0 0 0 0 0 0 0 0 0 0 0 0 0 0 0 0 0 127 0" result="hardAlpha"/>
<feOffset dx="1.47978" dy="1.47978"/>
<feGaussianBlur stdDeviation="4.43934"/>
<feComposite in2="hardAlpha" operator="arithmetic" k2="-1" k3="1"/>
<feColorMatrix type="matrix" values="0 0 0 0 0 0 0 0 0 0 0 0 0 0 0 0 0 0 0.05 0"/>
<feBlend mode="normal" in2="effect3_innerShadow_5_16195" result="effect4_innerShadow_5_16195"/>
<feColorMatrix in="SourceAlpha" type="matrix" values="0 0 0 0 0 0 0 0 0 0 0 0 0 0 0 0 0 0 127 0" result="hardAlpha"/>
<feOffset dx="2.95956" dy="2.95956"/>
<feGaussianBlur stdDeviation="7.39891"/>
<feComposite in2="hardAlpha" operator="arithmetic" k2="-1" k3="1"/>
<feColorMatrix type="matrix" values="0 0 0 0 1 0 0 0 0 1 0 0 0 0 1 0 0 0 1 0"/>
<feBlend mode="normal" in2="effect4_innerShadow_5_16195" result="effect5_innerShadow_5_16195"/>
</filter>
<filter id="filter1_iii_5_16195" x="261.238" y="363.249" width="40.87" height="40.87" filterUnits="userSpaceOnUse" color-interpolation-filters="sRGB">
<feFlood flood-opacity="0" result="BackgroundImageFix"/>
<feBlend mode="normal" in="SourceGraphic" in2="BackgroundImageFix" result="shape"/>
<feColorMatrix in="SourceAlpha" type="matrix" values="0 0 0 0 0 0 0 0 0 0 0 0 0 0 0 0 0 0 127 0" result="hardAlpha"/>
<feOffset dx="-1.34576" dy="-1.34576"/>
<feGaussianBlur stdDeviation="3.3644"/>
<feComposite in2="hardAlpha" operator="arithmetic" k2="-1" k3="1"/>
<feColorMatrix type="matrix" values="0 0 0 0 0 0 0 0 0 0 0 0 0 0 0 0 0 0 1 0"/>
<feBlend mode="normal" in2="shape" result="effect1_innerShadow_5_16195"/>
<feColorMatrix in="SourceAlpha" type="matrix" values="0 0 0 0 0 0 0 0 0 0 0 0 0 0 0 0 0 0 127 0" result="hardAlpha"/>
<feOffset dx="1.34576" dy="1.34576"/>
<feGaussianBlur stdDeviation="10.0932"/>
<feComposite in2="hardAlpha" operator="arithmetic" k2="-1" k3="1"/>
<feColorMatrix type="matrix" values="0 0 0 0 1 0 0 0 0 1 0 0 0 0 1 0 0 0 1 0"/>
<feBlend mode="normal" in2="effect1_innerShadow_5_16195" result="effect2_innerShadow_5_16195"/>
<feColorMatrix in="SourceAlpha" type="matrix" values="0 0 0 0 0 0 0 0 0 0 0 0 0 0 0 0 0 0 127 0" result="hardAlpha"/>
<feOffset dx="1.34576" dy="1.34576"/>
<feGaussianBlur stdDeviation="10.0932"/>
<feComposite in2="hardAlpha" operator="arithmetic" k2="-1" k3="1"/>
<feColorMatrix type="matrix" values="0 0 0 0 1 0 0 0 0 0 0 0 0 0 0 0 0 0 1 0"/>
<feBlend mode="normal" in2="effect2_innerShadow_5_16195" result="effect3_innerShadow_5_16195"/>
</filter>
<filter id="filter2_iii_5_16195" x="285.21" y="26.1547" width="40.87" height="40.87" filterUnits="userSpaceOnUse" color-interpolation-filters="sRGB">
<feFlood flood-opacity="0" result="BackgroundImageFix"/>
<feBlend mode="normal" in="SourceGraphic" in2="BackgroundImageFix" result="shape"/>
<feColorMatrix in="SourceAlpha" type="matrix" values="0 0 0 0 0 0 0 0 0 0 0 0 0 0 0 0 0 0 127 0" result="hardAlpha"/>
<feOffset dx="-1.34576" dy="-1.34576"/>
<feGaussianBlur stdDeviation="3.3644"/>
<feComposite in2="hardAlpha" operator="arithmetic" k2="-1" k3="1"/>
<feColorMatrix type="matrix" values="0 0 0 0 0 0 0 0 0 0 0 0 0 0 0 0 0 0 1 0"/>
<feBlend mode="normal" in2="shape" result="effect1_innerShadow_5_16195"/>
<feColorMatrix in="SourceAlpha" type="matrix" values="0 0 0 0 0 0 0 0 0 0 0 0 0 0 0 0 0 0 127 0" result="hardAlpha"/>
<feOffset dx="1.34576" dy="1.34576"/>
<feGaussianBlur stdDeviation="10.0932"/>
<feComposite in2="hardAlpha" operator="arithmetic" k2="-1" k3="1"/>
<feColorMatrix type="matrix" values="0 0 0 0 1 0 0 0 0 1 0 0 0 0 1 0 0 0 1 0"/>
<feBlend mode="normal" in2="effect1_innerShadow_5_16195" result="effect2_innerShadow_5_16195"/>
<feColorMatrix in="SourceAlpha" type="matrix" values="0 0 0 0 0 0 0 0 0 0 0 0 0 0 0 0 0 0 127 0" result="hardAlpha"/>
<feOffset dx="1.34576" dy="1.34576"/>
<feGaussianBlur stdDeviation="10.0932"/>
<feComposite in2="hardAlpha" operator="arithmetic" k2="-1" k3="1"/>
<feColorMatrix type="matrix" values="0 0 0 0 0.74 0 0 0 0 0 0 0 0 0 1 0 0 0 1 0"/>
<feBlend mode="normal" in2="effect2_innerShadow_5_16195" result="effect3_innerShadow_5_16195"/>
</filter>
<filter id="filter3_iii_5_16195" x="575.543" y="227.109" width="40.87" height="40.87" filterUnits="userSpaceOnUse" color-interpolation-filters="sRGB">
<feFlood flood-opacity="0" result="BackgroundImageFix"/>
<feBlend mode="normal" in="SourceGraphic" in2="BackgroundImageFix" result="shape"/>
<feColorMatrix in="SourceAlpha" type="matrix" values="0 0 0 0 0 0 0 0 0 0 0 0 0 0 0 0 0 0 127 0" result="hardAlpha"/>
<feOffset dx="-1.34576" dy="-1.34576"/>
<feGaussianBlur stdDeviation="3.3644"/>
<feComposite in2="hardAlpha" operator="arithmetic" k2="-1" k3="1"/>
<feColorMatrix type="matrix" values="0 0 0 0 0 0 0 0 0 0 0 0 0 0 0 0 0 0 1 0"/>
<feBlend mode="normal" in2="shape" result="effect1_innerShadow_5_16195"/>
<feColorMatrix in="SourceAlpha" type="matrix" values="0 0 0 0 0 0 0 0 0 0 0 0 0 0 0 0 0 0 127 0" result="hardAlpha"/>
<feOffset dx="1.34576" dy="1.34576"/>
<feGaussianBlur stdDeviation="10.0932"/>
<feComposite in2="hardAlpha" operator="arithmetic" k2="-1" k3="1"/>
<feColorMatrix type="matrix" values="0 0 0 0 1 0 0 0 0 1 0 0 0 0 1 0 0 0 1 0"/>
<feBlend mode="normal" in2="effect1_innerShadow_5_16195" result="effect2_innerShadow_5_16195"/>
<feColorMatrix in="SourceAlpha" type="matrix" values="0 0 0 0 0 0 0 0 0 0 0 0 0 0 0 0 0 0 127 0" result="hardAlpha"/>
<feOffset dx="1.34576" dy="1.34576"/>
<feGaussianBlur stdDeviation="10.0932"/>
<feComposite in2="hardAlpha" operator="arithmetic" k2="-1" k3="1"/>
<feColorMatrix type="matrix" values="0 0 0 0 0.74 0 0 0 0 0 0 0 0 0 1 0 0 0 1 0"/>
<feBlend mode="normal" in2="effect2_innerShadow_5_16195" result="effect3_innerShadow_5_16195"/>
</filter>
<filter id="filter4_iii_5_16195" x="-5.25378" y="490.184" width="106.017" height="141.143" filterUnits="userSpaceOnUse" color-interpolation-filters="sRGB">
<feFlood flood-opacity="0" result="BackgroundImageFix"/>
<feBlend mode="normal" in="SourceGraphic" in2="BackgroundImageFix" result="shape"/>
<feColorMatrix in="SourceAlpha" type="matrix" values="0 0 0 0 0 0 0 0 0 0 0 0 0 0 0 0 0 0 127 0" result="hardAlpha"/>
<feOffset dx="-0.591913" dy="-0.591913"/>
<feGaussianBlur stdDeviation="1.47978"/>
<feComposite in2="hardAlpha" operator="arithmetic" k2="-1" k3="1"/>
<feColorMatrix type="matrix" values="0 0 0 0 0 0 0 0 0 0 0 0 0 0 0 0 0 0 1 0"/>
<feBlend mode="normal" in2="shape" result="effect1_innerShadow_5_16195"/>
<feColorMatrix in="SourceAlpha" type="matrix" values="0 0 0 0 0 0 0 0 0 0 0 0 0 0 0 0 0 0 127 0" result="hardAlpha"/>
<feOffset dx="0.591913" dy="0.591913"/>
<feGaussianBlur stdDeviation="4.43934"/>
<feComposite in2="hardAlpha" operator="arithmetic" k2="-1" k3="1"/>
<feColorMatrix type="matrix" values="0 0 0 0 1 0 0 0 0 1 0 0 0 0 1 0 0 0 1 0"/>
<feBlend mode="normal" in2="effect1_innerShadow_5_16195" result="effect2_innerShadow_5_16195"/>
<feColorMatrix in="SourceAlpha" type="matrix" values="0 0 0 0 0 0 0 0 0 0 0 0 0 0 0 0 0 0 127 0" result="hardAlpha"/>
<feOffset dx="0.591913" dy="0.591913"/>
<feGaussianBlur stdDeviation="4.43934"/>
<feComposite in2="hardAlpha" operator="arithmetic" k2="-1" k3="1"/>
<feColorMatrix type="matrix" values="0 0 0 0 0 0 0 0 0 0.34 0 0 0 0 1 0 0 0 1 0"/>
<feBlend mode="normal" in2="effect2_innerShadow_5_16195" result="effect3_innerShadow_5_16195"/>
</filter>
<filter id="filter5_iii_5_16195" x="126.141" y="485.828" width="151.218" height="149.857" filterUnits="userSpaceOnUse" color-interpolation-filters="sRGB">
<feFlood flood-opacity="0" result="BackgroundImageFix"/>
<feBlend mode="normal" in="SourceGraphic" in2="BackgroundImageFix" result="shape"/>
<feColorMatrix in="SourceAlpha" type="matrix" values="0 0 0 0 0 0 0 0 0 0 0 0 0 0 0 0 0 0 127 0" result="hardAlpha"/>
<feOffset dx="-0.591913" dy="-0.591913"/>
<feGaussianBlur stdDeviation="1.47978"/>
<feComposite in2="hardAlpha" operator="arithmetic" k2="-1" k3="1"/>
<feColorMatrix type="matrix" values="0 0 0 0 0 0 0 0 0 0 0 0 0 0 0 0 0 0 1 0"/>
<feBlend mode="normal" in2="shape" result="effect1_innerShadow_5_16195"/>
<feColorMatrix in="SourceAlpha" type="matrix" values="0 0 0 0 0 0 0 0 0 0 0 0 0 0 0 0 0 0 127 0" result="hardAlpha"/>
<feOffset dx="0.591913" dy="0.591913"/>
<feGaussianBlur stdDeviation="4.43934"/>
<feComposite in2="hardAlpha" operator="arithmetic" k2="-1" k3="1"/>
<feColorMatrix type="matrix" values="0 0 0 0 1 0 0 0 0 1 0 0 0 0 1 0 0 0 1 0"/>
<feBlend mode="normal" in2="effect1_innerShadow_5_16195" result="effect2_innerShadow_5_16195"/>
<feColorMatrix in="SourceAlpha" type="matrix" values="0 0 0 0 0 0 0 0 0 0 0 0 0 0 0 0 0 0 127 0" result="hardAlpha"/>
<feOffset dx="0.591913" dy="0.591913"/>
<feGaussianBlur stdDeviation="4.43934"/>
<feComposite in2="hardAlpha" operator="arithmetic" k2="-1" k3="1"/>
<feColorMatrix type="matrix" values="0 0 0 0 0.74 0 0 0 0 0 0 0 0 0 1 0 0 0 1 0"/>
<feBlend mode="normal" in2="effect2_innerShadow_5_16195" result="effect3_innerShadow_5_16195"/>
</filter>
<filter id="filter6_iii_5_16195" x="301.921" y="484.194" width="138.148" height="148.495" filterUnits="userSpaceOnUse" color-interpolation-filters="sRGB">
<feFlood flood-opacity="0" result="BackgroundImageFix"/>
<feBlend mode="normal" in="SourceGraphic" in2="BackgroundImageFix" result="shape"/>
<feColorMatrix in="SourceAlpha" type="matrix" values="0 0 0 0 0 0 0 0 0 0 0 0 0 0 0 0 0 0 127 0" result="hardAlpha"/>
<feOffset dx="-0.591913" dy="-0.591913"/>
<feGaussianBlur stdDeviation="1.47978"/>
<feComposite in2="hardAlpha" operator="arithmetic" k2="-1" k3="1"/>
<feColorMatrix type="matrix" values="0 0 0 0 0 0 0 0 0 0 0 0 0 0 0 0 0 0 1 0"/>
<feBlend mode="normal" in2="shape" result="effect1_innerShadow_5_16195"/>
<feColorMatrix in="SourceAlpha" type="matrix" values="0 0 0 0 0 0 0 0 0 0 0 0 0 0 0 0 0 0 127 0" result="hardAlpha"/>
<feOffset dx="0.591913" dy="0.591913"/>
<feGaussianBlur stdDeviation="4.43934"/>
<feComposite in2="hardAlpha" operator="arithmetic" k2="-1" k3="1"/>
<feColorMatrix type="matrix" values="0 0 0 0 1 0 0 0 0 1 0 0 0 0 1 0 0 0 1 0"/>
<feBlend mode="normal" in2="effect1_innerShadow_5_16195" result="effect2_innerShadow_5_16195"/>
<feColorMatrix in="SourceAlpha" type="matrix" values="0 0 0 0 0 0 0 0 0 0 0 0 0 0 0 0 0 0 127 0" result="hardAlpha"/>
<feOffset dx="0.591913" dy="0.591913"/>
<feGaussianBlur stdDeviation="4.43934"/>
<feComposite in2="hardAlpha" operator="arithmetic" k2="-1" k3="1"/>
<feColorMatrix type="matrix" values="0 0 0 0 1 0 0 0 0 0 0 0 0 0 0 0 0 0 1 0"/>
<feBlend mode="normal" in2="effect2_innerShadow_5_16195" result="effect3_innerShadow_5_16195"/>
</filter>
<filter id="filter7_iii_5_16195" x="458.367" y="469.49" width="201.048" height="161.02" filterUnits="userSpaceOnUse" color-interpolation-filters="sRGB">
<feFlood flood-opacity="0" result="BackgroundImageFix"/>
<feBlend mode="normal" in="SourceGraphic" in2="BackgroundImageFix" result="shape"/>
<feColorMatrix in="SourceAlpha" type="matrix" values="0 0 0 0 0 0 0 0 0 0 0 0 0 0 0 0 0 0 127 0" result="hardAlpha"/>
<feOffset dx="-0.591913" dy="-0.591913"/>
<feGaussianBlur stdDeviation="1.47978"/>
<feComposite in2="hardAlpha" operator="arithmetic" k2="-1" k3="1"/>
<feColorMatrix type="matrix" values="0 0 0 0 0 0 0 0 0 0 0 0 0 0 0 0 0 0 1 0"/>
<feBlend mode="normal" in2="shape" result="effect1_innerShadow_5_16195"/>
<feColorMatrix in="SourceAlpha" type="matrix" values="0 0 0 0 0 0 0 0 0 0 0 0 0 0 0 0 0 0 127 0" result="hardAlpha"/>
<feOffset dx="0.591913" dy="0.591913"/>
<feGaussianBlur stdDeviation="4.43934"/>
<feComposite in2="hardAlpha" operator="arithmetic" k2="-1" k3="1"/>
<feColorMatrix type="matrix" values="0 0 0 0 1 0 0 0 0 1 0 0 0 0 1 0 0 0 1 0"/>
<feBlend mode="normal" in2="effect1_innerShadow_5_16195" result="effect2_innerShadow_5_16195"/>
<feColorMatrix in="SourceAlpha" type="matrix" values="0 0 0 0 0 0 0 0 0 0 0 0 0 0 0 0 0 0 127 0" result="hardAlpha"/>
<feOffset dx="0.591913" dy="0.591913"/>
<feGaussianBlur stdDeviation="4.43934"/>
<feComposite in2="hardAlpha" operator="arithmetic" k2="-1" k3="1"/>
<feColorMatrix type="matrix" values="0 0 0 0 0 0 0 0 0 1 0 0 0 0 0.28 0 0 0 1 0"/>
<feBlend mode="normal" in2="effect2_innerShadow_5_16195" result="effect3_innerShadow_5_16195"/>
</filter>
<clipPath id="clip0_5_16195">
<rect width="635" height="618" rx="10" fill="white"/>
</clipPath>
</defs>
</svg>
