<svg width="1406" height="2560" viewBox="0 0 1406 2560" fill="none" xmlns="http://www.w3.org/2000/svg">
<g clip-path="url(#clip0_266_297)">
<g filter="url(#filter0_d_266_297)">
<path d="M873.777 511.357L873.777 322.86L1165.72 322.86L1165.72 348.211L895.857 348.211L895.857 511.357L873.777 511.357ZM868.053 646.978C868.053 559.884 922.435 507.546 1019.75 507.546C1117.07 507.546 1171.45 559.884 1171.45 646.978C1171.45 733.662 1117.07 786 1019.75 786C922.435 786 868.053 733.662 868.053 646.978ZM890.133 646.978C890.133 718.942 935.928 760.649 1019.75 760.649C1103.57 760.649 1149.37 718.942 1149.37 646.978C1149.37 574.604 1103.57 532.898 1019.75 532.898C935.928 532.898 890.133 574.604 890.133 646.978ZM873.777 844.148L873.777 818.797L1165.72 818.797L1165.72 925.108C1165.72 1004.43 1128.92 1030.6 1083.54 1030.6C1050.01 1030.6 1021.39 1019.56 1008.71 977.446L1004.62 977.446C995.217 1014.25 971.093 1025.69 935.111 1034.69L873.777 1050.23L873.777 1024.06L932.248 1009.34C960.871 1001.98 992.355 992.575 992.355 931.65L992.355 844.148L873.777 844.148ZM1143.64 844.148L1014.44 844.148L1014.44 929.197C1014.44 987.668 1047.56 1005.25 1079.45 1005.25C1112.16 1005.25 1143.64 987.668 1143.64 929.197L1143.64 844.148ZM873.777 1174.71L873.777 1149.36L1143.64 1149.36L1143.64 1048.37L1165.72 1048.37L1165.72 1275.71L1143.64 1275.71L1143.64 1174.71L873.777 1174.71ZM873.777 1323.71L873.777 1298.36L1165.72 1298.36L1165.72 1323.71L1030.79 1323.71L1030.79 1514.67L1165.72 1514.67L1165.72 1540.02L873.777 1540.02L873.777 1514.67L1008.71 1514.67L1008.71 1323.71L873.777 1323.71ZM873.777 1606.42L873.777 1581.07L1165.72 1581.07L1165.72 1606.42L873.777 1606.42ZM868.053 1778.61C868.053 1691.52 922.435 1639.18 1019.75 1639.18C1117.07 1639.18 1171.45 1691.52 1171.45 1778.61C1171.45 1865.29 1117.07 1917.63 1019.75 1917.63C922.435 1917.63 868.053 1865.29 868.053 1778.61ZM890.133 1778.61C890.133 1850.57 935.928 1892.28 1019.75 1892.28C1103.57 1892.28 1149.37 1850.57 1149.37 1778.61C1149.37 1706.24 1103.57 1664.53 1019.75 1664.53C935.928 1664.53 890.133 1706.24 890.133 1778.61ZM873.777 1975.78L873.777 1950.43L1165.72 1950.43L1165.72 1975.78L873.777 1975.78ZM868.053 2123.43C868.053 2047.79 904.035 2008.94 953.102 2008.94L957.191 2008.94L957.191 2034.3L954.328 2034.3C921.208 2034.3 890.133 2056.78 890.133 2123.43C890.133 2187.22 917.937 2213.39 950.648 2213.39C1038.56 2213.39 972.728 2020.39 1090.9 2020.39C1132.2 2020.39 1171.45 2048.61 1171.45 2125.07C1171.45 2201.53 1130.15 2229.34 1083.95 2229.34L1081.9 2229.34L1081.9 2203.98L1083.95 2203.98C1121.97 2203.98 1149.37 2181.5 1149.37 2123.84C1149.37 2067.42 1121.16 2045.74 1089.26 2045.74C996.853 2045.74 1063.09 2238.74 948.604 2238.74C907.715 2238.74 868.053 2206.03 868.053 2123.43Z" fill="black"/>
</g>
<path fill-rule="evenodd" clip-rule="evenodd" d="M991.945 330.381C986.522 329.713 981.113 328.876 975.747 327.998C973.721 327.669 971.703 327.333 969.692 326.997C961.145 325.574 952.726 324.17 944.337 323.27C919.711 320.635 893.563 316.807 869.276 311.489C789.521 294.02 708.569 280.991 627.446 273.604C614.439 272.417 601.582 269.643 588.992 266.927C587.734 266.654 586.475 266.384 585.221 266.114C571.33 263.134 557.724 260.415 544.001 259.9C543.428 259.878 542.679 259.801 541.935 259.524C541.19 259.247 539.984 258.586 539.37 257.129C538.757 255.675 539.123 254.367 539.425 253.676C539.73 252.978 540.158 252.432 540.478 252.07C541.68 250.715 543.792 249.269 545.656 248.089C548.862 246.058 552.839 243.912 554.658 242.931C555.07 242.708 555.371 242.546 555.529 242.457C570.331 234.134 586.631 229.057 602.506 224.142L602.861 224.031C618.744 219.108 634.191 214.324 648.165 206.637C654.399 203.21 661.253 200.534 667.985 198.016C668.919 197.666 669.85 197.319 670.78 196.973C676.615 194.802 682.309 192.683 687.681 190.171C692.177 188.071 696.563 185.691 701.068 183.248C702.451 182.496 703.847 181.74 705.261 180.982C711.198 177.803 717.367 174.671 723.88 172.349C731.974 169.455 740.026 166.043 748.218 162.553L748.927 162.251C756.858 158.872 764.919 155.437 773.103 152.449C789.918 146.312 807.528 139.845 822.161 130.508C828.887 126.219 836.657 124.589 843.602 123.136C844.032 123.047 844.458 122.957 844.881 122.867C852.423 121.274 858.93 119.699 864.152 115.671C869.35 111.66 876.307 108.788 882.845 106.176C883.344 105.976 883.838 105.779 884.333 105.583C890.549 103.106 896.386 100.78 901.058 97.8112C901.619 97.4547 902.231 97.0511 902.878 96.6186C864.795 95.5358 826.924 99.7612 788.924 104.824C782.17 105.725 775.412 106.649 768.645 107.577C736.199 112.025 703.616 116.49 670.986 118.1C661.47 118.566 652.143 120.926 642.374 123.398C641.406 123.645 640.434 123.891 639.454 124.138C628.771 126.821 617.56 129.401 605.884 128.962L544.625 126.662C542.189 126.57 539.762 126.475 537.338 126.381C516.223 125.55 495.542 124.739 474.711 126.724C472.634 126.922 470.792 125.399 470.595 123.327C470.397 121.251 471.92 119.409 473.992 119.211C495.365 117.175 516.567 118.013 537.613 118.841C540.045 118.936 542.476 119.031 544.908 119.122L606.167 121.423C616.648 121.816 626.909 119.506 637.615 116.82C638.606 116.571 639.597 116.317 640.595 116.064C650.243 113.621 660.305 111.07 670.612 110.562C702.883 108.973 735.079 104.561 767.517 100.116C774.31 99.1859 781.111 98.2521 787.929 97.3455C827.204 92.112 866.837 87.6999 906.848 89.2024L921.989 89.771L921.71 97.3107L919.994 97.2463C917.725 97.1611 915.416 97.9125 912.873 99.2666C911.09 100.219 909.483 101.287 907.771 102.431C906.919 102.999 906.044 103.582 905.104 104.177C899.806 107.549 893.306 110.133 887.265 112.537C886.721 112.751 886.181 112.968 885.644 113.182C878.933 115.863 872.986 118.385 868.764 121.642C861.991 126.87 853.809 128.695 846.438 130.249C846.145 130.314 845.848 130.374 845.555 130.435C838.26 131.973 831.745 133.341 826.222 136.871C810.769 146.728 792.353 153.455 775.691 159.538C767.695 162.454 759.795 165.819 751.814 169.223L751.177 169.493C743.013 172.973 734.757 176.476 726.418 179.451C720.46 181.579 714.7 184.485 708.82 187.635C707.491 188.348 706.15 189.075 704.797 189.809C700.253 192.274 695.598 194.798 690.875 197.007C685.203 199.659 679.192 201.894 673.376 204.058C672.453 204.401 671.538 204.74 670.63 205.08C663.899 207.602 657.503 210.11 651.802 213.248C637.149 221.305 621.079 226.285 605.437 231.13L604.738 231.346C588.745 236.302 573.216 241.166 559.227 249.037C558.972 249.178 558.556 249.404 558.024 249.69C556.645 250.438 554.483 251.607 552.294 252.884C563.987 253.965 575.501 256.315 586.804 258.736C588.047 259.006 589.291 259.271 590.534 259.541C603.203 262.274 615.607 264.948 628.132 266.091C709.597 273.506 790.861 286.588 870.889 304.117C894.836 309.361 920.698 313.152 945.139 315.769C953.769 316.693 962.462 318.141 971.024 319.568C973.012 319.9 974.993 320.231 976.963 320.554C987.5 322.275 997.837 323.784 1008.02 324.167C1008.51 324.185 1009.23 324.22 1009.87 324.395C1010.06 324.447 1010.39 324.546 1010.75 324.741C1011.05 324.9 1011.85 325.367 1012.37 326.361C1013.03 327.636 1012.86 328.981 1012.36 329.932C1011.95 330.683 1011.41 331.104 1011.19 331.262C1010.72 331.599 1010.26 331.778 1010.09 331.84C1009.86 331.929 1009.63 332 1009.43 332.053C1009.04 332.167 1008.6 332.267 1008.18 332.357C1007.34 332.537 1006.36 332.715 1005.61 332.85L1005.57 332.856C1005.2 332.925 1004.9 332.978 1004.67 333.022C1004.6 333.034 1004.55 333.044 1004.51 333.054C999.426 334.845 994.56 337.444 989.515 340.297C988.678 340.772 987.837 341.254 986.984 341.739C982.733 344.161 978.307 346.687 973.733 348.765C965.137 352.667 955.868 354.799 946.711 356.342C942.285 357.09 937.834 357.704 933.481 358.303L933.021 358.369C928.505 358.992 924.095 359.604 919.816 360.349C900.884 363.644 882.192 367.963 863.383 372.311C858.401 373.464 853.412 374.617 848.409 375.754C839.236 377.837 829.951 380.071 820.591 382.32C793.945 388.727 766.702 395.276 739.782 398.943C725.461 400.893 711.08 401.598 696.912 402.29C695.823 402.343 694.737 402.397 693.652 402.45C678.371 403.209 663.335 404.064 648.497 406.523C622.937 410.758 597.084 412.448 571.445 414.068L569.671 414.178C544.569 415.761 519.688 417.33 495.155 421.169C484.673 422.806 474.242 424.808 463.732 426.826C461.925 427.173 460.115 427.52 458.305 427.864C445.981 430.217 433.546 432.502 420.981 434.114C419.468 434.307 414.509 434.951 410.217 435.552C408.061 435.856 406.117 436.142 404.871 436.356C404.761 436.374 404.654 436.393 404.559 436.408C404.013 436.686 403.388 436.829 402.732 436.804C402.612 436.799 402.329 436.789 402.01 436.728C401.879 436.7 401.482 436.625 401.026 436.4C400.815 436.298 399.039 435.435 398.895 433.24C398.763 431.219 400.185 430.132 400.357 429.999L400.364 429.992C400.734 429.707 401.072 429.554 401.191 429.505C401.478 429.38 401.734 429.307 401.841 429.277C402.306 429.147 402.975 429.025 403.602 428.916C404.97 428.685 407.009 428.384 409.169 428.08C413.507 427.473 418.503 426.826 420.02 426.63C432.338 425.05 444.579 422.803 456.892 420.453C458.687 420.109 460.486 419.765 462.288 419.421C472.795 417.404 483.371 415.373 493.989 413.715C518.871 409.821 544.056 408.233 569.055 406.658L570.969 406.537C596.654 404.916 622.14 403.242 647.262 399.081C662.583 396.542 678.02 395.672 693.278 394.916C694.344 394.862 695.411 394.811 696.478 394.757C710.71 394.061 724.777 393.37 738.764 391.468C765.274 387.857 791.969 381.438 818.508 375.058C827.941 372.792 837.358 370.526 846.737 368.398C851.676 367.274 856.623 366.131 861.577 364.988C880.414 360.629 899.365 356.248 918.521 352.917C922.952 352.147 927.487 351.517 931.992 350.893L932.41 350.837C936.793 350.232 941.146 349.629 945.458 348.904C954.368 347.4 962.892 345.398 970.616 341.894C974.841 339.973 978.911 337.657 983.155 335.234C984.03 334.738 984.91 334.235 985.801 333.729C987.803 332.596 989.85 331.465 991.945 330.381Z" fill="white"/>
<path d="M544.193 252.353C544.193 252.353 544.201 252.353 544.212 252.354M975.747 327.998C981.113 328.876 986.522 329.713 991.945 330.381C989.85 331.465 987.803 332.596 985.801 333.729C984.91 334.235 984.03 334.738 983.155 335.234C978.911 337.657 974.841 339.973 970.616 341.894C962.892 345.398 954.368 347.4 945.458 348.904C941.146 349.629 936.793 350.232 932.41 350.837L931.992 350.893C927.487 351.517 922.952 352.147 918.521 352.917C899.365 356.248 880.414 360.629 861.577 364.988C856.623 366.131 851.676 367.274 846.737 368.398C837.358 370.526 827.941 372.792 818.508 375.058C791.969 381.438 765.274 387.857 738.764 391.468C724.777 393.37 710.71 394.061 696.478 394.757C695.411 394.811 694.344 394.862 693.278 394.916C678.02 395.672 662.583 396.542 647.262 399.081C622.14 403.242 596.654 404.916 570.969 406.537L569.055 406.658C544.056 408.233 518.871 409.821 493.989 413.715C483.371 415.373 472.795 417.404 462.288 419.421C460.486 419.765 458.687 420.109 456.892 420.453C444.579 422.803 432.338 425.05 420.02 426.63C418.503 426.826 413.507 427.473 409.169 428.08C407.009 428.384 404.97 428.685 403.602 428.916C402.975 429.025 402.306 429.147 401.841 429.277C401.734 429.307 401.478 429.38 401.191 429.505C401.072 429.554 400.734 429.707 400.364 429.992L400.357 429.999C400.185 430.132 398.763 431.219 398.895 433.24C399.039 435.435 400.815 436.298 401.026 436.4C401.482 436.625 401.879 436.7 402.01 436.728C402.329 436.789 402.612 436.799 402.732 436.804C403.388 436.829 404.013 436.686 404.559 436.408C404.654 436.393 404.761 436.374 404.871 436.356C406.117 436.142 408.061 435.856 410.217 435.552C414.509 434.951 419.468 434.307 420.981 434.114C433.546 432.502 445.981 430.217 458.305 427.864C460.115 427.52 461.925 427.173 463.732 426.826C474.242 424.808 484.673 422.806 495.155 421.169C519.688 417.33 544.569 415.761 569.671 414.178L571.445 414.068C597.084 412.448 622.937 410.758 648.497 406.523C663.335 404.064 678.371 403.209 693.652 402.45C694.737 402.397 695.823 402.343 696.912 402.29C711.08 401.598 725.461 400.893 739.782 398.943C766.702 395.276 793.945 388.727 820.591 382.32C829.951 380.071 839.236 377.837 848.409 375.754C853.412 374.617 858.401 373.464 863.383 372.311C882.192 367.963 900.884 363.644 919.816 360.349C924.095 359.604 928.505 358.992 933.021 358.369L933.481 358.303C937.834 357.704 942.285 357.09 946.711 356.342C955.868 354.799 965.137 352.667 973.733 348.765C978.307 346.687 982.733 344.161 986.984 341.739C987.837 341.254 988.678 340.772 989.515 340.297C994.56 337.444 999.426 334.845 1004.51 333.054C1004.55 333.044 1004.6 333.034 1004.67 333.022C1004.9 332.978 1005.2 332.925 1005.57 332.856L1005.61 332.85C1006.36 332.715 1007.34 332.537 1008.18 332.357C1008.6 332.267 1009.04 332.167 1009.43 332.053C1009.63 332 1009.86 331.929 1010.09 331.84C1010.26 331.778 1010.72 331.599 1011.19 331.262C1011.41 331.104 1011.95 330.683 1012.36 329.932C1012.86 328.981 1013.03 327.636 1012.37 326.361C1011.85 325.367 1011.05 324.9 1010.75 324.741C1010.39 324.546 1010.06 324.447 1009.87 324.395C1009.23 324.22 1008.51 324.185 1008.02 324.167C997.837 323.784 987.5 322.275 976.963 320.554C974.993 320.231 973.012 319.9 971.024 319.568C962.462 318.141 953.769 316.693 945.139 315.769C920.698 313.152 894.836 309.361 870.889 304.117C790.861 286.588 709.597 273.506 628.132 266.091C615.607 264.948 603.203 262.274 590.534 259.541C589.291 259.271 588.047 259.006 586.804 258.736C575.501 256.315 563.987 253.965 552.294 252.884C554.483 251.607 556.645 250.438 558.024 249.69C558.556 249.404 558.972 249.178 559.227 249.037C573.216 241.166 588.745 236.302 604.738 231.346L605.437 231.13C621.079 226.285 637.149 221.305 651.802 213.248C657.503 210.11 663.899 207.602 670.63 205.08C671.538 204.74 672.453 204.401 673.376 204.058C679.192 201.894 685.203 199.659 690.875 197.007C695.598 194.798 700.253 192.274 704.797 189.809C706.15 189.075 707.491 188.348 708.82 187.635C714.7 184.485 720.46 181.579 726.418 179.451C734.757 176.476 743.013 172.973 751.177 169.493L751.814 169.223C759.795 165.819 767.695 162.454 775.691 159.538C792.353 153.455 810.769 146.728 826.222 136.871C831.745 133.341 838.26 131.973 845.555 130.435C845.848 130.374 846.145 130.314 846.438 130.249C853.809 128.695 861.991 126.87 868.764 121.642C872.986 118.385 878.933 115.863 885.644 113.182C886.181 112.968 886.721 112.751 887.265 112.537C893.306 110.133 899.806 107.549 905.104 104.177C906.044 103.582 906.919 102.999 907.771 102.431C909.483 101.287 911.09 100.219 912.873 99.2666C915.416 97.9125 917.725 97.1611 919.994 97.2463L921.71 97.3107L921.989 89.771L906.848 89.2024C866.837 87.6999 827.204 92.112 787.929 97.3455C781.111 98.2521 774.31 99.1859 767.517 100.116C735.079 104.561 702.883 108.973 670.612 110.562C660.305 111.07 650.243 113.621 640.595 116.064C639.597 116.317 638.606 116.571 637.615 116.82C626.909 119.506 616.648 121.816 606.167 121.423L544.908 119.122C542.476 119.031 540.045 118.936 537.613 118.841C516.567 118.013 495.365 117.175 473.992 119.211C471.92 119.409 470.397 121.251 470.595 123.327C470.792 125.399 472.634 126.922 474.711 126.724C495.542 124.739 516.223 125.55 537.338 126.381C539.762 126.475 542.189 126.57 544.625 126.662L605.884 128.962C617.56 129.401 628.771 126.821 639.454 124.138C640.434 123.891 641.406 123.645 642.374 123.398C652.143 120.926 661.47 118.566 670.986 118.1C703.616 116.49 736.199 112.025 768.645 107.577C775.412 106.649 782.17 105.725 788.924 104.824C826.924 99.7612 864.795 95.5358 902.878 96.6186C902.231 97.0511 901.619 97.4547 901.058 97.8112C896.386 100.78 890.549 103.106 884.333 105.583C883.838 105.779 883.344 105.976 882.845 106.176C876.307 108.788 869.35 111.66 864.152 115.671C858.93 119.699 852.423 121.274 844.881 122.867C844.458 122.957 844.032 123.047 843.602 123.136C836.657 124.589 828.887 126.219 822.161 130.508C807.528 139.845 789.918 146.312 773.103 152.449C764.919 155.437 756.858 158.872 748.927 162.251L748.218 162.553C740.026 166.043 731.974 169.455 723.88 172.349C717.367 174.671 711.198 177.803 705.261 180.982C703.847 181.74 702.451 182.496 701.068 183.248C696.563 185.691 692.177 188.071 687.681 190.171C682.309 192.683 676.615 194.802 670.78 196.973C669.85 197.319 668.919 197.666 667.985 198.016C661.253 200.534 654.399 203.21 648.165 206.637C634.191 214.324 618.744 219.108 602.861 224.031L602.506 224.142C586.631 229.057 570.331 234.134 555.529 242.457C555.371 242.546 555.07 242.708 554.658 242.931C552.839 243.912 548.862 246.058 545.656 248.089C543.792 249.269 541.68 250.715 540.478 252.07C540.158 252.432 539.73 252.978 539.425 253.676C539.123 254.367 538.757 255.675 539.37 257.129C539.984 258.586 541.19 259.247 541.935 259.524C542.679 259.801 543.428 259.878 544.001 259.9C557.724 260.415 571.33 263.134 585.221 266.114C586.475 266.384 587.734 266.654 588.992 266.927C601.582 269.643 614.439 272.417 627.446 273.604C708.569 280.991 789.521 294.02 869.276 311.489C893.563 316.807 919.711 320.635 944.337 323.27C952.726 324.17 961.145 325.574 969.692 326.997C971.703 327.333 973.721 327.669 975.747 327.998Z" stroke="black" stroke-width="1.48" stroke-linecap="round"/>
<path fill-rule="evenodd" clip-rule="evenodd" d="M1154.66 2059.31L1154.38 2066.85L1007.16 2061.33C993.653 2060.82 980.028 2060.51 966.343 2060.21C938.779 2059.6 910.967 2058.97 883.38 2056.68L851.143 2055.47C836.76 2054.93 822.461 2055.58 808.019 2056.32C807.001 2056.37 805.98 2056.42 804.959 2056.48C791.564 2057.17 778.034 2057.87 764.413 2057.65C761.251 2057.6 758.135 2057.52 755.054 2057.44C743.516 2057.16 732.457 2056.88 721.04 2058.1C696.97 2060.67 677.616 2072.36 657.011 2084.81C652.499 2087.54 647.925 2090.3 643.229 2093.01C632.292 2099.33 622.378 2110.2 613.981 2122.79C605.612 2135.33 598.921 2149.32 594.332 2161.54C581.525 2195.64 571.673 2230.78 576.48 2266.46C576.497 2266.6 576.515 2266.74 576.536 2266.88C580.749 2263.47 585.352 2260.63 590.286 2258.71C594.853 2256.95 598.859 2255.13 602.674 2253.37L603.634 2252.93C607.077 2251.34 610.431 2249.79 613.826 2248.46C621.374 2245.5 629.21 2243.55 639.784 2243.95C664.757 2244.89 686.412 2246.31 710.758 2253.37C738.551 2261.44 752.128 2279.73 766.704 2303.26C773.008 2313.44 777.587 2323.59 782.14 2334.25C783.549 2337.56 785.497 2340.49 787.637 2343.72L787.78 2343.93C789.909 2347.14 792.249 2350.69 793.814 2354.76C797.728 2364.93 796.51 2374.05 792.458 2382.01C788.492 2389.82 781.863 2396.43 775.061 2402.03C760.868 2413.72 743.726 2411.87 727.708 2409.33C700.656 2405.05 670.409 2389.05 647.812 2375.21C646.273 2374.27 644.727 2373.33 643.173 2372.39C628.721 2363.64 613.804 2354.61 603.541 2339.56C592.527 2323.4 578.801 2302.56 572.246 2281.67C568.253 2286.38 564.793 2291.56 562.008 2296.65C542.326 2332.58 512.122 2397.61 517.228 2415.1C522.333 2432.59 509.74 2445.93 509.917 2413.22C510.094 2380.52 535.306 2329.68 555.39 2293.03C559.054 2286.33 563.982 2279.18 569.95 2272.96C569.566 2271.12 569.246 2269.29 569.001 2267.47C563.935 2229.85 574.371 2193.23 587.27 2158.89C592.023 2146.23 598.96 2131.71 607.705 2118.6C616.422 2105.53 627.108 2093.61 639.457 2086.48C643.857 2083.94 648.234 2081.29 652.626 2078.63C673.286 2066.12 694.341 2053.37 720.238 2050.6C732.197 2049.32 743.894 2049.61 755.499 2049.9C758.517 2049.98 761.527 2050.06 764.534 2050.1C777.887 2050.32 791.175 2049.63 804.622 2048.94C805.625 2048.89 806.627 2048.83 807.633 2048.79C812.615 2048.53 817.616 2048.28 822.64 2048.09C786.691 2040.26 755.846 2027.5 722.47 2013.69C719.142 2012.31 715.789 2010.93 712.406 2009.53C695.969 2002.77 681.261 1992.7 666.989 1982.69C666.062 1982.04 665.138 1981.39 664.215 1980.74C650.812 1971.32 637.717 1962.12 623.447 1955.35C622.297 1954.81 621.191 1954.32 620.099 1953.83C619.026 1953.35 617.945 1952.87 616.925 1952.38C614.912 1951.42 612.866 1950.3 611.139 1948.74C607.308 1945.29 605.92 1940.52 606.572 1933.52C607.109 1927.76 610.557 1923.12 614.867 1919.44C619.192 1915.74 624.779 1912.66 630.464 1910.06C636.176 1907.44 642.203 1905.2 647.485 1903.26L648.469 1902.9C653.419 1901.09 657.484 1899.6 660.192 1898.27C663.819 1896.49 667.707 1895.4 671.695 1894.77C668.54 1893.12 665.457 1891.38 662.483 1889.54C641.432 1876.56 624.728 1858.1 626.762 1830.4C627.58 1819.26 633.25 1808.61 641.389 1799.08C649.556 1789.52 660.42 1780.81 672.152 1773.5C683.897 1766.18 696.63 1760.18 708.619 1756.09C720.555 1752.01 732.008 1749.73 741.132 1750.07C769.607 1751.14 796.796 1752.36 824.959 1759.35C843.968 1764.06 861.474 1772.5 878.266 1781.99C875.629 1778.2 873.051 1774.27 870.516 1770.19C857.061 1748.57 848.192 1725.87 847.233 1702.66C844.324 1703.5 841.326 1704.31 838.237 1705.15C835.239 1705.95 832.15 1706.79 828.967 1707.7C764.154 1726.33 712.115 1702.1 657.721 1668.79C638.992 1657.33 623.063 1642.17 614.89 1624.25C606.631 1606.13 606.454 1585.49 618.761 1563.79C632.265 1539.98 654.618 1522.21 680.251 1509.7C665.636 1499.84 650.665 1487.95 637.311 1474.68C617.21 1454.71 600.47 1431.3 594.461 1406.71C590.918 1392.2 590.045 1379.05 594.88 1369.12C599.928 1358.76 610.55 1353.07 626.973 1352.07C643.77 1351.05 660.759 1351.05 677.677 1352.14C649.921 1340.97 622.864 1328.69 597.116 1311.38C588.072 1305.3 578.041 1294.86 570.22 1283.26C563.425 1273.2 557.989 1261.8 556.57 1251.24C542.907 1248.84 529.391 1246.12 516.095 1243.28C502.672 1240.4 489.59 1236.61 476.668 1232.87C475.163 1232.43 473.658 1231.99 472.152 1231.56C457.71 1227.39 443.411 1223.41 428.686 1220.83C401.25 1216.01 372.572 1203.67 348.066 1191.52C346.609 1190.79 345.149 1190.07 343.681 1189.34C282.937 1159.24 211.898 1124.03 167.61 1070.34C137.819 1034.22 122.74 991.049 127.567 944.604C127.648 943.826 127.731 943.028 127.815 942.205C129.498 925.895 132.105 900.632 138.967 877.896C146.08 854.327 158.286 831.73 180.523 826.269C182.009 825.905 183.523 825.532 185.064 825.148C198.462 821.838 213.827 818.04 229.264 815.909C246.458 813.539 264.151 813.169 279.716 818.045C304.866 825.932 330.105 837.779 353.871 848.932C355.997 849.929 358.111 850.922 360.211 851.907C370.103 856.533 383.731 863.784 392.594 870.772C407.994 882.925 419.26 900.411 428.163 918.866C435.925 934.953 442.018 952.064 447.465 967.357C448.264 969.607 449.053 971.819 449.829 973.977C452.635 981.799 457.236 989.665 462.41 997.576C464.427 1000.66 466.574 1003.81 468.717 1006.95C471.934 1011.67 475.147 1016.39 477.92 1020.87C487.696 1036.7 500.34 1053.28 512.777 1067.14C518.419 1073.42 523.637 1080.05 528.765 1086.56C529.615 1087.64 530.466 1088.71 531.313 1089.78C537.307 1097.36 543.282 1104.73 549.961 1111.46C554.646 1116.18 559.445 1120.49 564.313 1124.87C565.259 1125.72 566.209 1126.57 567.162 1127.43C572.972 1132.67 578.827 1138.1 584.377 1144.32C600.263 1162.13 624.237 1181.53 645.244 1192.66C661.072 1201.05 677.232 1208.87 693.483 1216.75C694.51 1217.24 695.537 1217.74 696.565 1218.24C712.264 1225.84 728.032 1233.52 743.548 1241.79C755.201 1239.5 766.832 1237.12 778.47 1234.73C768.975 1234.24 759.478 1233.28 750.366 1231.54C706.591 1223.19 657.847 1204.99 633.66 1163.03C617.019 1134.16 616.745 1105.36 627.893 1080.85C628.013 1080.58 628.136 1080.32 628.259 1080.05C630.804 1072.91 634.107 1066.18 636.777 1060.74L636.965 1060.35C641.634 1050.82 649.687 1043.99 658.583 1038.92C664.439 1035.59 670.775 1032.96 676.956 1030.82C680.871 1028.72 684.93 1026.8 689.118 1025.06C693.267 1023.34 697.245 1021.86 701.158 1020.62C668.983 1014.92 645.526 997.544 619.467 973.76C604.534 960.13 602.185 943.269 605.968 927.291C609.701 911.523 619.401 896.409 628.913 885.2C632.721 880.711 636.996 879.384 641.002 878.666C642.032 878.478 642.996 878.333 643.919 878.194C646.656 877.783 649.029 877.427 651.709 876.233C664.333 870.629 680.867 868.279 693.909 866.606C714.171 864.007 735.306 863.275 755.668 864.04C771.333 864.628 786.433 867.977 801.117 871.236L801.192 871.25C811.642 873.567 821.89 875.84 832.203 877.167C831.931 876.979 831.674 876.796 831.439 876.617C829.776 875.347 828.118 874.179 826.426 872.986C826.102 872.759 825.778 872.532 825.455 872.301C823.454 870.885 821.406 869.415 819.455 867.798C815.508 864.52 811.877 860.582 809.297 854.898C802.748 840.477 798.988 821.169 799.902 802.366C779.011 805.017 757.457 803.634 736.026 800.382C717.203 797.528 698.349 793.214 680.029 788.853C677.537 788.261 675.056 787.67 672.586 787.079C656.845 783.313 641.571 779.659 626.941 776.972C615.928 774.947 605.314 772.189 594.866 769.324C592.485 768.672 590.112 768.013 587.747 767.358C579.703 765.123 571.722 762.909 563.584 760.961C557.518 759.51 550.091 757.529 543.405 754.22C536.718 750.907 530.384 746.071 527.029 738.69C523.797 731.565 522.585 720.61 522.754 710.284C522.927 699.95 524.501 689.292 527.508 682.7C535.16 665.932 554.971 655.018 575.454 648.362C596.173 641.627 618.816 638.846 633.81 639.179C643.757 639.401 654.169 639.23 664.756 638.702C673.149 637.085 681.865 635.003 690.337 632.286C674.731 631.247 659.312 629.66 643.953 628.076L643.802 628.059C623.035 625.92 602.381 623.793 581.291 623.001C557.012 622.089 538.478 616.591 517.26 606.541C514.367 605.172 510.963 602.62 507.564 599.65C504.102 596.628 500.419 592.968 496.952 589.176C493.481 585.38 490.18 581.405 487.494 577.737C484.858 574.131 482.639 570.593 481.531 567.713C470.992 540.325 473.645 512.421 478.786 484.89C479.401 481.594 481.811 478.136 484.447 475.094C487.217 471.899 490.777 468.578 494.49 465.513C498.211 462.444 502.17 459.568 505.782 457.284C509.313 455.05 512.787 453.206 515.486 452.416C525.533 449.483 534.351 443.887 543.772 437.91C544.441 437.486 545.114 437.058 545.791 436.631C555.819 430.287 566.578 423.764 579.497 421.048C613.913 413.805 656.965 415.973 689.116 431.563C707.87 440.66 723.783 450.408 737.716 466.942C739.632 469.214 741.976 471.741 744.566 474.538C745.042 475.05 745.524 475.57 746.018 476.102C749.149 479.489 752.521 483.191 755.645 487.042C761.754 494.572 767.517 503.388 768.102 512.233C770.137 542.899 759.982 569.204 749.028 596.29C743.76 609.309 733.78 619.104 721.753 626.524C724.102 626.691 726.5 626.868 728.808 627.049C733.002 627.369 736.919 627.697 739.711 627.961C741.099 628.096 742.25 628.215 743.027 628.319C743.373 628.362 743.805 628.428 744.16 628.509C744.254 628.535 744.426 628.576 744.623 628.647C744.653 628.656 745.34 628.87 745.967 629.449C746.296 629.752 747.182 630.676 747.193 632.205C747.207 633.841 746.23 634.827 745.767 635.195C745.3 635.566 744.859 635.738 744.687 635.8C744.472 635.879 744.289 635.924 744.179 635.947C719.896 641.279 692.266 644.854 665.663 646.211C657.529 647.767 649.755 648.89 642.837 649.741C640.884 649.981 639.097 648.687 638.689 646.803C636.994 646.784 635.311 646.759 633.644 646.723C619.502 646.41 597.702 649.065 577.785 655.539C557.628 662.09 540.612 672.157 534.371 685.831C532.01 691.008 530.463 700.43 530.3 710.409C530.136 720.403 531.369 729.996 533.9 735.569C536.25 740.75 540.88 744.552 546.754 747.46C552.622 750.364 559.341 752.187 565.339 753.624C573.623 755.604 581.776 757.869 589.847 760.109C592.193 760.76 594.528 761.41 596.86 762.049C607.264 764.901 617.62 767.589 628.306 769.553C643.147 772.277 658.638 775.985 674.361 779.742C676.826 780.333 679.3 780.924 681.777 781.516C700.09 785.873 718.675 790.119 737.159 792.924C758.808 796.206 780.152 797.479 800.546 794.67C803.041 773.872 811.848 753.87 830.461 743.504C832.705 742.256 835.804 741.591 838.872 741.31C842.039 741.021 845.604 741.102 849.028 741.619C852.414 742.132 855.892 743.108 858.744 744.763C861.6 746.418 864.221 749.008 864.917 752.798C866.117 759.344 863.551 767.073 859.964 773.394C856.35 779.763 851.108 785.753 845.726 788.518C833.43 794.84 820.631 798.886 807.522 801.21C806.382 819.314 809.954 838.093 816.168 851.781C818.142 856.125 820.914 859.2 824.275 861.992C825.981 863.407 827.819 864.733 829.809 866.141C830.118 866.356 830.427 866.575 830.743 866.799C832.435 867.991 834.23 869.255 836.017 870.621C836.74 871.169 838.009 871.957 839.639 872.909C840.2 873.236 840.802 873.583 841.416 873.938C842.469 874.548 843.555 875.17 844.497 875.737C845.859 876.555 847.527 877.595 848.479 878.567C848.73 878.822 849.194 879.33 849.518 880.056C849.87 880.851 850.257 882.511 849.106 884.084C848.195 885.329 846.9 885.632 846.467 885.717C845.888 885.832 845.329 885.837 844.903 885.821C829.412 885.239 814.428 881.913 799.8 878.668L799.557 878.618C784.741 875.332 770.28 872.139 755.385 871.579C735.381 870.828 714.665 871.549 694.87 874.09C681.653 875.787 666.225 878.046 654.773 883.128C651.064 884.778 647.358 885.326 644.454 885.757C643.687 885.871 642.977 885.977 642.339 886.089C639.191 886.658 636.881 887.469 634.668 890.082C625.551 900.827 616.661 914.876 613.31 929.032C610.007 942.977 612.085 956.808 624.555 968.186C654.884 995.868 680.306 1013.51 719.631 1014.98L747.047 1016.01L746.919 1019.52C780.531 1020.12 813.043 1029.29 845.843 1044.49C857.094 1049.7 862.299 1056.27 869.025 1064.74L869.584 1065.45C873.895 1070.87 879.539 1075.11 885.708 1079.73L886.141 1080.05C892.332 1084.7 898.998 1089.75 904.137 1096.58C916.798 1113.42 924.136 1137.67 923.361 1158.31C923.275 1160.6 923.249 1163.09 923.22 1165.68C923.166 1170.34 923.107 1175.32 922.704 1180.03C922.06 1187.54 920.512 1195.27 916.411 1202.03C914.004 1206 910.472 1208.58 906.95 1210.47C904.419 1211.83 901.617 1212.96 899.14 1213.96C898.278 1214.31 897.457 1214.64 896.697 1214.97C894.81 1215.76 893.004 1216.61 891.239 1217.47C891.418 1217.53 891.749 1217.65 892.103 1217.87C892.325 1218 892.87 1218.37 893.308 1219.06C893.85 1219.92 894.121 1221.15 893.655 1222.4C893.277 1223.41 892.588 1223.96 892.305 1224.16C891.971 1224.4 891.672 1224.53 891.522 1224.59C891.212 1224.71 890.949 1224.77 890.85 1224.8C890.477 1224.88 890.088 1224.9 889.936 1224.91C889.474 1224.94 888.809 1224.96 888.016 1224.97C885.715 1225.01 881.816 1225 877.023 1224.94C870.49 1228.3 863.522 1231.4 855.069 1233C843.764 1235.15 830.587 1235.07 818.55 1235.01C817.259 1235.01 815.976 1235 814.715 1234.99C805.977 1236.77 797.226 1238.57 788.471 1240.37C777.003 1242.74 765.524 1245.1 754.032 1247.4C773.021 1257.38 792.956 1266.4 813.036 1275.09C831.895 1280.67 850.65 1286.64 869.357 1292.87C875.826 1295.02 881.964 1298.35 887.733 1301.48C888.036 1301.65 888.336 1301.81 888.635 1301.97C894.333 1305.06 899.69 1307.9 905.162 1309.68C908.398 1310.15 911.652 1310.47 914.928 1310.59C915.135 1310.6 915.327 1310.61 915.486 1310.62C915.561 1310.62 915.662 1310.63 915.771 1310.64C915.828 1310.65 915.914 1310.66 916.019 1310.68C916.068 1310.69 916.35 1310.73 916.685 1310.85L916.692 1310.86C916.811 1310.9 917.326 1311.08 917.845 1311.53C918.127 1311.76 918.644 1312.27 918.949 1313.1C919.302 1314.06 919.24 1315.1 918.837 1315.98C918.487 1316.74 917.98 1317.19 917.708 1317.4C917.412 1317.62 917.147 1317.76 916.993 1317.83C916.686 1317.97 916.43 1318.04 916.331 1318.07C915.984 1318.15 915.674 1318.18 915.651 1318.18C915.477 1318.19 915.292 1318.2 915.155 1318.2C914.566 1318.22 913.509 1318.21 912.299 1318.17C911.077 1318.14 909.63 1318.07 908.275 1317.95C906.996 1317.84 905.522 1317.66 904.391 1317.33C904.069 1317.24 903.752 1317.14 903.435 1317.04C885.793 1314.33 868.99 1307.25 853.204 1300.46C846.947 1297.77 840.626 1295.08 834.268 1292.38C826.364 1289.02 818.405 1285.64 810.451 1282.19C782.57 1273.95 754.499 1266.55 726.072 1260.38C719.949 1259.05 713.891 1257.6 707.877 1256.08C660.53 1264.15 611.703 1260.44 564.436 1252.59C566.073 1260.89 570.506 1270.2 576.475 1279.04C583.889 1290.03 593.27 1299.7 601.327 1305.12C634.03 1327.1 668.891 1340.8 705.464 1354.92C721.21 1357.08 736.771 1360.22 751.945 1364.4C765.995 1368.27 780.16 1371.79 794.359 1375.33C825.333 1383.04 856.457 1390.78 886.842 1402.2C900.07 1407.16 912.649 1413.09 924.995 1419.51C924.921 1419.47 925.274 1419.62 926.239 1419.76C926.374 1419.78 926.51 1419.8 926.649 1419.81C928.194 1419.88 929.143 1419.94 929.579 1420C929.635 1420 929.831 1420.03 930.051 1420.08C930.081 1420.09 930.505 1420.18 930.975 1420.43L930.989 1420.44C931.141 1420.52 932.048 1421.01 932.584 1422.11C932.934 1422.84 933.092 1423.77 932.824 1424.76C932.58 1425.65 932.071 1426.23 931.734 1426.54C931.148 1427.08 930.54 1427.28 930.402 1427.33L930.395 1427.33C930.169 1427.41 929.983 1427.45 929.891 1427.46C929.697 1427.5 929.542 1427.52 929.478 1427.52C929.334 1427.54 929.205 1427.54 929.137 1427.54C928.861 1427.55 928.492 1427.53 928.126 1427.51C927.572 1427.49 926.835 1427.43 926.049 1427.34C925.97 1427.34 925.887 1427.34 925.804 1427.33C897.521 1426.27 862.791 1416.74 836.821 1406.87C818.035 1399.73 798.627 1393.88 779.028 1387.97L777.445 1387.49C757.358 1381.44 737.089 1375.28 717.389 1367.62C713.441 1366.09 709.5 1364.57 705.571 1363.05C704.901 1362.8 704.235 1362.54 703.565 1362.28C678.382 1358.89 652.707 1358.06 627.43 1359.6C612.483 1360.51 605.06 1365.46 601.661 1372.43C598.053 1379.84 598.324 1390.72 601.792 1404.92C607.329 1427.58 622.989 1449.81 642.631 1469.33C656.785 1483.4 672.852 1495.9 688.296 1505.98C691.401 1504.63 694.541 1503.35 697.712 1502.14C730.496 1489.62 766.749 1484.52 796.992 1485.65C801.596 1485.83 806.213 1485.91 810.835 1486C833.728 1486.43 856.741 1486.86 878.778 1497.82C879.563 1498.21 880.89 1498.77 882.689 1499.52C884.127 1500.13 885.871 1500.86 887.876 1501.74C892.189 1503.61 897.381 1506.01 902.174 1508.77C906.889 1511.49 911.565 1514.75 914.559 1518.46C916.078 1520.34 917.321 1522.53 917.776 1524.98C918.251 1527.53 917.829 1530.11 916.432 1532.54C913.257 1538.06 907.707 1541.98 901.452 1544.87C895.159 1547.78 887.747 1549.83 880.304 1551.36C872.843 1552.9 865.192 1553.96 858.383 1554.83C857.033 1555 855.72 1555.16 854.453 1555.32C849.245 1555.98 844.777 1556.54 841.377 1557.18C793.194 1566.2 742.405 1545.47 702.015 1523.07C697.359 1520.49 692.543 1517.64 687.65 1514.53C661.215 1526.69 638.564 1544.17 625.323 1567.51C614.204 1587.12 614.506 1605.22 621.754 1621.12C629.093 1637.21 643.701 1651.37 661.659 1662.36C715.78 1695.49 765.349 1718.14 826.883 1700.45C830.269 1699.48 833.473 1698.61 836.517 1697.78C840.319 1696.74 843.871 1695.77 847.216 1694.76C847.734 1680.87 851.195 1666.81 858.304 1652.73C859.104 1651.14 861.35 1647.83 864.132 1644.22C866.977 1640.54 870.612 1636.25 874.335 1632.71C876.194 1630.95 878.144 1629.31 880.08 1628.03C881.969 1626.77 884.094 1625.68 886.283 1625.31C888.616 1624.9 891.172 1625.31 893.244 1627.22C895.141 1628.98 896.136 1631.55 896.637 1634.4C899.482 1650.62 895.042 1665.71 885.479 1678.47C876.437 1690.54 866.316 1696.24 854.714 1700.29C855.137 1722.59 863.524 1744.67 876.922 1766.2C882.811 1775.67 888.868 1784.28 895.39 1792.06C897.336 1793.23 899.274 1794.4 901.208 1795.57C907.893 1799.62 914.515 1803.63 921.138 1807.42C928.05 1811.38 934.801 1816.9 941.302 1822.21C942.551 1823.23 943.793 1824.24 945.021 1825.24C950.363 1829.55 955.567 1833.53 960.811 1836.55C961.906 1837.04 963.042 1837.56 964.081 1838.04C965.632 1838.75 967.061 1839.42 967.958 1839.86C968.303 1840.03 968.833 1840.29 969.168 1840.5C969.201 1840.52 969.253 1840.56 969.315 1840.6C969.378 1840.65 969.451 1840.7 969.528 1840.77C969.609 1840.83 969.755 1840.95 969.919 1841.13C970.024 1841.24 970.427 1841.67 970.691 1842.37C971.014 1843.22 971.235 1844.98 969.831 1846.38C968.866 1847.34 967.737 1847.45 967.517 1847.47L967.51 1847.47C966.915 1847.52 966.436 1847.42 966.368 1847.41L966.365 1847.4C965.979 1847.32 965.595 1847.17 965.506 1847.14C962.744 1846.1 960.044 1844.79 957.405 1843.29C955.526 1842.45 953.94 1841.77 953.37 1841.56C926.474 1831.83 906.925 1817.25 890.462 1797.91C868.894 1784.93 847.393 1772.68 823.143 1766.67C795.834 1759.9 769.376 1758.68 740.849 1757.61C733.018 1757.32 722.554 1759.3 711.058 1763.23C699.619 1767.13 687.409 1772.88 676.144 1779.9C664.868 1786.93 654.656 1795.16 647.129 1803.97C639.578 1812.82 634.945 1821.99 634.288 1830.95C632.555 1854.57 646.458 1870.8 666.443 1883.12C673.166 1887.26 680.459 1890.9 687.91 1894.16C691.377 1894.32 694.824 1894.62 698.136 1894.91L698.9 1894.97C702.757 1895.31 706.403 1895.63 709.823 1895.75C723.715 1896.28 737.3 1898.17 750.613 1900.03L750.67 1900.03C764.029 1901.9 777.117 1903.72 790.342 1904.22C794.139 1904.36 798.044 1904.43 802.001 1904.5C810.109 1904.65 818.432 1904.8 826.474 1905.58C828.878 1905.81 831.321 1906.51 832.919 1908.29C834.821 1910.41 834.664 1913 833.812 1914.88C833.026 1916.6 831.607 1917.99 830.151 1918.96C828.653 1919.96 826.811 1920.73 824.838 1921.01C821.49 1921.49 818.122 1921.28 815.122 1921.05C814.727 1921.02 814.343 1920.99 813.963 1920.96C811.313 1920.74 808.968 1920.55 806.687 1920.68C802.764 1920.88 798.623 1921.17 794.349 1921.48C785.798 1922.08 776.71 1922.71 767.785 1922.8C754.313 1922.94 740.597 1921.86 728.399 1917.42C725.256 1916.27 721.899 1915.09 718.393 1913.85C708.425 1910.34 697.225 1906.39 686.198 1901.64C685.867 1901.62 685.535 1901.61 685.207 1901.6C677.042 1901.36 669.594 1902.06 663.517 1905.04C660.432 1906.56 655.999 1908.18 651.256 1909.92C650.866 1910.06 650.475 1910.2 650.081 1910.35C644.787 1912.29 639.017 1914.43 633.608 1916.91C628.172 1919.41 623.316 1922.14 619.771 1925.17C616.214 1928.21 614.368 1931.21 614.085 1934.22C613.561 1939.83 614.754 1941.84 616.193 1943.14C617.098 1943.96 618.358 1944.71 620.19 1945.58C621.091 1946.02 622.068 1946.45 623.167 1946.94C624.251 1947.42 625.435 1947.95 626.678 1948.54C641.556 1955.59 655.151 1965.14 668.437 1974.48C669.401 1975.16 670.364 1975.84 671.324 1976.51C685.641 1986.56 699.717 1996.15 715.277 2002.56C718.638 2003.94 721.957 2005.31 725.251 2006.68C762.933 2022.26 796.562 2036.17 837.753 2043.37C852.962 2046.03 868.304 2047.85 883.735 2049.14L1154.66 2059.31ZM711.447 1903.37C714.576 1904.5 717.657 1905.59 720.653 1906.65C724.234 1907.91 727.695 1909.13 730.984 1910.33C741.926 1914.32 754.582 1915.4 767.706 1915.26C776.423 1915.17 785.076 1914.56 793.483 1913.97C797.825 1913.66 802.103 1913.36 806.287 1913.14C809.109 1912.99 812.007 1913.23 814.604 1913.44C814.98 1913.47 815.345 1913.5 815.707 1913.52C818.711 1913.76 821.33 1913.89 823.767 1913.54C824.287 1913.47 824.822 1913.29 825.318 1913.05C817.7 1912.33 810.048 1912.2 802.273 1912.06C798.239 1911.98 794.172 1911.91 790.059 1911.76C776.449 1911.25 763.046 1909.38 749.811 1907.53L749.574 1907.5C736.831 1905.72 724.238 1903.97 711.447 1903.37ZM925.358 1819.23C923.829 1818.22 922.328 1817.17 920.854 1816.1C922.358 1817.08 923.855 1818.13 925.358 1819.23ZM854.917 1692.17C864.423 1688.56 872.185 1683.63 879.442 1673.95C887.908 1662.65 891.647 1649.63 889.203 1635.7C888.837 1633.6 888.281 1632.91 888.121 1632.76C888.088 1632.73 888.073 1632.72 888.065 1632.72L888.062 1632.72C888.032 1632.71 887.889 1632.69 887.566 1632.74C886.86 1632.86 885.752 1633.32 884.253 1634.31C882.801 1635.28 881.2 1636.6 879.528 1638.19C876.185 1641.36 872.816 1645.32 870.109 1648.83C867.339 1652.41 865.489 1655.24 865.041 1656.13C858.971 1668.15 855.748 1680.19 854.917 1692.17ZM696.077 1510.89C699.333 1512.87 702.544 1514.74 705.676 1516.48C745.836 1538.75 794.583 1558.26 839.987 1549.76C843.633 1549.08 848.409 1548.48 853.64 1547.82C854.88 1547.67 856.144 1547.51 857.426 1547.34C864.205 1546.48 871.617 1545.45 878.781 1543.97C885.965 1542.49 892.741 1540.59 898.289 1538.02C903.879 1535.44 907.823 1532.36 909.891 1528.78C910.416 1527.86 910.497 1527.1 910.359 1526.36C910.205 1525.53 909.716 1524.47 908.688 1523.2C906.592 1520.61 902.91 1517.91 898.406 1515.31C893.975 1512.76 889.084 1510.49 884.864 1508.65C883.23 1507.94 881.632 1507.27 880.201 1506.66C878.109 1505.79 876.377 1505.06 875.417 1504.58C855.037 1494.44 834.016 1494.02 811.174 1493.57C806.435 1493.47 801.618 1493.38 796.709 1493.19C767.424 1492.09 732.184 1497.05 700.4 1509.18C698.952 1509.74 697.511 1510.31 696.077 1510.89ZM762.214 1374.97C767.998 1376.76 773.807 1378.52 779.623 1380.27L781.307 1380.78C800.827 1386.66 820.463 1392.58 839.502 1399.82C858.418 1407.01 881.849 1413.92 903.734 1417.45C897.329 1414.5 890.837 1411.75 884.191 1409.26C854.215 1398 823.805 1390.44 793.052 1382.78C782.811 1380.24 772.528 1377.68 762.214 1374.97ZM563.75 1244.82C605.194 1251.81 647.509 1255.6 688.802 1251.12C688.425 1251.02 688.051 1250.92 687.673 1250.82C685.18 1250.16 682.694 1249.5 680.208 1248.85C665.079 1244.86 650.007 1241.07 634.433 1238.38C621.462 1236.13 608.349 1235.75 594.931 1235.36C591.609 1235.26 588.264 1235.17 584.897 1235.04C582.955 1234.97 581.218 1234.87 579.621 1234.79C577.488 1234.68 575.604 1234.58 573.797 1234.55C570.688 1234.51 568.671 1234.72 567.303 1235.25C566.181 1235.68 565.413 1236.33 564.816 1237.75C564.219 1239.17 563.8 1241.37 563.75 1244.82ZM726.472 1252.74C726.873 1252.83 727.273 1252.92 727.67 1253C740.751 1255.84 753.75 1258.94 766.685 1262.26C759.207 1258.6 751.828 1254.83 744.605 1250.92C743.858 1250.51 743.107 1250.11 742.359 1249.71C737.065 1250.74 731.772 1251.76 726.472 1252.74ZM731.682 1244.08C723.864 1245.57 716.029 1247.01 708.171 1248.38C701.989 1246.81 695.832 1245.18 689.653 1243.54C687.149 1242.87 684.644 1242.21 682.128 1241.55C666.973 1237.56 651.631 1233.69 635.72 1230.94C622.164 1228.59 608.372 1228.2 594.909 1227.81C591.643 1227.71 588.4 1227.62 585.18 1227.5C583.529 1227.44 581.871 1227.35 580.273 1227.27C577.971 1227.15 575.786 1227.03 573.903 1227.01C570.65 1226.96 567.401 1227.13 564.604 1228.2C561.556 1229.37 559.251 1231.52 557.858 1234.83C556.859 1237.21 556.365 1240.1 556.237 1243.52C543.265 1241.21 530.394 1238.62 517.675 1235.9C504.529 1233.09 491.712 1229.37 478.76 1225.62C477.258 1225.18 475.753 1224.75 474.244 1224.31C459.802 1220.14 445.156 1216.06 429.988 1213.4C403.659 1208.78 375.777 1196.83 351.415 1184.76C350.177 1184.14 348.932 1183.52 347.687 1182.91C286.458 1152.55 216.675 1117.97 173.431 1065.54C144.767 1030.79 130.479 989.581 135.072 945.384C135.149 944.643 135.228 943.884 135.308 943.105C137.001 926.721 139.545 902.097 146.19 880.077C153.246 856.699 164.404 837.997 182.322 833.596C183.815 833.229 185.331 832.856 186.866 832.475C200.308 829.156 215.278 825.456 230.296 823.381C247.048 821.073 263.449 820.855 277.458 825.247C302.095 832.971 326.877 844.6 350.736 855.795C352.836 856.779 354.929 857.764 357.014 858.737C366.768 863.305 379.758 870.26 387.92 876.697C402.026 887.823 412.679 904.135 421.366 922.141C428.938 937.839 434.884 954.533 440.342 969.857C441.148 972.111 441.94 974.338 442.727 976.527C445.844 985.206 450.842 993.672 456.097 1001.7C458.3 1005.07 460.508 1008.31 462.666 1011.47C465.775 1016.03 468.774 1020.43 471.5 1024.84C481.537 1041.09 494.458 1058.03 507.163 1072.18C512.627 1078.27 517.679 1084.68 522.818 1091.2C523.672 1092.28 524.53 1093.37 525.395 1094.47C531.399 1102.06 537.602 1109.72 544.604 1116.77C549.453 1121.67 554.442 1126.14 559.31 1130.52C560.249 1131.36 561.18 1132.19 562.108 1133.03C567.888 1138.25 573.484 1143.44 578.748 1149.34C595.167 1167.75 619.836 1187.74 641.713 1199.33C657.667 1207.78 673.941 1215.66 690.171 1223.52C691.205 1224.03 692.24 1224.52 693.274 1225.03C706.159 1231.27 719.002 1237.52 731.682 1244.08ZM875.674 1217.13C876.788 1216.54 877.92 1215.93 879.065 1215.32C883.654 1212.85 888.505 1210.24 893.757 1208.02C894.751 1207.6 895.72 1207.21 896.667 1206.82C899.021 1205.87 901.241 1204.97 903.383 1203.82C906.284 1202.26 908.525 1200.49 909.958 1198.12C913.186 1192.79 914.586 1186.4 915.185 1179.39C915.572 1174.9 915.617 1170.51 915.666 1166.08C915.694 1163.42 915.719 1160.74 915.821 1158.02C916.533 1139.07 909.7 1116.53 898.104 1101.12C893.706 1095.27 887.897 1090.8 881.615 1086.09C881.372 1085.91 881.126 1085.73 880.884 1085.54C874.95 1081.1 868.605 1076.35 863.673 1070.14L863.356 1069.73C856.514 1061.12 852.285 1055.79 842.671 1051.34C791.815 1027.77 742.415 1019.32 688.489 1035.07C685.698 1035.89 682.849 1036.77 679.992 1037.75C659.71 1048.74 643.921 1064.54 635.245 1082.93C634.717 1084.43 634.23 1085.94 633.795 1087.45C631.341 1095.99 630.784 1104.01 633.748 1110.54C637.663 1119.17 645.206 1127.43 653.854 1135.59C656.914 1138.47 660.149 1141.38 663.367 1144.26C668.974 1149.29 674.522 1154.27 678.95 1158.98C679.393 1159.46 679.836 1159.93 680.275 1160.4C703.961 1185.65 722.55 1205.46 755.945 1206.72C780.654 1207.64 802.929 1210.54 826.847 1214.55C836.384 1216.14 856.064 1216.97 871.127 1217.29C871.636 1217.3 872.141 1217.31 872.639 1217.32C873.646 1217.24 874.657 1217.18 875.674 1217.13ZM835.546 1223.16C831.712 1222.83 828.302 1222.44 825.601 1221.99C801.86 1218.01 779.93 1215.17 755.662 1214.26C719.131 1212.88 698.556 1190.93 675.463 1166.29C674.791 1165.58 674.123 1164.87 673.448 1164.15C669.205 1159.62 664.128 1155.08 658.733 1150.24C655.46 1147.31 652.071 1144.28 648.68 1141.08C640.498 1133.36 632.511 1124.87 627.78 1115.54C627.737 1129.53 631.577 1144.31 640.201 1159.27C662.651 1198.22 708.474 1215.87 751.78 1224.13C769.185 1227.45 788.295 1227.85 806.321 1227.5C808.845 1227.45 811.409 1227.44 813.995 1227.44C821.162 1225.99 828.343 1224.56 835.546 1223.16ZM808.322 793.388C820.031 791.128 831.387 787.406 842.274 781.809C845.843 779.976 850.165 775.374 853.399 769.67C856.658 763.926 858.22 758.115 857.497 754.158C857.34 753.302 856.702 752.301 854.962 751.288C853.21 750.274 850.74 749.51 847.894 749.078C845.086 748.652 842.132 748.59 839.56 748.825C836.886 749.069 835.016 749.602 834.133 750.098C819.048 758.497 810.996 774.771 808.322 793.388ZM704.664 635.108C708.181 634.652 711.673 634.16 715.136 633.633C712.782 633.477 710.661 633.348 708.969 633.258C707.548 633.899 706.11 634.513 704.664 635.108ZM707.497 625.63C723.383 618.185 736.211 607.855 742.033 593.46C753.033 566.266 762.482 541.46 760.574 512.731C760.157 506.453 755.843 499.262 749.785 491.793C746.826 488.145 743.599 484.6 740.476 481.225C740.004 480.712 739.532 480.204 739.064 479.699C736.477 476.91 733.988 474.223 731.946 471.802C718.989 456.431 704.149 447.24 685.825 438.352C655.529 423.662 614.261 421.44 581.051 428.43C569.612 430.839 559.884 436.643 549.825 443.003C549.098 443.467 548.367 443.93 547.636 444.394C538.408 450.257 528.72 456.413 517.6 459.657C515.963 460.135 513.223 461.505 509.816 463.661C506.49 465.763 502.788 468.448 499.293 471.333C495.783 474.225 492.558 477.256 490.147 480.039C487.598 482.978 486.419 485.12 486.205 486.274C481.117 513.509 478.821 539.664 488.572 565.002C489.312 566.918 491.038 569.803 493.585 573.281C496.08 576.689 499.197 580.453 502.519 584.085C505.837 587.712 509.321 591.165 512.526 593.966C515.798 596.826 518.566 598.814 520.491 599.724C540.978 609.429 558.509 614.595 581.574 615.461C602.95 616.264 623.849 618.419 644.575 620.556L644.609 620.558C665.364 622.696 685.947 624.821 706.905 625.608C707.089 625.614 707.285 625.622 707.497 625.63ZM578.267 2275.36C583.719 2296.08 597.785 2317.72 609.775 2335.31C619.061 2348.93 632.541 2357.11 647.192 2366C648.701 2366.91 650.222 2367.84 651.754 2368.77C674.273 2382.56 703.426 2397.85 728.89 2401.88C745.145 2404.45 758.964 2405.51 770.266 2396.21C776.792 2390.83 782.469 2385.01 785.734 2378.59C788.914 2372.34 789.845 2365.45 786.773 2357.47C785.545 2354.28 783.672 2351.38 781.492 2348.1L781.224 2347.7C779.173 2344.61 776.886 2341.17 775.2 2337.22C770.674 2326.62 766.278 2316.91 760.288 2307.24C745.865 2283.94 733.565 2267.85 708.651 2260.62C685.25 2253.82 664.376 2252.42 639.501 2251.49C630.167 2251.14 623.368 2252.82 616.582 2255.48C613.402 2256.73 610.248 2258.18 606.759 2259.79L605.829 2260.22C601.999 2261.99 597.816 2263.89 593.016 2265.75C587.729 2267.8 582.765 2271.2 578.267 2275.36Z" fill="white" stroke="black" stroke-width="1.48" stroke-linecap="round"/>
<path fill-rule="evenodd" clip-rule="evenodd" d="M1044.11 2285.58C1043.53 2287.58 1041.43 2288.73 1039.43 2288.15C1036.64 2287.34 1034.44 2285.91 1032.97 2283.77C1031.56 2281.69 1031.12 2279.36 1031.03 2277.26C1030.94 2275.18 1031.18 2272.98 1031.42 2271.01C1031.45 2270.76 1031.48 2270.51 1031.51 2270.27C1031.73 2268.48 1031.93 2266.82 1032 2265.17C1032.33 2256.2 1032 2247.26 1031.66 2238.16L1031.66 2238.09C1031.32 2229.05 1030.98 2219.86 1031.32 2210.6L1038.66 2015.22C1038.74 2013.14 1040.49 2011.51 1042.57 2011.59C1044.66 2011.67 1046.28 2013.42 1046.2 2015.5L1038.86 2210.88C1038.53 2219.84 1038.86 2228.78 1039.2 2237.88L1039.2 2237.94C1039.54 2246.97 1039.88 2256.18 1039.54 2265.45C1039.46 2267.45 1039.22 2269.45 1039 2271.2C1038.97 2271.45 1038.94 2271.68 1038.91 2271.91C1038.67 2273.93 1038.51 2275.55 1038.56 2276.93C1038.62 2278.29 1038.89 2279.05 1039.2 2279.51C1039.48 2279.91 1040.04 2280.47 1041.53 2280.9C1043.54 2281.48 1044.69 2283.58 1044.11 2285.58Z" fill="white" stroke="black" stroke-width="1.48" stroke-linecap="round"/>
<g filter="url(#filter1_d_266_297)">
<path d="M873.445 509.978L873.445 321.48L895.525 346.832L895.525 509.978L873.445 509.978Z" fill="black"/>
<path d="M867.721 645.598C867.721 558.505 922.103 506.167 1019.42 506.167C1116.73 506.167 1171.12 558.505 1171.12 645.598C1171.12 732.283 1116.73 784.621 1019.42 784.621C922.103 784.621 867.721 732.283 867.721 645.598ZM889.801 645.598C889.801 717.563 935.596 759.27 1019.42 759.27C1103.24 759.27 1149.04 717.563 1149.04 645.598C1149.04 573.225 1103.24 531.518 1019.42 531.518C935.596 531.518 889.801 573.225 889.801 645.598Z" fill="black"/>
<path d="M873.445 842.769L873.445 817.418L1165.39 817.418L1165.39 923.729C1165.39 1003.05 1128.59 1029.22 1083.21 1029.22C1049.68 1029.22 1021.05 1018.18 1008.38 976.067L1004.29 976.067C994.885 1012.87 970.761 1024.32 934.778 1033.31L873.445 1048.85L873.445 1022.68L931.916 1007.96C960.538 1000.6 992.023 991.196 992.023 930.271L992.023 842.769L873.445 842.769ZM1143.31 842.769L1014.1 842.769L1014.1 927.818C1014.1 986.289 1047.22 1003.87 1079.12 1003.87C1111.83 1003.87 1143.31 986.289 1143.31 927.818L1143.31 842.769Z" fill="black"/>
<path d="M1143.31 1147.98L1143.31 1046.99L1165.39 1046.99L1165.39 1274.33L1143.31 1274.33L1143.31 1173.33L1143.31 1147.98Z" fill="black"/>
<path d="M873.445 1322.34L873.445 1296.98L1165.39 1296.98L1165.39 1322.34L1030.46 1322.34L1030.46 1513.29L1165.39 1513.29L1165.39 1538.64L1008.38 1513.29L1008.38 1322.34L873.445 1322.34Z" fill="black"/>
<path d="M873.445 1605.04L873.445 1579.69L1165.39 1579.69L1165.39 1605.04L873.445 1605.04Z" fill="black"/>
<path d="M867.721 1777.23C867.721 1690.14 922.103 1637.8 1019.42 1637.8C1116.73 1637.8 1171.12 1690.14 1171.12 1777.23C1171.12 1863.91 1116.73 1916.25 1019.42 1916.25C985.692 1916.25 957.122 1909.97 934.185 1898.14C918.838 1890.23 906.012 1879.84 895.852 1867.19C877.383 1844.21 867.721 1813.77 867.721 1777.23ZM889.801 1777.23C889.801 1849.19 935.596 1890.9 1019.42 1890.9C1103.24 1890.9 1149.04 1849.19 1149.04 1777.23C1149.04 1704.86 1103.24 1663.15 1019.42 1663.15C935.596 1663.15 889.801 1704.86 889.801 1777.23Z" fill="black"/>
<path d="M873.445 1974.4L873.445 1949.05L1165.39 1949.05L1165.39 1974.4L873.445 1974.4Z" fill="black"/>
<path d="M950.316 2212.01C1038.23 2212.01 972.396 2019.01 1090.57 2019.01C1090.56 2030.9 1090.56 2032.38 1088.93 2044.37C996.521 2044.37 1062.76 2237.36 948.272 2237.36C950.316 2227.96 945.297 2227.96 950.316 2212.01Z" fill="black"/>
</g>
<path fill-rule="evenodd" clip-rule="evenodd" d="M956.052 1907.95C959.463 1914.85 960.483 1923.18 956.292 1930.22C952.947 1935.84 947.265 1937.05 942.189 1936.19C940.944 1935.99 939.699 1935.65 938.481 1935.22C937.534 1935.11 936.592 1934.86 935.705 1934.43C935.001 1934.09 934.317 1933.61 933.728 1932.99C931.933 1931.94 930.272 1930.72 928.841 1929.43C927.062 1927.83 925.489 1925.99 924.418 1924.05C923.379 1922.17 922.593 1919.77 923.125 1917.27C923.335 1916.3 923.719 1915.42 924.246 1914.66C924.215 1914.59 924.179 1914.53 924.151 1914.46C923.398 1912.91 922.862 1910.61 924.229 1908.47C924.734 1907.69 925.379 1907.12 926.054 1906.72C925.017 1904.38 924.411 1901.92 924.41 1899.64C924.413 1898.14 924.68 1896.46 925.507 1894.96C925.83 1892.5 926.78 1890.02 928.353 1887.54C930.792 1883.7 935.028 1882.39 938.871 1882.41C942.74 1882.42 946.86 1883.71 950.291 1885.84C953.711 1887.96 956.841 1891.16 958.162 1895.3C959.449 1899.32 958.854 1903.71 956.052 1907.95ZM951.131 1900.67C951.371 1899.51 951.258 1898.48 950.974 1897.6C950.36 1895.67 948.722 1893.74 946.316 1892.25C943.922 1890.77 941.158 1889.96 938.848 1889.95C936.749 1889.95 935.541 1890.56 934.912 1891.32C941.194 1892.23 946.893 1895.9 951.131 1900.67ZM933.219 1898.71C938.149 1899.21 943.213 1902.51 946.819 1907.31C946.502 1907.62 946.189 1907.9 945.885 1908.15C944.851 1907.84 943.734 1907.44 942.586 1906.94C938.874 1905.35 935.667 1903.08 934.057 1900.52C933.686 1899.92 933.407 1899.33 933.219 1898.71ZM933.202 1923.17C933.246 1923.22 933.29 1923.25 933.334 1923.3C933.338 1923.29 933.346 1923.28 933.35 1923.26C933.302 1923.23 933.25 1923.2 933.202 1923.17ZM940.049 1926.74C939.935 1926.97 939.844 1927.18 939.768 1927.38C939.739 1927.45 939.714 1927.52 939.689 1927.58C939.811 1927.64 939.938 1927.69 940.06 1927.75C940.257 1927.73 940.477 1927.71 940.72 1927.68C941.08 1927.62 941.465 1927.54 941.862 1927.43C941.273 1927.23 940.707 1927.01 940.168 1926.79C940.127 1926.78 940.086 1926.76 940.049 1926.74ZM944.752 1920.44C945.636 1920.72 946.329 1920.86 946.826 1920.9C946.824 1920.44 946.785 1920.08 946.731 1919.81C946.699 1919.77 946.666 1919.73 946.63 1919.69C946.464 1919.49 946.271 1919.28 946.053 1919.08C945.593 1919.55 945.157 1920 944.752 1920.44Z" fill="white" stroke="black" stroke-width="1.48" stroke-linecap="round"/>
</g>
<defs>
<filter id="filter0_d_266_297" x="868.053" y="322.859" width="333.025" height="1945.51" filterUnits="userSpaceOnUse" color-interpolation-filters="sRGB">
<feFlood flood-opacity="0" result="BackgroundImageFix"/>
<feColorMatrix in="SourceAlpha" type="matrix" values="0 0 0 0 0 0 0 0 0 0 0 0 0 0 0 0 0 0 127 0" result="hardAlpha"/>
<feOffset dx="14.8148" dy="14.8148"/>
<feGaussianBlur stdDeviation="7.40741"/>
<feComposite in2="hardAlpha" operator="out"/>
<feColorMatrix type="matrix" values="0 0 0 0 0 0 0 0 0 0 0 0 0 0 0 0 0 0 0.3 0"/>
<feBlend mode="normal" in2="BackgroundImageFix" result="effect1_dropShadow_266_297"/>
<feBlend mode="normal" in="SourceGraphic" in2="effect1_dropShadow_266_297" result="shape"/>
</filter>
<filter id="filter1_d_266_297" x="867.721" y="321.48" width="333.025" height="1945.51" filterUnits="userSpaceOnUse" color-interpolation-filters="sRGB">
<feFlood flood-opacity="0" result="BackgroundImageFix"/>
<feColorMatrix in="SourceAlpha" type="matrix" values="0 0 0 0 0 0 0 0 0 0 0 0 0 0 0 0 0 0 127 0" result="hardAlpha"/>
<feOffset dx="14.8148" dy="14.8148"/>
<feGaussianBlur stdDeviation="7.40741"/>
<feComposite in2="hardAlpha" operator="out"/>
<feColorMatrix type="matrix" values="0 0 0 0 0 0 0 0 0 0 0 0 0 0 0 0 0 0 0.3 0"/>
<feBlend mode="normal" in2="BackgroundImageFix" result="effect1_dropShadow_266_297"/>
<feBlend mode="normal" in="SourceGraphic" in2="effect1_dropShadow_266_297" result="shape"/>
</filter>
<clipPath id="clip0_266_297">
<rect width="2560" height="1406" fill="white" transform="translate(1406) rotate(90)"/>
</clipPath>
</defs>
</svg>
