<svg width="2560" height="1406" viewBox="0 0 2560 1406" fill="none" xmlns="http://www.w3.org/2000/svg">
<g clip-path="url(#clip0_266_297)">
<g filter="url(#filter0_d_266_297)">
<path d="M511.357 532.222H322.86V240.275H348.211V510.142H511.357V532.222ZM646.978 537.947C559.884 537.947 507.546 483.564 507.546 386.249C507.546 288.933 559.884 234.551 646.978 234.551C733.662 234.551 786 288.933 786 386.249C786 483.564 733.662 537.947 646.978 537.947ZM646.978 515.867C718.942 515.867 760.649 470.071 760.649 386.249C760.649 302.427 718.942 256.631 646.978 256.631C574.604 256.631 532.898 302.427 532.898 386.249C532.898 470.071 574.604 515.867 646.978 515.867ZM844.148 532.222H818.797V240.275H925.108C1004.43 240.275 1030.6 277.075 1030.6 322.462C1030.6 355.991 1019.56 384.613 977.446 397.289V401.378C1014.25 410.782 1025.69 434.907 1034.69 470.889L1050.23 532.222H1024.06L1009.34 473.751C1001.98 445.129 992.575 413.644 931.65 413.644H844.148V532.222ZM844.148 262.355V391.564H929.197C987.668 391.564 1005.25 358.444 1005.25 326.551C1005.25 293.84 987.668 262.355 929.197 262.355H844.148ZM1174.71 532.222H1149.36V262.355H1048.37V240.275H1275.71V262.355H1174.71V532.222ZM1323.71 532.222H1298.36V240.275H1323.71V375.209H1514.67V240.275H1540.02V532.222H1514.67V397.289H1323.71V532.222ZM1606.42 532.222H1581.07V240.275H1606.42V532.222ZM1778.61 537.947C1691.52 537.947 1639.18 483.564 1639.18 386.249C1639.18 288.933 1691.52 234.551 1778.61 234.551C1865.29 234.551 1917.63 288.933 1917.63 386.249C1917.63 483.564 1865.29 537.947 1778.61 537.947ZM1778.61 515.867C1850.57 515.867 1892.28 470.071 1892.28 386.249C1892.28 302.427 1850.57 256.631 1778.61 256.631C1706.24 256.631 1664.53 302.427 1664.53 386.249C1664.53 470.071 1706.24 515.867 1778.61 515.867ZM1975.78 532.222H1950.43V240.275H1975.78V532.222ZM2123.43 537.947C2047.79 537.947 2008.94 501.964 2008.94 452.898V448.809H2034.3V451.671C2034.3 484.791 2056.78 515.867 2123.43 515.867C2187.22 515.867 2213.39 488.062 2213.39 455.351C2213.39 367.44 2020.39 433.271 2020.39 315.102C2020.39 273.804 2048.61 234.551 2125.07 234.551C2201.53 234.551 2229.34 275.849 2229.34 322.053V324.098H2203.98V322.053C2203.98 284.027 2181.5 256.631 2123.84 256.631C2067.42 256.631 2045.74 284.844 2045.74 316.738C2045.74 409.147 2238.74 342.907 2238.74 457.395C2238.74 498.284 2206.03 537.947 2123.43 537.947Z" fill="black"/>
</g>
<g clip-path="url(#clip1_266_297)">
<path fill-rule="evenodd" clip-rule="evenodd" d="M330.381 414.055C329.713 419.478 328.875 424.886 327.998 430.252C327.669 432.279 327.333 434.297 326.997 436.308C325.574 444.855 324.17 453.274 323.27 461.663C320.635 486.289 316.807 512.436 311.489 536.724C294.02 616.479 280.991 697.431 273.604 778.554C272.417 791.56 269.643 804.417 266.927 817.008C266.654 818.266 266.383 819.524 266.114 820.779C263.134 834.67 260.415 848.276 259.9 861.999C259.878 862.572 259.801 863.32 259.524 864.065C259.247 864.81 258.586 866.016 257.129 866.629C255.675 867.243 254.367 866.877 253.676 866.575C252.978 866.269 252.432 865.841 252.07 865.522C250.715 864.319 249.269 862.207 248.089 860.343C246.058 857.137 243.912 853.161 242.931 851.342C242.708 850.93 242.546 850.629 242.457 850.471C234.134 835.669 229.057 819.368 224.142 803.494L224.031 803.138C219.108 787.256 214.323 771.808 206.637 757.834C203.21 751.601 200.534 744.746 198.016 738.015C197.666 737.08 197.319 736.15 196.973 735.219C194.802 729.384 192.683 723.691 190.171 718.318C188.071 713.822 185.691 709.437 183.248 704.932C182.496 703.548 181.74 702.153 180.982 700.739C177.803 694.802 174.671 688.632 172.349 682.119C169.455 674.026 166.043 665.973 162.553 657.782L162.251 657.072C158.872 649.142 155.437 641.081 152.449 632.897C146.312 616.081 139.845 598.472 130.508 583.839C126.219 577.113 124.589 569.342 123.136 562.398C123.047 561.968 122.957 561.541 122.867 561.119C121.274 553.576 119.699 547.069 115.671 541.847C111.66 536.649 108.788 529.693 106.176 523.154C105.976 522.656 105.779 522.161 105.583 521.667C103.106 515.45 100.78 509.613 97.8111 504.941C97.4547 504.38 97.0511 503.769 96.6186 503.122C95.5358 541.205 99.7612 579.075 104.824 617.075C105.725 623.829 106.649 630.588 107.577 637.354C112.025 669.8 116.49 702.383 118.1 735.013C118.566 744.53 120.926 753.857 123.398 763.626C123.645 764.594 123.891 765.566 124.138 766.545C126.821 777.228 129.401 788.44 128.962 800.116L126.662 861.375C126.57 863.81 126.475 866.238 126.381 868.662C125.55 889.776 124.739 910.458 126.724 931.289C126.922 933.365 125.399 935.207 123.327 935.405C121.251 935.602 119.409 934.08 119.211 932.007C117.175 910.634 118.013 889.433 118.841 868.386C118.936 865.955 119.031 863.523 119.122 861.092L121.423 799.832C121.816 789.352 119.506 779.091 116.82 768.385C116.571 767.394 116.317 766.403 116.064 765.404C113.621 755.757 111.07 745.694 110.562 735.387C108.973 703.116 104.561 670.921 100.116 638.482C99.1859 631.689 98.2521 624.889 97.3454 618.071C92.112 578.795 87.6998 539.162 89.2024 499.151L89.771 484.011L97.3107 484.29L97.2463 486.005C97.161 488.275 97.9124 490.583 99.2666 493.126C100.219 494.91 101.287 496.517 102.431 498.228C102.999 499.08 103.582 499.955 104.177 500.895C107.549 506.194 110.133 512.694 112.537 518.734C112.751 519.278 112.968 519.819 113.182 520.355C115.863 527.067 118.385 533.013 121.642 537.236C126.87 544.008 128.695 552.19 130.249 559.561C130.314 559.855 130.374 560.151 130.435 560.444C131.973 567.739 133.341 574.254 136.871 579.778C146.728 595.231 153.455 613.646 159.538 630.309C162.454 638.305 165.819 646.205 169.223 654.185L169.493 654.822C172.973 662.987 176.476 671.243 179.451 679.581C181.579 685.539 184.485 691.3 187.635 697.179C188.348 698.509 189.075 699.85 189.809 701.203C192.274 705.746 194.798 710.402 197.007 715.125C199.659 720.797 201.894 726.808 204.058 732.624C204.401 733.546 204.74 734.462 205.08 735.369C207.602 742.101 210.11 748.496 213.248 754.198C221.305 768.85 226.285 784.92 231.13 800.562L231.346 801.261C236.302 817.255 241.166 832.784 249.037 846.773C249.178 847.027 249.404 847.443 249.69 847.975C250.438 849.355 251.607 851.517 252.884 853.705C253.965 842.012 256.315 830.499 258.736 819.196C259.006 817.952 259.271 816.709 259.541 815.466C262.274 802.796 264.948 790.393 266.09 777.868C273.506 696.402 286.588 615.139 304.117 535.11C309.361 511.164 313.152 485.302 315.769 460.86C316.693 452.23 318.141 443.537 319.568 434.976C319.9 432.987 320.231 431.006 320.554 429.036C322.275 418.5 323.784 408.163 324.167 397.976C324.185 397.49 324.22 396.766 324.395 396.127C324.447 395.944 324.546 395.612 324.741 395.246C324.899 394.95 325.367 394.152 326.361 393.63C327.636 392.965 328.981 393.136 329.932 393.644C330.683 394.046 331.104 394.594 331.262 394.807C331.599 395.277 331.778 395.74 331.84 395.905C331.929 396.139 332 396.372 332.053 396.566C332.167 396.959 332.267 397.401 332.357 397.82C332.537 398.661 332.715 399.638 332.85 400.386L332.856 400.428C332.925 400.797 332.978 401.101 333.022 401.329C333.034 401.398 333.044 401.447 333.054 401.485C334.845 406.574 337.444 411.439 340.297 416.485C340.772 417.322 341.254 418.163 341.739 419.016C344.161 423.267 346.687 427.692 348.765 432.267C352.666 440.862 354.799 450.132 356.342 459.288C357.09 463.714 357.704 468.166 358.303 472.519L358.369 472.978C358.992 477.494 359.604 481.904 360.349 486.183C363.644 505.116 367.963 523.807 372.311 542.617C373.464 547.598 374.617 552.587 375.754 557.591C377.837 566.764 380.071 576.048 382.32 585.409C388.727 612.054 395.276 639.297 398.943 666.217C400.893 680.539 401.598 694.919 402.29 709.087C402.343 710.177 402.397 711.262 402.45 712.348C403.209 727.629 404.064 742.664 406.523 757.503C410.758 783.062 412.448 808.915 414.068 834.554L414.178 836.329C415.761 861.43 417.33 886.312 421.169 910.845C422.806 921.326 424.808 931.757 426.826 942.268C427.173 944.074 427.52 945.884 427.864 947.694C430.217 960.019 432.502 972.454 434.114 985.018C434.307 986.532 434.951 991.49 435.552 995.783C435.856 997.938 436.142 999.882 436.356 1001.13C436.374 1001.24 436.393 1001.35 436.408 1001.44C436.686 1001.99 436.829 1002.61 436.804 1003.27C436.799 1003.39 436.789 1003.67 436.728 1003.99C436.7 1004.12 436.625 1004.52 436.4 1004.97C436.298 1005.18 435.435 1006.96 433.24 1007.1C431.219 1007.24 430.132 1005.81 429.999 1005.64L429.992 1005.64C429.707 1005.27 429.554 1004.93 429.505 1004.81C429.38 1004.52 429.307 1004.27 429.277 1004.16C429.147 1003.69 429.025 1003.02 428.916 1002.4C428.685 1001.03 428.384 998.991 428.08 996.831C427.473 992.493 426.826 987.497 426.63 985.979C425.05 973.661 422.803 961.42 420.453 949.107C420.109 947.313 419.765 945.514 419.421 943.711C417.404 933.204 415.373 922.629 413.715 912.011C409.821 887.128 408.233 861.944 406.658 836.945L406.537 835.03C404.916 809.346 403.242 783.86 399.081 758.737C396.542 743.416 395.672 727.98 394.916 712.722C394.862 711.655 394.811 710.589 394.757 709.522C394.061 695.289 393.37 681.223 391.468 667.235C387.857 640.725 381.438 614.03 375.058 587.492C372.792 578.059 370.526 568.641 368.398 559.263C367.274 554.324 366.131 549.377 364.988 544.422C360.629 525.586 356.248 506.635 352.917 487.478C352.147 483.047 351.517 478.512 350.893 474.007L350.837 473.59C350.232 469.207 349.629 464.854 348.904 460.541C347.4 451.632 345.398 443.107 341.894 435.384C339.973 431.159 337.657 427.089 335.234 422.845C334.738 421.969 334.235 421.09 333.729 420.198C332.596 418.197 331.465 416.149 330.381 414.055Z" fill="white"/>
<path d="M252.353 861.806C252.353 861.806 252.353 861.799 252.354 861.787M327.998 430.252C328.875 424.886 329.713 419.478 330.381 414.055C331.465 416.149 332.596 418.197 333.729 420.198C334.235 421.09 334.738 421.969 335.234 422.845C337.657 427.089 339.973 431.159 341.894 435.384C345.398 443.107 347.4 451.632 348.904 460.541C349.629 464.854 350.232 469.207 350.837 473.59L350.893 474.007C351.517 478.512 352.147 483.047 352.917 487.478C356.248 506.635 360.629 525.586 364.988 544.422C366.131 549.377 367.274 554.324 368.398 559.263C370.526 568.641 372.792 578.059 375.058 587.492C381.438 614.03 387.857 640.725 391.468 667.235C393.37 681.223 394.061 695.289 394.757 709.522C394.811 710.589 394.862 711.655 394.916 712.722C395.672 727.98 396.542 743.416 399.081 758.737C403.242 783.86 404.916 809.346 406.537 835.03L406.658 836.945C408.233 861.944 409.821 887.128 413.715 912.011C415.373 922.629 417.404 933.204 419.421 943.711C419.765 945.514 420.109 947.313 420.453 949.107C422.803 961.42 425.05 973.661 426.63 985.979C426.826 987.497 427.473 992.493 428.08 996.831C428.384 998.991 428.685 1001.03 428.916 1002.4C429.025 1003.02 429.147 1003.69 429.277 1004.16C429.307 1004.27 429.38 1004.52 429.505 1004.81C429.554 1004.93 429.707 1005.27 429.992 1005.64L429.999 1005.64C430.132 1005.81 431.219 1007.24 433.24 1007.1C435.435 1006.96 436.298 1005.18 436.4 1004.97C436.625 1004.52 436.7 1004.12 436.728 1003.99C436.789 1003.67 436.799 1003.39 436.804 1003.27C436.829 1002.61 436.686 1001.99 436.408 1001.44C436.393 1001.35 436.374 1001.24 436.356 1001.13C436.142 999.882 435.856 997.938 435.552 995.783C434.951 991.49 434.307 986.532 434.114 985.018C432.502 972.454 430.217 960.019 427.864 947.694C427.52 945.884 427.173 944.074 426.826 942.268C424.808 931.757 422.806 921.326 421.169 910.845C417.33 886.312 415.761 861.43 414.178 836.329L414.068 834.554C412.448 808.915 410.758 783.062 406.523 757.503C404.064 742.664 403.209 727.629 402.45 712.348C402.397 711.262 402.343 710.177 402.29 709.087C401.598 694.919 400.893 680.539 398.943 666.217C395.276 639.297 388.727 612.054 382.32 585.409C380.071 576.048 377.837 566.764 375.754 557.591C374.617 552.587 373.464 547.598 372.311 542.617C367.963 523.807 363.644 505.116 360.349 486.183C359.604 481.904 358.992 477.494 358.369 472.978L358.303 472.519C357.704 468.166 357.09 463.714 356.342 459.288C354.799 450.132 352.666 440.862 348.765 432.267C346.687 427.692 344.161 423.267 341.739 419.016C341.254 418.163 340.772 417.322 340.297 416.485C337.444 411.439 334.845 406.574 333.054 401.485C333.044 401.447 333.034 401.398 333.022 401.329C332.978 401.101 332.925 400.797 332.856 400.428L332.85 400.386C332.715 399.638 332.537 398.661 332.357 397.82C332.267 397.401 332.167 396.959 332.053 396.566C332 396.372 331.929 396.139 331.84 395.905C331.778 395.74 331.599 395.277 331.262 394.807C331.104 394.594 330.683 394.046 329.932 393.644C328.981 393.136 327.636 392.965 326.361 393.63C325.367 394.152 324.899 394.95 324.741 395.246C324.546 395.612 324.447 395.944 324.395 396.127C324.22 396.766 324.185 397.49 324.167 397.976C323.784 408.163 322.275 418.5 320.554 429.036C320.231 431.006 319.9 432.987 319.568 434.976C318.141 443.537 316.693 452.23 315.769 460.86C313.152 485.302 309.361 511.164 304.117 535.11C286.588 615.139 273.506 696.402 266.09 777.868C264.948 790.393 262.274 802.796 259.541 815.466C259.271 816.709 259.006 817.952 258.736 819.196C256.315 830.499 253.965 842.012 252.884 853.705C251.607 851.517 250.438 849.355 249.69 847.975C249.404 847.443 249.178 847.027 249.037 846.773C241.166 832.784 236.302 817.255 231.346 801.261L231.13 800.562C226.285 784.92 221.305 768.85 213.248 754.198C210.11 748.496 207.602 742.101 205.08 735.369C204.74 734.462 204.401 733.546 204.058 732.624C201.894 726.808 199.659 720.797 197.007 715.125C194.798 710.402 192.274 705.746 189.809 701.203C189.075 699.85 188.348 698.509 187.635 697.179C184.485 691.3 181.579 685.539 179.451 679.581C176.476 671.243 172.973 662.987 169.493 654.822L169.223 654.185C165.819 646.205 162.454 638.305 159.538 630.309C153.455 613.646 146.728 595.231 136.871 579.778C133.341 574.254 131.973 567.739 130.435 560.444C130.374 560.151 130.314 559.855 130.249 559.561C128.695 552.19 126.87 544.008 121.642 537.236C118.385 533.013 115.863 527.067 113.182 520.355C112.968 519.819 112.751 519.278 112.537 518.734C110.133 512.694 107.549 506.194 104.177 500.895C103.582 499.955 102.999 499.08 102.431 498.228C101.287 496.517 100.219 494.91 99.2666 493.126C97.9124 490.583 97.161 488.275 97.2463 486.005L97.3107 484.29L89.771 484.011L89.2024 499.151C87.6998 539.162 92.112 578.795 97.3454 618.071C98.2521 624.889 99.1859 631.689 100.116 638.482C104.561 670.921 108.973 703.116 110.562 735.387C111.07 745.694 113.621 755.757 116.064 765.404C116.317 766.403 116.571 767.394 116.82 768.385C119.506 779.091 121.816 789.352 121.423 799.832L119.122 861.092C119.031 863.523 118.936 865.955 118.841 868.386C118.013 889.433 117.175 910.634 119.211 932.007C119.409 934.08 121.251 935.602 123.327 935.405C125.399 935.207 126.922 933.365 126.724 931.289C124.739 910.458 125.55 889.776 126.381 868.662C126.475 866.238 126.57 863.81 126.662 861.375L128.962 800.116C129.401 788.44 126.821 777.228 124.138 766.545C123.891 765.566 123.645 764.594 123.398 763.626C120.926 753.857 118.566 744.53 118.1 735.013C116.49 702.383 112.025 669.8 107.577 637.354C106.649 630.588 105.725 623.829 104.824 617.075C99.7612 579.075 95.5358 541.205 96.6186 503.122C97.0511 503.769 97.4547 504.38 97.8111 504.941C100.78 509.613 103.106 515.45 105.583 521.667C105.779 522.161 105.976 522.656 106.176 523.154C108.788 529.693 111.66 536.649 115.671 541.847C119.699 547.069 121.274 553.576 122.867 561.119C122.957 561.541 123.047 561.968 123.136 562.398C124.589 569.342 126.219 577.113 130.508 583.839C139.845 598.472 146.312 616.081 152.449 632.897C155.437 641.081 158.872 649.142 162.251 657.072L162.553 657.782C166.043 665.973 169.455 674.026 172.349 682.119C174.671 688.632 177.803 694.802 180.982 700.739C181.74 702.153 182.496 703.548 183.248 704.932C185.691 709.437 188.071 713.822 190.171 718.318C192.683 723.691 194.802 729.384 196.973 735.219C197.319 736.15 197.666 737.08 198.016 738.015C200.534 744.746 203.21 751.601 206.637 757.834C214.323 771.808 219.108 787.256 224.031 803.138L224.142 803.494C229.057 819.368 234.134 835.669 242.457 850.471C242.546 850.629 242.708 850.93 242.931 851.342C243.912 853.161 246.058 857.137 248.089 860.343C249.269 862.207 250.715 864.319 252.07 865.522C252.432 865.841 252.978 866.269 253.676 866.575C254.367 866.877 255.675 867.243 257.129 866.629C258.586 866.016 259.247 864.81 259.524 864.065C259.801 863.32 259.878 862.572 259.9 861.999C260.415 848.276 263.134 834.67 266.114 820.779C266.383 819.524 266.654 818.266 266.927 817.008C269.643 804.417 272.417 791.56 273.604 778.554C280.991 697.431 294.02 616.479 311.489 536.724C316.807 512.436 320.635 486.289 323.27 461.663C324.17 453.274 325.574 444.855 326.997 436.308C327.333 434.297 327.669 432.279 327.998 430.252Z" stroke="black" stroke-width="1.48" stroke-linecap="round"/>
<path fill-rule="evenodd" clip-rule="evenodd" d="M2059.31 251.339L2066.85 251.622L2061.33 398.841C2060.82 412.346 2060.51 425.971 2060.21 439.656C2059.6 467.22 2058.97 495.032 2056.68 522.619L2055.47 554.856C2054.93 569.239 2055.58 583.538 2056.32 597.98C2056.37 598.998 2056.42 600.019 2056.48 601.04C2057.17 614.435 2057.87 627.965 2057.65 641.586C2057.6 644.748 2057.52 647.864 2057.44 650.945C2057.16 662.483 2056.88 673.542 2058.1 684.959C2060.67 709.029 2072.36 728.383 2084.81 748.988C2087.54 753.5 2090.3 758.074 2093.01 762.77C2099.33 773.707 2110.2 783.621 2122.79 792.018C2135.33 800.387 2149.32 807.078 2161.54 811.667C2195.64 824.474 2230.78 834.326 2266.46 829.519C2266.6 829.502 2266.74 829.484 2266.88 829.463C2263.47 825.25 2260.63 820.647 2258.71 815.713C2256.95 811.146 2255.13 807.14 2253.37 803.325L2252.93 802.365C2251.34 798.922 2249.79 795.568 2248.46 792.173C2245.5 784.625 2243.55 776.789 2243.95 766.214C2244.89 741.242 2246.31 719.587 2253.37 695.241C2261.44 667.448 2279.73 653.871 2303.26 639.295C2313.44 632.991 2323.59 628.412 2334.25 623.859C2337.56 622.45 2340.49 620.502 2343.72 618.362L2343.93 618.219C2347.14 616.09 2350.69 613.75 2354.76 612.185C2364.93 608.271 2374.05 609.489 2382.01 613.541C2389.82 617.507 2396.43 624.136 2402.03 630.938C2413.72 645.131 2411.87 662.273 2409.33 678.291C2405.05 705.343 2389.05 735.59 2375.21 758.187C2374.27 759.726 2373.33 761.272 2372.39 762.826C2363.64 777.278 2354.61 792.195 2339.56 802.458C2323.4 813.472 2302.56 827.198 2281.67 833.753C2286.38 837.746 2291.56 841.206 2296.65 843.991C2332.58 863.673 2397.61 893.877 2415.1 888.771C2432.59 883.666 2445.93 896.259 2413.22 896.082C2380.52 895.905 2329.68 870.693 2293.03 850.609C2286.33 846.945 2279.18 842.017 2272.96 836.049C2271.12 836.433 2269.29 836.753 2267.47 836.998C2229.85 842.064 2193.23 831.628 2158.89 818.729C2146.23 813.976 2131.71 807.039 2118.6 798.294C2105.53 789.577 2093.61 778.89 2086.48 766.542C2083.94 762.142 2081.29 757.765 2078.63 753.373C2066.12 732.712 2053.37 711.658 2050.6 685.761C2049.32 673.802 2049.61 662.105 2049.9 650.5C2049.98 647.482 2050.06 644.472 2050.1 641.465C2050.32 628.112 2049.63 614.824 2048.94 601.376C2048.89 600.374 2048.83 599.372 2048.79 598.365C2048.53 593.384 2048.28 588.383 2048.09 583.359C2040.26 619.308 2027.5 650.153 2013.69 683.529C2012.31 686.857 2010.93 690.21 2009.53 693.593C2002.77 710.03 1992.7 724.738 1982.69 739.01C1982.04 739.937 1981.39 740.861 1980.74 741.784C1971.32 755.187 1962.12 768.282 1955.35 782.552C1954.81 783.702 1954.32 784.808 1953.83 785.9C1953.35 786.973 1952.87 788.054 1952.38 789.074C1951.42 791.087 1950.3 793.133 1948.74 794.86C1945.29 798.691 1940.52 800.079 1933.52 799.427C1927.76 798.89 1923.12 795.442 1919.44 791.132C1915.74 786.806 1912.66 781.22 1910.06 775.535C1907.44 769.823 1905.2 763.796 1903.26 758.514L1902.9 757.53C1901.09 752.58 1899.6 748.515 1898.27 745.807C1896.49 742.18 1895.4 738.292 1894.77 734.304C1893.12 737.459 1891.38 740.542 1889.54 743.516C1876.56 764.567 1858.1 781.271 1830.4 779.237C1819.26 778.419 1808.61 772.749 1799.08 764.61C1789.52 756.443 1780.81 745.579 1773.5 733.847C1766.18 722.102 1760.18 709.369 1756.09 697.38C1752.01 685.444 1749.73 673.991 1750.07 664.867C1751.14 636.392 1752.36 609.203 1759.35 581.04C1764.06 562.031 1772.5 544.525 1781.99 527.733C1778.2 530.37 1774.27 532.948 1770.19 535.483C1748.57 548.938 1725.87 557.807 1702.66 558.766C1703.5 561.675 1704.31 564.673 1705.15 567.762C1705.95 570.76 1706.79 573.849 1707.7 577.032C1726.33 641.845 1702.1 693.884 1668.79 748.278C1657.33 767.007 1642.17 782.936 1624.25 791.109C1606.13 799.368 1585.49 799.545 1563.79 787.238C1539.98 773.734 1522.21 751.381 1509.7 725.748C1499.84 740.363 1487.95 755.334 1474.68 768.688C1454.71 788.789 1431.3 805.529 1406.71 811.538C1392.2 815.081 1379.05 815.954 1369.12 811.119C1358.76 806.071 1353.07 795.449 1352.07 779.026C1351.05 762.229 1351.05 745.24 1352.14 728.322C1340.97 756.078 1328.69 783.135 1311.38 808.883C1305.3 817.927 1294.86 827.958 1283.26 835.779C1273.2 842.574 1261.8 848.01 1251.24 849.429C1248.84 863.092 1246.12 876.608 1243.28 889.904C1240.4 903.327 1236.61 916.409 1232.87 929.331C1232.43 930.836 1231.99 932.341 1231.56 933.847C1227.39 948.289 1223.41 962.588 1220.83 977.313C1216.01 1004.75 1203.67 1033.43 1191.52 1057.93C1190.79 1059.39 1190.07 1060.85 1189.34 1062.32C1159.24 1123.06 1124.03 1194.1 1070.34 1238.39C1034.22 1268.18 991.049 1283.26 944.604 1278.43C943.826 1278.35 943.028 1278.27 942.205 1278.18C925.895 1276.5 900.632 1273.89 877.896 1267.03C854.327 1259.92 831.73 1247.71 826.269 1225.48C825.905 1223.99 825.532 1222.48 825.148 1220.93C821.838 1207.54 818.04 1192.17 815.909 1176.73C813.539 1159.54 813.169 1141.85 818.045 1126.28C825.932 1101.13 837.779 1075.89 848.932 1052.13C849.929 1050 850.922 1047.89 851.907 1045.79C856.533 1035.9 863.784 1022.27 870.772 1013.41C882.925 998.005 900.411 986.739 918.866 977.836C934.953 970.074 952.064 963.981 967.357 958.534C969.607 957.735 971.819 956.946 973.977 956.17C981.799 953.364 989.665 948.763 997.576 943.589C1000.66 941.572 1003.81 939.425 1006.95 937.282C1011.67 934.065 1016.39 930.852 1020.87 928.079C1036.7 918.303 1053.28 905.659 1067.14 893.222C1073.42 887.58 1080.05 882.362 1086.56 877.234C1087.64 876.384 1088.71 875.533 1089.78 874.686C1097.36 868.692 1104.73 862.717 1111.46 856.038C1116.18 851.353 1120.49 846.554 1124.87 841.686C1125.72 840.74 1126.57 839.79 1127.43 838.837C1132.67 833.027 1138.1 827.172 1144.32 821.622C1162.13 805.736 1181.53 781.762 1192.66 760.755C1201.05 744.927 1208.87 728.767 1216.75 712.516C1217.24 711.489 1217.74 710.462 1218.24 709.434C1225.84 693.735 1233.52 677.967 1241.79 662.451C1239.5 650.798 1237.12 639.167 1234.73 627.529C1234.24 637.024 1233.28 646.521 1231.54 655.633C1223.19 699.408 1204.99 748.152 1163.03 772.339C1134.16 788.98 1105.36 789.254 1080.85 778.106C1080.58 777.986 1080.32 777.863 1080.05 777.74C1072.91 775.195 1066.18 771.892 1060.74 769.222L1060.35 769.034C1050.82 764.365 1043.99 756.312 1038.92 747.416C1035.59 741.56 1032.96 735.224 1030.82 729.043C1028.72 725.128 1026.8 721.069 1025.06 716.881C1023.34 712.732 1021.86 708.754 1020.62 704.841C1014.92 737.016 997.544 760.473 973.76 786.532C960.13 801.465 943.269 803.814 927.291 800.031C911.523 796.298 896.409 786.598 885.2 777.086C880.71 773.278 879.384 769.003 878.666 764.997C878.478 763.967 878.333 763.003 878.194 762.08C877.783 759.343 877.427 756.97 876.233 754.29C870.629 741.666 868.279 725.132 866.605 712.09C864.007 691.828 863.275 670.693 864.04 650.331C864.628 634.666 867.977 619.566 871.236 604.882L871.25 604.807C873.567 594.357 875.84 584.109 877.167 573.796C876.979 574.068 876.796 574.325 876.617 574.56C875.347 576.223 874.179 577.881 872.986 579.573C872.759 579.897 872.532 580.221 872.3 580.544C870.885 582.545 869.415 584.593 867.798 586.544C864.52 590.491 860.582 594.122 854.898 596.702C840.477 603.251 821.169 607.011 802.366 606.097C805.017 626.988 803.633 648.542 800.382 669.973C797.528 688.796 793.214 707.65 788.853 725.97C788.261 728.462 787.67 730.943 787.079 733.413C783.313 749.154 779.659 764.428 776.972 779.058C774.947 790.071 772.189 800.685 769.324 811.133C768.672 813.514 768.013 815.887 767.358 818.252C765.123 826.296 762.909 834.277 760.961 842.415C759.51 848.481 757.529 855.908 754.22 862.594C750.907 869.281 746.071 875.615 738.69 878.97C731.565 882.202 720.61 883.414 710.284 883.245C699.95 883.072 689.292 881.498 682.7 878.491C665.931 870.839 655.018 851.028 648.361 830.546C641.627 809.826 638.846 787.183 639.179 772.189C639.401 762.242 639.23 751.83 638.702 741.243C637.085 732.85 635.003 724.134 632.286 715.662C631.247 731.268 629.66 746.687 628.076 762.046L628.059 762.197C625.92 782.964 623.793 803.618 623.001 824.708C622.089 848.987 616.591 867.521 606.541 888.739C605.172 891.632 602.62 895.036 599.65 898.436C596.628 901.897 592.968 905.58 589.176 909.047C585.38 912.518 581.405 915.819 577.737 918.505C574.131 921.141 570.593 923.36 567.713 924.468C540.325 935.007 512.421 932.354 484.889 927.213C481.594 926.598 478.136 924.188 475.094 921.552C471.899 918.782 468.578 915.222 465.513 911.509C462.444 907.788 459.568 903.829 457.284 900.217C455.05 896.686 453.206 893.212 452.416 890.513C449.483 880.466 443.887 871.648 437.91 862.227C437.486 861.558 437.058 860.885 436.631 860.208C430.287 850.18 423.764 839.421 421.048 826.502C413.805 792.086 415.973 749.034 431.563 716.883C440.66 698.129 450.408 682.216 466.942 668.283C469.214 666.367 471.741 664.023 474.538 661.433C475.05 660.957 475.57 660.475 476.102 659.981C479.489 656.85 483.191 653.478 487.042 650.354C494.572 644.245 503.388 638.482 512.233 637.897C542.899 635.862 569.204 646.017 596.29 656.971C609.309 662.239 619.104 672.219 626.524 684.246C626.691 681.897 626.868 679.499 627.049 677.191C627.369 672.997 627.697 669.08 627.961 666.288C628.096 664.9 628.215 663.749 628.319 662.972C628.362 662.626 628.428 662.194 628.509 661.839C628.535 661.745 628.576 661.573 628.647 661.376C628.656 661.346 628.87 660.659 629.449 660.032C629.752 659.703 630.676 658.817 632.205 658.806C633.841 658.792 634.827 659.769 635.195 660.232C635.566 660.699 635.738 661.14 635.8 661.312C635.878 661.527 635.924 661.71 635.947 661.82C641.279 686.103 644.854 713.733 646.211 740.336C647.767 748.47 648.89 756.244 649.741 763.162C649.981 765.115 648.687 766.902 646.803 767.31C646.784 769.005 646.759 770.688 646.723 772.355C646.41 786.497 649.065 808.297 655.539 828.214C662.09 848.371 672.157 865.387 685.831 871.628C691.008 873.989 700.429 875.536 710.409 875.699C720.403 875.863 729.996 874.63 735.569 872.099C740.75 869.749 744.552 865.119 747.46 859.245C750.364 853.377 752.187 846.658 753.624 840.66C755.604 832.376 757.869 824.223 760.109 816.152C760.76 813.806 761.41 811.471 762.049 809.139C764.901 798.735 767.589 788.379 769.553 777.693C772.277 762.852 775.985 747.361 779.742 731.638C780.333 729.173 780.924 726.699 781.516 724.222C785.873 705.909 790.119 687.324 792.924 668.84C796.206 647.191 797.479 625.847 794.67 605.453C773.872 602.958 753.87 594.151 743.504 575.538C742.256 573.294 741.591 570.195 741.31 567.127C741.021 563.96 741.102 560.395 741.619 556.971C742.132 553.585 743.108 550.107 744.763 547.255C746.418 544.399 749.008 541.778 752.798 541.082C759.344 539.882 767.073 542.448 773.394 546.035C779.763 549.649 785.753 554.891 788.518 560.273C794.84 572.569 798.886 585.368 801.21 598.477C819.314 599.617 838.093 596.045 851.781 589.831C856.125 587.857 859.2 585.085 861.992 581.724C863.407 580.018 864.733 578.18 866.141 576.19C866.356 575.881 866.575 575.572 866.799 575.256C867.991 573.564 869.255 571.769 870.621 569.982C871.169 569.259 871.956 567.99 872.909 566.36C873.235 565.799 873.583 565.197 873.938 564.583C874.548 563.53 875.17 562.444 875.737 561.502C876.555 560.14 877.595 558.472 878.567 557.52C878.822 557.269 879.33 556.805 880.056 556.481C880.851 556.129 882.511 555.742 884.084 556.893C885.329 557.804 885.632 559.099 885.717 559.532C885.831 560.111 885.837 560.67 885.821 561.096C885.239 576.587 881.913 591.571 878.668 606.199L878.618 606.442C875.332 621.258 872.139 635.719 871.579 650.614C870.828 670.618 871.549 691.334 874.09 711.129C875.787 724.346 878.046 739.774 883.128 751.226C884.778 754.935 885.326 758.641 885.757 761.545C885.871 762.312 885.977 763.022 886.089 763.66C886.658 766.808 887.469 769.118 890.082 771.331C900.827 780.448 914.876 789.338 929.032 792.689C942.977 795.992 956.808 793.914 968.186 781.444C995.868 751.115 1013.51 725.693 1014.98 686.368L1016.01 658.952L1019.52 659.08C1020.12 625.468 1029.29 592.956 1044.49 560.156C1049.7 548.905 1056.27 543.7 1064.74 536.974L1065.45 536.415C1070.87 532.104 1075.11 526.46 1079.73 520.291L1080.05 519.858C1084.7 513.667 1089.75 507.001 1096.58 501.862C1113.42 489.201 1137.67 481.863 1158.31 482.638C1160.6 482.724 1163.09 482.75 1165.68 482.779C1170.34 482.833 1175.32 482.892 1180.03 483.295C1187.54 483.939 1195.27 485.487 1202.03 489.588C1206 491.995 1208.58 495.527 1210.47 499.049C1211.83 501.58 1212.96 504.382 1213.96 506.859C1214.31 507.721 1214.64 508.542 1214.97 509.302C1215.76 511.189 1216.61 512.995 1217.47 514.76C1217.53 514.581 1217.65 514.25 1217.87 513.896C1218 513.674 1218.37 513.129 1219.06 512.691C1219.92 512.149 1221.15 511.878 1222.4 512.344C1223.41 512.722 1223.96 513.411 1224.16 513.694C1224.4 514.028 1224.53 514.327 1224.59 514.477C1224.71 514.787 1224.77 515.05 1224.8 515.149C1224.88 515.522 1224.9 515.911 1224.91 516.063C1224.94 516.525 1224.96 517.19 1224.97 517.983C1225.01 520.284 1225 524.183 1224.94 528.976C1228.3 535.509 1231.4 542.477 1233 550.93C1235.15 562.235 1235.07 575.412 1235.01 587.449C1235.01 588.74 1235 590.023 1234.99 591.284C1236.77 600.022 1238.57 608.773 1240.37 617.528C1242.74 628.996 1245.1 640.475 1247.4 651.967C1257.38 632.977 1266.4 613.043 1275.09 592.963C1280.67 574.104 1286.64 555.349 1292.87 536.642C1295.02 530.173 1298.35 524.035 1301.48 518.266C1301.65 517.963 1301.81 517.663 1301.97 517.364C1305.06 511.666 1307.9 506.309 1309.68 500.837C1310.15 497.601 1310.47 494.347 1310.59 491.071C1310.6 490.864 1310.61 490.672 1310.62 490.513C1310.62 490.438 1310.63 490.337 1310.64 490.228C1310.65 490.171 1310.66 490.085 1310.68 489.98C1310.69 489.931 1310.73 489.649 1310.85 489.314L1310.86 489.307C1310.9 489.188 1311.08 488.673 1311.53 488.154C1311.76 487.872 1312.27 487.355 1313.1 487.05C1314.06 486.697 1315.1 486.759 1315.98 487.162C1316.74 487.511 1317.19 488.019 1317.4 488.291C1317.62 488.587 1317.76 488.852 1317.83 489.006C1317.97 489.313 1318.04 489.569 1318.07 489.668C1318.15 490.015 1318.18 490.325 1318.18 490.348C1318.19 490.522 1318.2 490.707 1318.2 490.843C1318.22 491.433 1318.21 492.49 1318.17 493.7C1318.14 494.922 1318.07 496.369 1317.95 497.724C1317.84 499.003 1317.66 500.477 1317.33 501.608C1317.24 501.93 1317.14 502.247 1317.04 502.564C1314.33 520.206 1307.25 537.009 1300.46 552.795C1297.77 559.052 1295.08 565.373 1292.38 571.731C1289.02 579.635 1285.64 587.594 1282.19 595.548C1273.95 623.429 1266.55 651.5 1260.38 679.927C1259.05 686.05 1257.6 692.108 1256.08 698.122C1264.15 745.469 1260.44 794.296 1252.59 841.563C1260.89 839.926 1270.2 835.493 1279.04 829.524C1290.03 822.11 1299.7 812.729 1305.12 804.672C1327.1 771.969 1340.8 737.108 1354.92 700.534C1357.08 684.789 1360.22 669.228 1364.4 654.054C1368.27 640.004 1371.79 625.839 1375.33 611.64C1383.04 580.666 1390.78 549.542 1402.2 519.157C1407.16 505.929 1413.09 493.35 1419.51 481.004C1419.47 481.078 1419.62 480.725 1419.76 479.76C1419.78 479.625 1419.8 479.489 1419.81 479.35C1419.88 477.805 1419.94 476.856 1420 476.42C1420 476.363 1420.03 476.168 1420.08 475.948C1420.09 475.917 1420.18 475.494 1420.43 475.024L1420.44 475.01C1420.52 474.858 1421.01 473.951 1422.11 473.415C1422.84 473.065 1423.77 472.907 1424.76 473.175C1425.65 473.419 1426.23 473.928 1426.54 474.265C1427.08 474.851 1427.28 475.459 1427.33 475.597L1427.33 475.604C1427.41 475.83 1427.45 476.016 1427.46 476.108C1427.5 476.302 1427.52 476.457 1427.52 476.521C1427.54 476.665 1427.54 476.794 1427.54 476.862C1427.55 477.138 1427.53 477.507 1427.51 477.873C1427.49 478.426 1427.43 479.164 1427.34 479.95C1427.34 480.029 1427.34 480.112 1427.33 480.195C1426.27 508.478 1416.74 543.208 1406.87 569.178C1399.73 587.964 1393.88 607.372 1387.97 626.971L1387.49 628.554C1381.44 648.641 1375.28 668.91 1367.62 688.609C1366.09 692.558 1364.57 696.498 1363.05 700.428C1362.8 701.098 1362.54 701.764 1362.28 702.434C1358.89 727.617 1358.06 753.292 1359.6 778.569C1360.51 793.516 1365.46 800.939 1372.43 804.338C1379.84 807.946 1390.72 807.675 1404.92 804.207C1427.58 798.67 1449.81 783.01 1469.33 763.367C1483.4 749.214 1495.9 733.147 1505.98 717.703C1504.63 714.598 1503.35 711.458 1502.14 708.287C1489.62 675.503 1484.52 639.25 1485.65 609.007C1485.83 604.403 1485.91 599.785 1486 595.164C1486.43 572.271 1486.86 549.258 1497.82 527.221C1498.21 526.436 1498.77 525.109 1499.52 523.31C1500.13 521.872 1500.86 520.128 1501.74 518.123C1503.61 513.81 1506.01 508.618 1508.77 503.825C1511.49 499.11 1514.75 494.434 1518.46 491.44C1520.34 489.921 1522.53 488.678 1524.98 488.223C1527.53 487.748 1530.1 488.17 1532.54 489.567C1538.06 492.742 1541.98 498.292 1544.87 504.547C1547.78 510.84 1549.83 518.252 1551.36 525.695C1552.9 533.156 1553.96 540.806 1554.83 547.616C1555 548.966 1555.16 550.279 1555.32 551.546C1555.98 556.754 1556.54 561.222 1557.18 564.622C1566.2 612.805 1545.47 663.594 1523.07 703.984C1520.49 708.64 1517.64 713.456 1514.53 718.349C1526.69 744.784 1544.17 767.435 1567.51 780.676C1587.12 791.795 1605.22 791.493 1621.12 784.245C1637.21 776.906 1651.37 762.298 1662.36 744.34C1695.49 690.219 1718.14 640.65 1700.45 579.116C1699.48 575.73 1698.61 572.526 1697.78 569.482C1696.74 565.679 1695.77 562.128 1694.76 558.783C1680.87 558.265 1666.81 554.804 1652.73 547.695C1651.14 546.895 1647.83 544.649 1644.22 541.867C1640.54 539.021 1636.25 535.387 1632.71 531.664C1630.95 529.805 1629.31 527.855 1628.03 525.919C1626.77 524.03 1625.68 521.905 1625.31 519.716C1624.9 517.383 1625.31 514.827 1627.22 512.755C1628.98 510.857 1631.55 509.863 1634.4 509.362C1650.62 506.517 1665.71 510.957 1678.47 520.52C1690.54 529.562 1696.24 539.683 1700.29 551.285C1722.59 550.862 1744.67 542.475 1766.2 529.077C1775.67 523.188 1784.28 517.131 1792.06 510.609C1793.23 508.663 1794.4 506.725 1795.57 504.791C1799.62 498.106 1803.63 491.484 1807.42 484.861C1811.38 477.949 1816.9 471.198 1822.21 464.697C1823.23 463.448 1824.24 462.206 1825.24 460.978C1829.55 455.636 1833.53 450.432 1836.55 445.188C1837.04 444.093 1837.56 442.957 1838.04 441.918C1838.75 440.367 1839.42 438.938 1839.86 438.041C1840.03 437.696 1840.29 437.166 1840.5 436.831C1840.52 436.798 1840.56 436.746 1840.6 436.684C1840.65 436.621 1840.7 436.548 1840.77 436.471C1840.83 436.39 1840.95 436.244 1841.13 436.08C1841.24 435.975 1841.67 435.572 1842.37 435.308C1843.22 434.985 1844.98 434.764 1846.38 436.168C1847.34 437.133 1847.45 438.262 1847.47 438.482L1847.47 438.489C1847.52 439.084 1847.42 439.563 1847.41 439.631L1847.4 439.634C1847.32 440.02 1847.17 440.404 1847.14 440.493C1846.1 443.255 1844.79 445.955 1843.29 448.594C1842.45 450.473 1841.77 452.059 1841.56 452.629C1831.83 479.525 1817.25 499.074 1797.91 515.537C1784.93 537.105 1772.68 558.606 1766.67 582.856C1759.9 610.165 1758.68 636.623 1757.61 665.15C1757.32 672.981 1759.3 683.445 1763.23 694.941C1767.13 706.38 1772.88 718.59 1779.9 729.855C1786.93 741.131 1795.16 751.343 1803.97 758.87C1812.82 766.421 1821.99 771.054 1830.95 771.711C1854.57 773.444 1870.8 759.541 1883.12 739.556C1887.26 732.833 1890.9 725.54 1894.16 718.089C1894.32 714.622 1894.62 711.175 1894.91 707.863L1894.97 707.099C1895.31 703.242 1895.63 699.596 1895.75 696.176C1896.28 682.284 1898.17 668.699 1900.03 655.386L1900.03 655.329C1901.9 641.97 1903.72 628.882 1904.22 615.657C1904.36 611.86 1904.43 607.955 1904.5 603.998C1904.65 595.89 1904.8 587.567 1905.58 579.525C1905.81 577.121 1906.51 574.678 1908.29 573.08C1910.41 571.178 1913 571.335 1914.88 572.187C1916.6 572.973 1917.99 574.392 1918.96 575.848C1919.96 577.346 1920.73 579.187 1921.01 581.161C1921.49 584.509 1921.28 587.877 1921.05 590.877C1921.02 591.272 1920.99 591.656 1920.96 592.036C1920.74 594.686 1920.55 597.031 1920.68 599.312C1920.88 603.235 1921.17 607.376 1921.48 611.65C1922.08 620.201 1922.71 629.289 1922.8 638.214C1922.94 651.686 1921.86 665.402 1917.42 677.6C1916.27 680.743 1915.09 684.1 1913.85 687.606C1910.34 697.574 1906.39 708.774 1901.64 719.801C1901.62 720.132 1901.61 720.464 1901.6 720.792C1901.36 728.957 1902.06 736.405 1905.04 742.482C1906.56 745.567 1908.18 750 1909.92 754.743C1910.06 755.133 1910.2 755.524 1910.35 755.918C1912.29 761.212 1914.43 766.982 1916.91 772.391C1919.41 777.827 1922.14 782.682 1925.17 786.228C1928.21 789.785 1931.21 791.631 1934.22 791.914C1939.83 792.438 1941.84 791.245 1943.14 789.806C1943.96 788.901 1944.71 787.641 1945.58 785.809C1946.02 784.908 1946.45 783.931 1946.94 782.832C1947.42 781.748 1947.95 780.564 1948.54 779.321C1955.59 764.443 1965.14 750.848 1974.48 737.562C1975.16 736.598 1975.84 735.635 1976.51 734.675C1986.56 720.358 1996.15 706.282 2002.56 690.722C2003.94 687.361 2005.31 684.042 2006.68 680.748C2022.26 643.066 2036.17 609.437 2043.37 568.246C2046.03 553.037 2047.85 537.695 2049.14 522.264L2059.31 251.339ZM1903.37 694.552C1904.5 691.423 1905.59 688.342 1906.65 685.346C1907.91 681.765 1909.13 678.304 1910.33 675.015C1914.32 664.073 1915.4 651.417 1915.26 638.293C1915.17 629.576 1914.56 620.923 1913.97 612.515C1913.66 608.174 1913.36 603.896 1913.14 599.712C1912.99 596.89 1913.23 593.992 1913.44 591.395C1913.47 591.019 1913.5 590.654 1913.52 590.292C1913.76 587.288 1913.89 584.669 1913.54 582.232C1913.47 581.712 1913.29 581.177 1913.05 580.681C1912.33 588.299 1912.2 595.951 1912.06 603.726C1911.98 607.76 1911.91 611.827 1911.76 615.94C1911.25 629.549 1909.38 642.953 1907.53 656.188L1907.5 656.425C1905.72 669.168 1903.97 681.761 1903.37 694.552ZM1819.23 480.641C1818.22 482.17 1817.17 483.671 1816.1 485.145C1817.08 483.641 1818.13 482.144 1819.23 480.641ZM1692.17 551.082C1688.56 541.576 1683.63 533.814 1673.95 526.557C1662.65 518.091 1649.63 514.352 1635.7 516.796C1633.6 517.162 1632.91 517.718 1632.76 517.878C1632.73 517.911 1632.72 517.926 1632.72 517.934L1632.72 517.937C1632.71 517.967 1632.69 518.11 1632.74 518.433C1632.86 519.139 1633.32 520.247 1634.31 521.746C1635.28 523.198 1636.6 524.799 1638.19 526.471C1641.36 529.814 1645.32 533.183 1648.83 535.89C1652.41 538.66 1655.24 540.51 1656.12 540.958C1668.15 547.028 1680.19 550.251 1692.17 551.082ZM1510.89 709.922C1512.87 706.666 1514.74 703.455 1516.48 700.323C1538.75 660.163 1558.26 611.416 1549.76 566.012C1549.08 562.366 1548.48 557.59 1547.82 552.359C1547.67 551.119 1547.51 549.855 1547.34 548.573C1546.48 541.794 1545.45 534.382 1543.97 527.218C1542.49 520.034 1540.59 513.258 1538.02 507.71C1535.44 502.12 1532.36 498.176 1528.78 496.108C1527.86 495.583 1527.1 495.502 1526.36 495.64C1525.53 495.794 1524.47 496.283 1523.2 497.311C1520.61 499.407 1517.91 503.089 1515.31 507.593C1512.76 512.024 1510.49 516.915 1508.65 521.134C1507.94 522.769 1507.27 524.367 1506.66 525.798C1505.79 527.89 1505.06 529.622 1504.58 530.582C1494.44 550.962 1494.02 571.983 1493.57 594.825C1493.47 599.564 1493.38 604.381 1493.19 609.29C1492.09 638.575 1497.05 673.815 1509.18 705.599C1509.74 707.047 1510.31 708.488 1510.89 709.922ZM1374.97 643.785C1376.76 638.001 1378.52 632.192 1380.27 626.376L1380.78 624.692C1386.66 605.172 1392.58 585.536 1399.82 566.497C1407.01 547.581 1413.92 524.15 1417.45 502.265C1414.5 508.67 1411.75 515.162 1409.26 521.808C1398 551.784 1390.44 582.194 1382.78 612.947C1380.24 623.188 1377.68 633.471 1374.97 643.785ZM1244.82 842.249C1251.81 800.805 1255.6 758.49 1251.12 717.197C1251.02 717.574 1250.92 717.948 1250.82 718.326C1250.16 720.819 1249.5 723.305 1248.85 725.791C1244.86 740.92 1241.07 755.992 1238.38 771.566C1236.13 784.537 1235.75 797.65 1235.36 811.068C1235.26 814.39 1235.17 817.735 1235.04 821.102C1234.97 823.044 1234.87 824.781 1234.79 826.378C1234.68 828.511 1234.58 830.395 1234.55 832.202C1234.51 835.311 1234.72 837.328 1235.25 838.696C1235.68 839.818 1236.33 840.586 1237.75 841.183C1239.17 841.78 1241.37 842.199 1244.82 842.249ZM1252.74 679.527C1252.83 679.126 1252.92 678.726 1253 678.329C1255.84 665.248 1258.94 652.249 1262.26 639.314C1258.6 646.792 1254.83 654.171 1250.92 661.394C1250.51 662.141 1250.11 662.892 1249.71 663.64C1250.74 668.934 1251.76 674.227 1252.74 679.527ZM1244.08 674.317C1245.57 682.135 1247.01 689.97 1248.38 697.828C1246.81 704.01 1245.18 710.167 1243.54 716.346C1242.87 718.85 1242.21 721.355 1241.55 723.871C1237.56 739.026 1233.69 754.368 1230.94 770.279C1228.59 783.835 1228.2 797.627 1227.81 811.09C1227.71 814.356 1227.62 817.599 1227.5 820.819C1227.44 822.47 1227.35 824.128 1227.27 825.726C1227.15 828.028 1227.03 830.213 1227.01 832.096C1226.96 835.349 1227.13 838.598 1228.2 841.395C1229.37 844.443 1231.52 846.748 1234.83 848.141C1237.21 849.14 1240.1 849.634 1243.52 849.762C1241.21 862.734 1238.62 875.605 1235.9 888.324C1233.09 901.47 1229.37 914.287 1225.62 927.239C1225.18 928.741 1224.75 930.246 1224.31 931.755C1220.14 946.197 1216.06 960.843 1213.4 976.011C1208.78 1002.34 1196.83 1030.22 1184.76 1054.58C1184.14 1055.82 1183.52 1057.07 1182.91 1058.31C1152.55 1119.54 1117.97 1189.32 1065.54 1232.57C1030.79 1261.23 989.581 1275.52 945.384 1270.93C944.643 1270.85 943.884 1270.77 943.105 1270.69C926.721 1269 902.097 1266.45 880.077 1259.81C856.699 1252.75 837.997 1241.59 833.596 1223.68C833.229 1222.18 832.856 1220.67 832.475 1219.13C829.156 1205.69 825.456 1190.72 823.381 1175.7C821.073 1158.95 820.855 1142.55 825.247 1128.54C832.971 1103.9 844.6 1079.12 855.795 1055.26C856.779 1053.16 857.764 1051.07 858.737 1048.99C863.305 1039.23 870.26 1026.24 876.697 1018.08C887.823 1003.97 904.135 993.32 922.141 984.633C937.839 977.061 954.533 971.115 969.857 965.657C972.111 964.851 974.338 964.059 976.527 963.272C985.206 960.155 993.672 955.157 1001.7 949.902C1005.07 947.699 1008.31 945.491 1011.47 943.333C1016.03 940.224 1020.43 937.225 1024.84 934.499C1041.08 924.462 1058.03 911.541 1072.18 898.836C1078.27 893.372 1084.68 888.32 1091.2 883.181C1092.28 882.327 1093.37 881.469 1094.47 880.604C1102.06 874.6 1109.72 868.397 1116.77 861.395C1121.67 856.546 1126.14 851.557 1130.52 846.689C1131.36 845.75 1132.19 844.819 1133.03 843.891C1138.25 838.111 1143.44 832.514 1149.34 827.251C1167.75 810.832 1187.74 786.163 1199.33 764.286C1207.78 748.332 1215.66 732.058 1223.52 715.828C1224.03 714.794 1224.52 713.759 1225.03 712.725C1231.27 699.84 1237.52 686.997 1244.08 674.317ZM1217.13 530.325C1216.54 529.211 1215.93 528.079 1215.32 526.934C1212.85 522.345 1210.24 517.494 1208.02 512.242C1207.6 511.248 1207.21 510.279 1206.82 509.332C1205.87 506.978 1204.97 504.758 1203.82 502.616C1202.26 499.715 1200.49 497.474 1198.12 496.041C1192.79 492.813 1186.4 491.413 1179.39 490.814C1174.9 490.427 1170.51 490.382 1166.08 490.333C1163.42 490.305 1160.74 490.28 1158.02 490.178C1139.07 489.466 1116.53 496.299 1101.12 507.895C1095.27 512.293 1090.8 518.102 1086.09 524.384C1085.91 524.627 1085.73 524.873 1085.54 525.115C1081.1 531.049 1076.35 537.394 1070.14 542.326L1069.73 542.643C1061.12 549.485 1055.79 553.714 1051.34 563.328C1027.77 614.184 1019.32 663.584 1035.07 717.51C1035.89 720.301 1036.77 723.15 1037.75 726.007C1048.74 746.289 1064.54 762.078 1082.93 770.754C1084.43 771.282 1085.94 771.769 1087.45 772.204C1095.99 774.658 1104.01 775.215 1110.54 772.251C1119.17 768.336 1127.43 760.793 1135.59 752.145C1138.47 749.085 1141.38 745.85 1144.26 742.632C1149.29 737.025 1154.27 731.477 1158.98 727.049C1159.46 726.606 1159.93 726.163 1160.4 725.724C1185.65 702.038 1205.46 683.449 1206.72 650.054C1207.64 625.345 1210.54 603.07 1214.55 579.152C1216.14 569.615 1216.97 549.935 1217.29 534.872C1217.3 534.363 1217.31 533.858 1217.32 533.36C1217.24 532.353 1217.18 531.342 1217.13 530.325ZM1223.16 570.453C1222.83 574.287 1222.44 577.697 1221.99 580.398C1218.01 604.139 1215.17 626.069 1214.26 650.337C1212.88 686.868 1190.93 707.443 1166.29 730.536C1165.58 731.208 1164.87 731.876 1164.15 732.551C1159.62 736.794 1155.08 741.871 1150.24 747.266C1147.31 750.539 1144.28 753.928 1141.08 757.319C1133.36 765.501 1124.87 773.488 1115.54 778.219C1129.53 778.262 1144.31 774.422 1159.27 765.798C1198.22 743.348 1215.87 697.525 1224.13 654.219C1227.45 636.814 1227.85 617.704 1227.5 599.678C1227.45 597.154 1227.44 594.59 1227.44 592.004C1225.99 584.837 1224.56 577.656 1223.16 570.453ZM793.388 597.677C791.128 585.968 787.406 574.612 781.809 563.725C779.976 560.156 775.374 555.834 769.67 552.6C763.926 549.341 758.115 547.779 754.157 548.502C753.302 548.659 752.301 549.297 751.288 551.037C750.274 552.789 749.51 555.259 749.078 558.105C748.652 560.913 748.59 563.867 748.825 566.439C749.068 569.113 749.602 570.983 750.098 571.866C758.497 586.951 774.771 595.003 793.388 597.677ZM635.108 701.335C634.652 697.818 634.16 694.326 633.633 690.863C633.476 693.217 633.348 695.338 633.258 697.03C633.899 698.451 634.513 699.889 635.108 701.335ZM625.63 698.502C618.185 682.616 607.855 669.788 593.46 663.966C566.266 652.966 541.46 643.517 512.731 645.425C506.453 645.842 499.261 650.156 491.793 656.214C488.145 659.173 484.6 662.4 481.224 665.523C480.712 665.995 480.204 666.467 479.699 666.935C476.91 669.522 474.223 672.011 471.802 674.053C456.431 687.01 447.24 701.85 438.352 720.174C423.662 750.47 421.44 791.738 428.43 824.948C430.839 836.387 436.643 846.115 443.003 856.174C443.467 856.901 443.93 857.632 444.393 858.363C450.257 867.591 456.413 877.279 459.657 888.399C460.135 890.036 461.505 892.776 463.661 896.183C465.763 899.509 468.448 903.211 471.333 906.706C474.225 910.216 477.256 913.441 480.039 915.852C482.978 918.401 485.119 919.58 486.274 919.794C513.509 924.882 539.664 927.178 565.002 917.427C566.918 916.687 569.803 914.961 573.281 912.414C576.689 909.919 580.453 906.802 584.085 903.48C587.712 900.162 591.165 896.678 593.966 893.473C596.826 890.201 598.814 887.433 599.724 885.508C609.429 865.021 614.595 847.49 615.461 824.425C616.264 803.049 618.419 782.15 620.556 761.424L620.557 761.39C622.696 740.635 624.82 720.052 625.608 699.094C625.614 698.91 625.622 698.714 625.63 698.502ZM2275.36 827.731C2296.08 822.28 2317.72 808.214 2335.31 796.224C2348.93 786.938 2357.11 773.458 2366 758.807C2366.91 757.298 2367.84 755.777 2368.77 754.245C2382.56 731.726 2397.85 702.573 2401.88 677.109C2404.45 660.854 2405.51 647.035 2396.21 635.733C2390.83 629.207 2385.01 623.53 2378.59 620.265C2372.34 617.085 2365.45 616.154 2357.47 619.226C2354.28 620.454 2351.38 622.327 2348.1 624.507L2347.7 624.775C2344.61 626.826 2341.17 629.113 2337.22 630.799C2326.62 635.325 2316.91 639.721 2307.24 645.711C2283.94 660.134 2267.85 672.434 2260.62 697.348C2253.82 720.749 2252.42 741.623 2251.49 766.498C2251.14 775.832 2252.82 782.631 2255.48 789.417C2256.73 792.597 2258.18 795.751 2259.79 799.24L2260.22 800.17C2261.99 804 2263.89 808.183 2265.75 812.983C2267.8 818.27 2271.2 823.234 2275.36 827.731Z" fill="white" stroke="black" stroke-width="1.48" stroke-linecap="round"/>
<path fill-rule="evenodd" clip-rule="evenodd" d="M2285.58 361.892C2287.58 362.473 2288.73 364.567 2288.15 366.568C2287.34 369.358 2285.91 371.562 2283.77 373.026C2281.69 374.443 2279.36 374.884 2277.26 374.971C2275.18 375.063 2272.98 374.818 2271.01 374.578C2270.76 374.55 2270.51 374.518 2270.27 374.49C2268.48 374.271 2266.82 374.066 2265.17 374.004C2256.2 373.667 2247.26 373.999 2238.16 374.341L2238.09 374.342C2229.05 374.679 2219.86 375.024 2210.6 374.676L2015.22 367.339C2013.14 367.261 2011.51 365.509 2011.59 363.428C2011.67 361.343 2013.42 359.721 2015.5 359.799L2210.88 367.136C2219.84 367.473 2228.78 367.14 2237.88 366.799L2237.94 366.797C2246.97 366.461 2256.18 366.115 2265.45 366.464C2267.45 366.539 2269.45 366.784 2271.2 367C2271.45 367.032 2271.68 367.06 2271.91 367.087C2273.93 367.333 2275.55 367.492 2276.93 367.435C2278.29 367.376 2279.05 367.114 2279.51 366.795C2279.91 366.523 2280.47 365.959 2280.9 364.465C2281.48 362.464 2283.58 361.311 2285.58 361.892Z" fill="white" stroke="black" stroke-width="1.48" stroke-linecap="round"/>
</g>
<g filter="url(#filter1_d_266_297)">
<path d="M509.978 532.555H321.48L346.832 510.475H509.978V532.555Z" fill="black"/>
<path d="M645.598 538.279C558.505 538.279 506.167 483.897 506.167 386.582C506.167 289.266 558.505 234.884 645.598 234.884C732.283 234.884 784.621 289.266 784.621 386.582C784.621 483.897 732.283 538.279 645.598 538.279ZM645.598 516.199C717.563 516.199 759.27 470.404 759.27 386.582C759.27 302.759 717.563 256.964 645.598 256.964C573.225 256.964 531.518 302.759 531.518 386.582C531.518 470.404 573.225 516.199 645.598 516.199Z" fill="black"/>
<path d="M842.769 532.555H817.418V240.608H923.729C1003.05 240.608 1029.22 277.408 1029.22 322.795C1029.22 356.324 1018.18 384.946 976.067 397.622V401.71C1012.87 411.115 1024.32 435.239 1033.31 471.222L1048.85 532.555H1022.68L1007.96 474.084C1000.6 445.462 991.196 413.977 930.271 413.977H842.769V532.555ZM842.769 262.688V391.897H927.818C986.289 391.897 1003.87 358.777 1003.87 326.884C1003.87 294.173 986.289 262.688 927.818 262.688H842.769Z" fill="black"/>
<path d="M1147.98 262.688H1046.99V240.608H1274.33V262.688H1173.33H1147.98Z" fill="black"/>
<path d="M1322.34 532.555H1296.98V240.608H1322.34V375.542H1513.29V240.608H1538.64L1513.29 397.622H1322.34V532.555Z" fill="black"/>
<path d="M1605.04 532.555H1579.69V240.608H1605.04V532.555Z" fill="black"/>
<path d="M1777.23 538.279C1690.14 538.279 1637.8 483.897 1637.8 386.582C1637.8 289.266 1690.14 234.884 1777.23 234.884C1863.91 234.884 1916.25 289.266 1916.25 386.582C1916.25 420.308 1909.97 448.878 1898.14 471.815C1890.23 487.162 1879.84 499.988 1867.19 510.148C1844.21 528.616 1813.77 538.279 1777.23 538.279ZM1777.23 516.199C1849.19 516.199 1890.9 470.404 1890.9 386.582C1890.9 302.759 1849.19 256.964 1777.23 256.964C1704.86 256.964 1663.15 302.759 1663.15 386.582C1663.15 470.404 1704.86 516.199 1777.23 516.199Z" fill="black"/>
<path d="M1974.4 532.555H1949.05V240.608H1974.4V532.555Z" fill="black"/>
<path d="M2212.01 455.684C2212.01 367.773 2019.01 433.604 2019.01 315.435C2030.9 315.435 2032.38 315.435 2044.37 317.07C2044.37 409.479 2237.36 343.239 2237.36 457.728C2227.96 455.684 2227.96 460.703 2212.01 455.684Z" fill="black"/>
</g>
<path fill-rule="evenodd" clip-rule="evenodd" d="M1907.95 449.948C1914.85 446.537 1923.18 445.517 1930.22 449.708C1935.84 453.053 1937.05 458.735 1936.19 463.811C1935.99 465.056 1935.65 466.301 1935.22 467.519C1935.11 468.466 1934.86 469.408 1934.43 470.295C1934.09 470.999 1933.61 471.683 1932.99 472.272C1931.94 474.067 1930.72 475.728 1929.43 477.159C1927.83 478.938 1925.99 480.511 1924.05 481.582C1922.17 482.621 1919.77 483.407 1917.27 482.875C1916.3 482.665 1915.42 482.281 1914.66 481.754C1914.59 481.785 1914.53 481.821 1914.46 481.849C1912.91 482.602 1910.61 483.138 1908.47 481.771C1907.69 481.266 1907.12 480.621 1906.72 479.946C1904.38 480.983 1901.92 481.589 1899.64 481.59C1898.14 481.587 1896.46 481.32 1894.96 480.493C1892.5 480.17 1890.02 479.22 1887.54 477.647C1883.7 475.208 1882.39 470.972 1882.41 467.129C1882.42 463.26 1883.71 459.14 1885.84 455.709C1887.96 452.289 1891.16 449.159 1895.3 447.838C1899.32 446.551 1903.71 447.146 1907.95 449.948ZM1900.67 454.869C1899.51 454.629 1898.48 454.742 1897.6 455.026C1895.67 455.64 1893.74 457.278 1892.25 459.684C1890.77 462.078 1889.96 464.842 1889.95 467.152C1889.95 469.251 1890.56 470.459 1891.32 471.088C1892.23 464.806 1895.9 459.107 1900.67 454.869ZM1898.71 472.781C1899.21 467.851 1902.51 462.787 1907.31 459.181C1907.62 459.498 1907.9 459.811 1908.15 460.115C1907.84 461.149 1907.44 462.266 1906.94 463.414C1905.35 467.126 1903.08 470.333 1900.52 471.943C1899.92 472.314 1899.33 472.593 1898.71 472.781ZM1923.17 472.798C1923.22 472.754 1923.25 472.71 1923.3 472.666C1923.29 472.662 1923.28 472.654 1923.26 472.65C1923.23 472.698 1923.2 472.75 1923.17 472.798ZM1926.74 465.951C1926.97 466.065 1927.18 466.156 1927.38 466.232C1927.45 466.261 1927.52 466.286 1927.58 466.311C1927.64 466.189 1927.69 466.062 1927.75 465.94C1927.73 465.743 1927.71 465.523 1927.68 465.28C1927.62 464.92 1927.54 464.535 1927.43 464.138C1927.23 464.727 1927.01 465.293 1926.79 465.832C1926.78 465.873 1926.76 465.914 1926.74 465.951ZM1920.44 461.248C1920.72 460.364 1920.86 459.671 1920.9 459.174C1920.44 459.176 1920.08 459.215 1919.81 459.269C1919.77 459.301 1919.73 459.334 1919.69 459.37C1919.49 459.536 1919.28 459.729 1919.08 459.947C1919.55 460.407 1920 460.843 1920.44 461.248Z" fill="white" stroke="black" stroke-width="1.48" stroke-linecap="round"/>
</g>
<defs>
<filter id="filter0_d_266_297" x="322.859" y="234.551" width="1945.51" height="333.025" filterUnits="userSpaceOnUse" color-interpolation-filters="sRGB">
<feFlood flood-opacity="0" result="BackgroundImageFix"/>
<feColorMatrix in="SourceAlpha" type="matrix" values="0 0 0 0 0 0 0 0 0 0 0 0 0 0 0 0 0 0 127 0" result="hardAlpha"/>
<feOffset dx="14.8148" dy="14.8148"/>
<feGaussianBlur stdDeviation="7.40741"/>
<feComposite in2="hardAlpha" operator="out"/>
<feColorMatrix type="matrix" values="0 0 0 0 0 0 0 0 0 0 0 0 0 0 0 0 0 0 0.3 0"/>
<feBlend mode="normal" in2="BackgroundImageFix" result="effect1_dropShadow_266_297"/>
<feBlend mode="normal" in="SourceGraphic" in2="effect1_dropShadow_266_297" result="shape"/>
</filter>
<filter id="filter1_d_266_297" x="321.48" y="234.884" width="1945.51" height="333.025" filterUnits="userSpaceOnUse" color-interpolation-filters="sRGB">
<feFlood flood-opacity="0" result="BackgroundImageFix"/>
<feColorMatrix in="SourceAlpha" type="matrix" values="0 0 0 0 0 0 0 0 0 0 0 0 0 0 0 0 0 0 127 0" result="hardAlpha"/>
<feOffset dx="14.8148" dy="14.8148"/>
<feGaussianBlur stdDeviation="7.40741"/>
<feComposite in2="hardAlpha" operator="out"/>
<feColorMatrix type="matrix" values="0 0 0 0 0 0 0 0 0 0 0 0 0 0 0 0 0 0 0.3 0"/>
<feBlend mode="normal" in2="BackgroundImageFix" result="effect1_dropShadow_266_297"/>
<feBlend mode="normal" in="SourceGraphic" in2="effect1_dropShadow_266_297" result="shape"/>
</filter>
<clipPath id="clip0_266_297">
<rect width="2560" height="1406" fill="white"/>
</clipPath>
<clipPath id="clip1_266_297">
<rect width="1358.17" height="3183.95" fill="white" transform="translate(-411.035 1455.13) rotate(-87.8494)"/>
</clipPath>
</defs>
</svg>
