<svg width="360" height="844" viewBox="0 0 360 844" fill="none" xmlns="http://www.w3.org/2000/svg">
<path fill-rule="evenodd" clip-rule="evenodd" d="M283.131 186.04C281.688 185.917 280.247 185.749 278.817 185.57C278.277 185.503 277.739 185.434 277.203 185.365C274.925 185.073 272.681 184.785 270.45 184.63C263.901 184.177 256.937 183.423 250.451 182.256C229.152 178.422 207.58 175.776 186.019 174.626C182.562 174.441 179.129 173.834 175.767 173.24C175.431 173.18 175.095 173.121 174.76 173.062C171.051 172.411 167.42 171.826 163.78 171.826C163.628 171.826 163.429 171.813 163.229 171.747C163.029 171.681 162.703 171.518 162.526 171.138C162.349 170.759 162.433 170.409 162.506 170.223C162.58 170.035 162.688 169.886 162.769 169.787C163.074 169.416 163.619 169.012 164.101 168.681C164.93 168.111 165.962 167.503 166.434 167.225C166.541 167.162 166.619 167.116 166.66 167.091C170.498 164.739 174.765 163.232 178.921 161.772L179.014 161.739C183.172 160.277 187.216 158.856 190.841 156.681C192.458 155.711 194.247 154.934 196.005 154.2C196.249 154.098 196.492 153.997 196.735 153.896C198.259 153.263 199.746 152.645 201.144 151.926C202.314 151.325 203.452 150.651 204.621 149.959C204.98 149.746 205.342 149.532 205.709 149.317C207.25 148.416 208.853 147.525 210.555 146.845C212.67 145.998 214.769 145.014 216.904 144.008L217.089 143.921C219.156 142.947 221.257 141.957 223.395 141.084C227.788 139.291 232.388 137.403 236.171 134.784C237.91 133.581 239.952 133.072 241.777 132.618C241.89 132.59 242.002 132.562 242.113 132.534C244.095 132.037 245.803 131.555 247.146 130.436C248.483 129.322 250.297 128.492 252.003 127.735C252.133 127.677 252.262 127.62 252.391 127.563C254.013 126.845 255.536 126.171 256.744 125.338C256.889 125.238 257.047 125.125 257.214 125.004C247.116 125.096 237.127 126.592 227.112 128.311C225.332 128.617 223.551 128.929 221.768 129.242C213.218 130.743 204.632 132.25 196.005 133.001C193.489 133.219 191.042 133.937 188.479 134.689C188.225 134.764 187.97 134.839 187.713 134.914C184.91 135.731 181.966 136.526 178.869 136.526L162.62 136.526C161.974 136.526 161.33 136.525 160.687 136.524C155.086 136.514 149.6 136.505 144.102 137.238C143.554 137.311 143.051 136.926 142.978 136.379C142.905 135.831 143.29 135.328 143.837 135.255C149.478 134.503 155.102 134.514 160.685 134.524C161.33 134.525 161.975 134.526 162.62 134.526L178.869 134.526C181.649 134.526 184.344 133.812 187.153 132.994C187.413 132.918 187.673 132.841 187.935 132.764C190.466 132.021 193.106 131.245 195.831 131.008C204.363 130.266 212.847 128.777 221.395 127.277C223.185 126.963 224.977 126.648 226.774 126.34C237.125 124.563 247.579 123 258.192 123L262.208 123L262.209 125L261.754 125C261.152 125 260.548 125.222 259.888 125.606C259.425 125.876 259.01 126.175 258.568 126.495C258.348 126.654 258.122 126.817 257.879 126.984C256.509 127.93 254.813 128.679 253.237 129.376C253.095 129.438 252.954 129.501 252.814 129.563C251.063 130.34 249.513 131.067 248.427 131.972C246.685 133.424 244.536 133.989 242.599 134.474C242.522 134.494 242.444 134.513 242.367 134.532C240.45 135.012 238.738 135.439 237.31 136.429C233.315 139.194 228.504 141.159 224.151 142.936C222.062 143.788 220.003 144.758 217.923 145.739L217.757 145.817C215.629 146.82 213.477 147.83 211.298 148.701C209.741 149.324 208.244 150.151 206.718 151.044C206.373 151.246 206.025 151.452 205.674 151.66C204.495 152.358 203.287 153.073 202.058 153.705C200.582 154.464 199.012 155.116 197.493 155.747C197.252 155.847 197.013 155.946 196.776 156.045C195.018 156.78 193.349 157.508 191.87 158.396C188.069 160.676 183.862 162.155 179.767 163.594L179.584 163.658C175.397 165.13 171.332 166.573 167.705 168.797C167.639 168.837 167.531 168.901 167.393 168.982C167.035 169.194 166.474 169.525 165.907 169.885C169.015 170.055 172.088 170.563 175.106 171.092C175.438 171.151 175.77 171.209 176.102 171.268C179.485 171.866 182.797 172.451 186.126 172.629C207.778 173.783 229.433 176.44 250.805 180.287C257.2 181.438 264.088 182.185 270.588 182.635C272.883 182.794 275.2 183.091 277.482 183.384C278.012 183.452 278.54 183.52 279.065 183.586C281.873 183.937 284.626 184.234 287.328 184.234C287.457 184.234 287.649 184.236 287.82 184.276C287.869 184.288 287.958 184.311 288.057 184.359C288.137 184.398 288.353 184.514 288.501 184.772C288.69 185.103 288.658 185.461 288.533 185.718C288.434 185.921 288.293 186.038 288.238 186.082C288.117 186.176 287.996 186.228 287.953 186.246C287.892 186.272 287.831 186.293 287.78 186.309C287.677 186.343 287.561 186.374 287.451 186.402C287.23 186.458 286.973 186.515 286.776 186.558L286.765 186.56C286.668 186.582 286.588 186.599 286.528 186.613C286.51 186.617 286.497 186.62 286.487 186.623C285.157 187.148 283.894 187.885 282.586 188.691C282.369 188.825 282.151 188.961 281.93 189.098C280.828 189.782 279.681 190.495 278.49 191.091C276.252 192.21 273.818 192.867 271.408 193.367C270.243 193.609 269.07 193.816 267.923 194.018L267.802 194.04C266.612 194.25 265.45 194.456 264.324 194.696C259.342 195.757 254.434 197.087 249.495 198.426C248.187 198.781 246.877 199.136 245.563 199.487C243.154 200.13 240.717 200.814 238.26 201.503C231.266 203.465 224.115 205.471 217.021 206.71C213.247 207.369 209.445 207.699 205.699 208.023C205.411 208.048 205.124 208.073 204.837 208.098C200.797 208.451 196.823 208.827 192.917 209.626C186.189 211.002 179.358 211.707 172.583 212.391L172.114 212.438C165.481 213.107 158.906 213.77 152.446 215.031C149.686 215.569 146.943 216.203 144.179 216.842C143.704 216.952 143.228 217.062 142.752 217.171C139.511 217.917 136.24 218.646 132.928 219.198C132.529 219.264 131.222 219.484 130.091 219.686C129.523 219.788 129.011 219.883 128.683 219.952C128.654 219.958 128.626 219.964 128.601 219.969C128.459 220.048 128.295 220.092 128.121 220.092C128.089 220.092 128.014 220.092 127.929 220.079C127.894 220.073 127.788 220.057 127.665 220.002C127.608 219.977 127.129 219.766 127.069 219.186C127.014 218.652 127.38 218.35 127.424 218.313L127.426 218.311C127.521 218.232 127.609 218.188 127.64 218.174C127.715 218.138 127.782 218.116 127.81 218.107C127.932 218.068 128.108 218.029 128.273 217.994C128.633 217.919 129.17 217.819 129.739 217.717C130.882 217.513 132.199 217.292 132.599 217.225C135.846 216.684 139.066 215.967 142.304 215.222C142.776 215.113 143.249 215.004 143.723 214.895C146.486 214.256 149.267 213.613 152.063 213.068C158.615 211.789 165.27 211.118 171.876 210.452L172.382 210.401C179.169 209.716 185.903 209.019 192.516 207.667C196.549 206.842 200.629 206.458 204.663 206.106C204.945 206.081 205.227 206.057 205.509 206.032C209.272 205.706 212.991 205.383 216.677 204.74C223.663 203.52 230.67 201.554 237.636 199.6C240.112 198.906 242.584 198.212 245.047 197.555C246.344 197.208 247.643 196.856 248.944 196.504C253.89 195.162 258.866 193.813 263.907 192.74C265.073 192.492 266.268 192.28 267.455 192.07L267.565 192.051C268.72 191.847 269.867 191.644 271.002 191.409C273.347 190.922 275.585 190.307 277.596 189.302C278.696 188.751 279.751 188.097 280.851 187.413C281.078 187.273 281.306 187.131 281.537 186.988C282.056 186.668 282.587 186.348 283.131 186.04Z" fill="white"/>
<path d="M163.756 169.825C163.756 169.825 163.758 169.825 163.761 169.825M278.817 185.57C280.247 185.749 281.688 185.917 283.131 186.04C282.587 186.348 282.056 186.668 281.537 186.988C281.306 187.131 281.078 187.273 280.851 187.413C279.751 188.097 278.696 188.751 277.596 189.302C275.585 190.307 273.347 190.922 271.002 191.409C269.867 191.644 268.72 191.847 267.565 192.051L267.455 192.07C266.268 192.28 265.073 192.492 263.907 192.74C258.866 193.813 253.89 195.162 248.944 196.504C247.643 196.856 246.344 197.208 245.047 197.555C242.584 198.212 240.112 198.906 237.636 199.6C230.67 201.554 223.663 203.52 216.677 204.74C212.991 205.383 209.272 205.706 205.509 206.032C205.227 206.057 204.945 206.081 204.663 206.106C200.629 206.458 196.549 206.842 192.516 207.667C185.903 209.019 179.169 209.716 172.382 210.401L171.876 210.452C165.27 211.118 158.615 211.789 152.063 213.068C149.267 213.613 146.486 214.256 143.723 214.895C143.249 215.004 142.776 215.113 142.304 215.222C139.066 215.967 135.846 216.684 132.599 217.225C132.199 217.292 130.882 217.513 129.739 217.717C129.17 217.819 128.633 217.919 128.273 217.994C128.108 218.029 127.932 218.068 127.81 218.107C127.782 218.116 127.715 218.138 127.64 218.174C127.609 218.188 127.521 218.232 127.426 218.311L127.424 218.313C127.38 218.35 127.014 218.652 127.069 219.186C127.129 219.766 127.608 219.977 127.665 220.002C127.788 220.057 127.894 220.073 127.929 220.079C128.014 220.092 128.089 220.092 128.121 220.092C128.295 220.092 128.459 220.048 128.601 219.969C128.626 219.964 128.654 219.958 128.683 219.952C129.011 219.883 129.523 219.788 130.091 219.686C131.222 219.484 132.529 219.264 132.928 219.198C136.24 218.646 139.511 217.917 142.752 217.171C143.228 217.062 143.704 216.952 144.179 216.842C146.943 216.203 149.686 215.569 152.446 215.031C158.906 213.77 165.481 213.107 172.114 212.438L172.583 212.391C179.358 211.707 186.189 211.002 192.917 209.626C196.823 208.827 200.797 208.451 204.837 208.098C205.124 208.073 205.411 208.048 205.699 208.023C209.445 207.699 213.247 207.369 217.021 206.71C224.115 205.471 231.266 203.465 238.26 201.503C240.717 200.814 243.154 200.13 245.563 199.487C246.877 199.136 248.187 198.781 249.495 198.426C254.434 197.087 259.342 195.757 264.324 194.696C265.45 194.456 266.612 194.25 267.802 194.04L267.923 194.018C269.07 193.816 270.243 193.609 271.408 193.367C273.818 192.867 276.252 192.21 278.49 191.091C279.681 190.495 280.828 189.782 281.93 189.098C282.151 188.961 282.369 188.825 282.586 188.691C283.894 187.885 285.157 187.148 286.487 186.623C286.497 186.62 286.51 186.617 286.528 186.613C286.588 186.599 286.668 186.582 286.765 186.56L286.776 186.558C286.973 186.515 287.23 186.458 287.451 186.402C287.561 186.374 287.677 186.343 287.78 186.309C287.831 186.293 287.892 186.272 287.953 186.246C287.996 186.228 288.117 186.176 288.238 186.082C288.293 186.038 288.434 185.921 288.533 185.718C288.658 185.461 288.69 185.103 288.501 184.772C288.353 184.514 288.137 184.398 288.057 184.359C287.958 184.311 287.869 184.288 287.82 184.276C287.649 184.236 287.457 184.234 287.328 184.234C284.626 184.234 281.873 183.937 279.065 183.586C278.54 183.52 278.012 183.452 277.482 183.384C275.2 183.091 272.883 182.794 270.588 182.635C264.088 182.185 257.2 181.438 250.805 180.287C229.433 176.44 207.778 173.783 186.126 172.629C182.797 172.451 179.485 171.866 176.102 171.268C175.77 171.209 175.438 171.151 175.106 171.092C172.088 170.563 169.015 170.055 165.907 169.885C166.474 169.525 167.035 169.194 167.393 168.982C167.531 168.901 167.639 168.837 167.705 168.797C171.332 166.573 175.397 165.13 179.584 163.658L179.767 163.594C183.862 162.155 188.069 160.676 191.87 158.396C193.349 157.508 195.018 156.78 196.776 156.045C197.013 155.946 197.252 155.847 197.493 155.747C199.012 155.116 200.582 154.464 202.058 153.705C203.287 153.073 204.495 152.358 205.674 151.66C206.025 151.452 206.373 151.246 206.718 151.044C208.244 150.151 209.741 149.324 211.298 148.701C213.477 147.83 215.629 146.82 217.757 145.817L217.923 145.739C220.003 144.758 222.062 143.788 224.151 142.936C228.504 141.159 233.315 139.194 237.31 136.429C238.738 135.439 240.45 135.012 242.367 134.532C242.444 134.513 242.522 134.494 242.599 134.474C244.536 133.989 246.685 133.424 248.427 131.972C249.513 131.067 251.063 130.34 252.814 129.563C252.954 129.501 253.095 129.438 253.237 129.376C254.813 128.679 256.509 127.93 257.879 126.984C258.122 126.817 258.348 126.654 258.568 126.495C259.01 126.175 259.425 125.876 259.888 125.606C260.548 125.222 261.152 125 261.754 125L262.209 125L262.208 123L258.192 123C247.579 123 237.125 124.563 226.774 126.34C224.977 126.648 223.185 126.963 221.395 127.277C212.847 128.777 204.363 130.266 195.831 131.008C193.106 131.245 190.466 132.021 187.935 132.764C187.673 132.841 187.413 132.918 187.153 132.994C184.344 133.812 181.649 134.526 178.869 134.526L162.62 134.526C161.975 134.526 161.33 134.525 160.685 134.524C155.102 134.514 149.478 134.503 143.837 135.255C143.29 135.328 142.905 135.831 142.978 136.379C143.051 136.926 143.554 137.311 144.102 137.238C149.6 136.505 155.086 136.514 160.687 136.524C161.33 136.525 161.974 136.526 162.62 136.526L178.869 136.526C181.966 136.526 184.91 135.731 187.713 134.914C187.97 134.839 188.225 134.764 188.479 134.689C191.042 133.937 193.489 133.219 196.005 133.001C204.632 132.25 213.218 130.743 221.768 129.242C223.551 128.929 225.332 128.617 227.112 128.311C237.127 126.592 247.116 125.096 257.214 125.004C257.047 125.125 256.889 125.238 256.744 125.338C255.536 126.171 254.013 126.845 252.391 127.563C252.262 127.62 252.133 127.677 252.003 127.735C250.297 128.492 248.483 129.322 247.146 130.436C245.803 131.555 244.095 132.037 242.113 132.534C242.002 132.562 241.89 132.59 241.777 132.618C239.952 133.072 237.91 133.581 236.171 134.784C232.388 137.403 227.788 139.291 223.395 141.084C221.257 141.957 219.156 142.947 217.089 143.921L216.904 144.008C214.769 145.014 212.67 145.998 210.555 146.845C208.853 147.525 207.25 148.416 205.709 149.317C205.342 149.532 204.98 149.746 204.621 149.959C203.452 150.651 202.314 151.325 201.144 151.926C199.746 152.645 198.259 153.263 196.735 153.896C196.492 153.997 196.249 154.098 196.005 154.2C194.247 154.934 192.458 155.711 190.841 156.681C187.216 158.856 183.172 160.277 179.014 161.739L178.921 161.772C174.765 163.232 170.498 164.739 166.66 167.091C166.619 167.116 166.541 167.162 166.434 167.225C165.962 167.503 164.93 168.111 164.101 168.681C163.619 169.012 163.074 169.416 162.769 169.787C162.688 169.886 162.58 170.035 162.506 170.223C162.433 170.409 162.349 170.759 162.526 171.138C162.703 171.518 163.029 171.681 163.229 171.747C163.429 171.813 163.628 171.826 163.78 171.826C167.42 171.826 171.051 172.411 174.76 173.062C175.095 173.121 175.431 173.18 175.767 173.24C179.129 173.834 182.562 174.441 186.019 174.626C207.58 175.776 229.152 178.422 250.451 182.256C256.937 183.423 263.901 184.177 270.45 184.63C272.681 184.785 274.925 185.073 277.203 185.365C277.739 185.434 278.277 185.503 278.817 185.57Z" stroke="black" stroke-width="0.5" stroke-linecap="round"/>
<path fill-rule="evenodd" clip-rule="evenodd" d="M343.428 642.404L343.428 644.404L304.378 644.404C300.796 644.404 297.184 644.459 293.556 644.515C286.249 644.626 278.876 644.738 271.546 644.404L262.995 644.404C259.18 644.404 255.399 644.719 251.581 645.059C251.312 645.083 251.042 645.107 250.772 645.131C247.231 645.448 243.654 645.767 240.044 645.845C239.206 645.863 238.38 645.873 237.563 645.883C234.504 645.922 231.572 645.958 228.56 646.395C222.21 647.317 217.2 650.606 211.866 654.109C210.698 654.876 209.514 655.653 208.297 656.418C205.463 658.2 202.945 661.178 200.846 664.596C198.754 668.002 197.121 671.775 196.027 675.058C192.974 684.218 190.714 693.624 192.342 703.027C192.348 703.064 192.354 703.101 192.361 703.138C193.443 702.193 194.634 701.395 195.922 700.838C197.114 700.324 198.157 699.802 199.15 699.299L199.4 699.172C200.296 698.717 201.169 698.274 202.055 697.887C204.025 697.027 206.081 696.434 208.886 696.434C215.51 696.434 221.26 696.595 227.779 698.225C235.221 700.085 238.999 704.794 243.094 710.884C244.865 713.518 246.179 716.161 247.491 718.939C247.897 719.8 248.442 720.557 249.041 721.391L249.081 721.446C249.677 722.276 250.332 723.192 250.787 724.255C251.925 726.91 251.693 729.337 250.699 731.488C249.726 733.594 248.036 735.411 246.29 736.963C242.647 740.201 238.088 739.881 233.82 739.369C226.612 738.504 218.441 734.565 212.318 731.124C211.901 730.89 211.482 730.657 211.061 730.423C207.146 728.25 203.105 726.006 200.237 722.121C197.159 717.951 193.316 712.566 191.372 707.099C190.361 708.386 189.496 709.793 188.809 711.169C183.953 720.881 180.434 732.374 178.126 742.991C176.533 750.319 176.425 757.423 176.707 765.034C176.755 766.32 176.972 770.093 177.507 773.614C177.776 775.38 178.118 777.035 178.541 778.272C178.753 778.892 178.971 779.36 179.181 779.673C179.403 780.004 179.529 780.034 179.512 780.03C180.048 780.164 180.374 780.707 180.24 781.242C180.106 781.778 179.563 782.104 179.027 781.97C178.339 781.798 177.854 781.286 177.52 780.787C177.173 780.27 176.888 779.619 176.649 778.919C176.168 777.514 175.805 775.72 175.53 773.914C174.979 770.291 174.757 766.435 174.708 765.108C174.424 757.441 174.525 750.139 176.171 742.566C178.501 731.849 182.065 720.184 187.02 710.274C187.924 708.465 189.158 706.52 190.677 704.813C190.557 704.33 190.454 703.848 190.371 703.368C188.655 693.453 191.055 683.649 194.13 674.425C195.263 671.025 196.956 667.109 199.142 663.549C201.321 660.001 204.033 656.736 207.233 654.724C208.373 654.008 209.506 653.263 210.643 652.514C215.991 648.994 221.441 645.408 228.273 644.416C231.428 643.958 234.529 643.92 237.606 643.882C238.406 643.872 239.204 643.863 240.001 643.845C243.54 643.769 247.053 643.455 250.608 643.138C250.873 643.114 251.138 643.09 251.404 643.067C252.721 642.95 254.043 642.834 255.372 642.734C245.772 641.017 237.475 637.943 228.497 634.618C227.602 634.286 226.7 633.952 225.79 633.617C221.369 631.988 217.373 629.468 213.493 626.958C213.241 626.795 212.99 626.632 212.739 626.469C209.095 624.107 205.535 621.799 201.688 620.15C201.378 620.017 201.08 619.898 200.786 619.78C200.497 619.664 200.206 619.548 199.931 619.428C199.388 619.192 198.835 618.916 198.362 618.52C197.313 617.644 196.898 616.395 197.001 614.533C197.086 613.004 197.953 611.74 199.058 610.721C200.167 609.699 201.616 608.828 203.096 608.081C204.583 607.33 206.157 606.677 207.537 606.112L207.794 606.006C209.087 605.477 210.149 605.042 210.853 604.663C211.796 604.155 212.815 603.828 213.865 603.621C213.013 603.215 212.179 602.785 211.373 602.328C205.668 599.099 201.06 594.376 201.323 587.018C201.429 584.058 202.825 581.181 204.886 578.575C206.954 575.961 209.745 573.547 212.78 571.494C215.818 569.438 219.131 567.722 222.266 566.518C225.387 565.319 228.398 564.602 230.818 564.602C238.371 564.602 245.585 564.655 253.114 566.224C258.196 567.283 262.917 569.346 267.459 571.693C266.723 570.715 266.001 569.698 265.289 568.643C261.51 563.051 258.935 557.125 258.45 550.986C257.688 551.239 256.902 551.483 256.092 551.735C255.306 551.979 254.496 552.23 253.662 552.504C236.68 558.084 222.655 552.182 207.916 543.901C202.841 541.05 198.471 537.194 196.128 532.527C193.76 527.81 193.508 522.345 196.552 516.475C199.892 510.032 205.636 505.104 212.301 501.533C208.332 499.068 204.248 496.067 200.579 492.685C195.056 487.594 190.389 481.559 188.553 475.106C187.47 471.298 187.108 467.823 188.29 465.146C189.524 462.351 192.281 460.738 196.621 460.31C201.06 459.871 205.56 459.703 210.052 459.823C202.589 457.14 195.3 454.156 188.308 449.828C185.852 448.308 183.091 445.641 180.904 442.647C179.004 440.048 177.451 437.084 176.97 434.301C173.327 433.8 169.72 433.215 166.17 432.593C162.586 431.966 159.083 431.092 155.623 430.229C155.22 430.128 154.817 430.027 154.414 429.927C150.547 428.966 146.72 428.054 142.794 427.516C135.479 426.514 127.76 423.529 121.148 420.554C120.755 420.377 120.361 420.2 119.965 420.022C103.576 412.652 84.409 404.032 72.1443 390.25C63.894 380.979 59.4705 369.693 60.2871 357.342C60.3008 357.135 60.3147 356.923 60.329 356.704C60.6125 352.367 61.0518 345.649 62.643 339.558C64.2927 333.244 67.3011 327.137 73.1369 325.469C73.5268 325.358 73.9242 325.244 74.3285 325.127C77.8443 324.117 81.8763 322.958 85.9442 322.24C90.4747 321.441 95.1577 321.167 99.3288 322.304C106.069 324.143 112.872 327.03 119.278 329.748C119.851 329.991 120.421 330.233 120.987 330.473C123.653 331.6 127.335 333.385 129.752 335.148C133.952 338.214 137.11 342.734 139.652 347.534C141.868 351.718 143.652 356.19 145.247 360.187C145.481 360.775 145.712 361.353 145.939 361.917C146.76 363.961 148.057 365.999 149.506 368.043C150.071 368.839 150.671 369.652 151.27 370.464C152.169 371.683 153.067 372.9 153.846 374.06C156.593 378.155 160.107 382.422 163.539 385.968C165.096 387.577 166.544 389.28 167.967 390.954C168.203 391.231 168.439 391.508 168.674 391.783C170.337 393.731 171.993 395.622 173.829 397.34C175.117 398.544 176.431 399.638 177.764 400.748C178.023 400.964 178.283 401.18 178.544 401.398C180.135 402.729 181.74 404.108 183.272 405.701C187.657 410.261 194.2 415.161 199.875 417.901C204.151 419.965 208.509 421.877 212.892 423.801C213.169 423.922 213.446 424.044 213.723 424.165C217.957 426.024 222.21 427.902 226.402 429.936C229.466 429.214 232.523 428.469 235.582 427.719C233.062 427.685 230.537 427.524 228.106 427.154C216.428 425.377 203.336 421.042 196.512 410.168C191.817 402.685 191.458 395.059 194.167 388.456C194.196 388.384 194.226 388.312 194.256 388.24C194.859 386.324 195.667 384.507 196.32 383.04L196.366 382.936C197.508 380.365 199.573 378.474 201.879 377.044C203.397 376.103 205.049 375.344 206.665 374.714C207.681 374.119 208.737 373.57 209.829 373.068C210.911 372.571 211.95 372.14 212.974 371.772C204.395 370.583 198.009 366.213 190.87 360.172C186.779 356.71 185.989 352.267 186.832 347.997C187.664 343.783 190.083 339.683 192.491 336.619C193.455 335.392 194.574 334.998 195.628 334.768C195.899 334.708 196.153 334.66 196.396 334.614C197.117 334.478 197.742 334.36 198.44 334.017C201.728 332.407 206.084 331.62 209.522 331.047C214.863 330.157 220.454 329.753 225.855 329.753C230.01 329.753 234.043 330.49 237.965 331.207L237.985 331.21C240.776 331.72 243.513 332.22 246.258 332.469C246.184 332.422 246.114 332.376 246.05 332.331C245.597 332.011 245.146 331.718 244.686 331.419C244.598 331.362 244.51 331.305 244.422 331.247C243.878 330.892 243.321 330.523 242.788 330.114C241.71 329.285 240.709 328.278 239.969 326.798C238.091 323.043 236.903 317.966 236.958 312.976C231.451 313.886 225.728 313.734 220.019 313.086C215.005 312.517 209.968 311.562 205.072 310.589C204.406 310.457 203.743 310.325 203.083 310.193C198.876 309.352 194.794 308.536 190.892 307.97C187.955 307.543 185.116 306.918 182.32 306.263C181.683 306.114 181.048 305.963 180.415 305.813C178.262 305.301 176.126 304.794 173.951 304.359C172.33 304.035 170.343 303.584 168.539 302.774C166.735 301.963 165.009 300.745 164.047 298.823C163.12 296.968 162.69 294.078 162.632 291.341C162.575 288.602 162.886 285.763 163.617 283.987C165.477 279.469 170.616 276.381 175.975 274.414C181.396 272.424 187.366 271.462 191.341 271.401C193.978 271.361 196.734 271.212 199.533 270.967C201.74 270.455 204.028 269.817 206.245 269.013C202.101 268.893 198.001 268.626 193.917 268.359L193.877 268.356C188.355 267.996 182.863 267.638 177.269 267.638C170.829 267.638 165.865 266.366 160.145 263.915C159.365 263.581 158.438 262.939 157.508 262.186C156.561 261.42 155.549 260.487 154.593 259.517C153.636 258.546 152.722 257.526 151.974 256.581C151.24 255.652 150.617 254.737 150.295 253.985C147.231 246.835 147.656 239.417 148.744 232.073C148.874 231.194 149.478 230.254 150.146 229.422C150.848 228.548 151.758 227.633 152.711 226.784C153.666 225.934 154.686 225.133 155.62 224.492C156.533 223.865 157.435 223.342 158.142 223.106C160.774 222.229 163.054 220.659 165.49 218.982C165.663 218.863 165.837 218.743 166.012 218.623C168.605 216.843 171.39 215.008 174.785 214.16C183.829 211.899 195.254 212.045 203.925 215.855C208.983 218.078 213.295 220.502 217.15 224.743C217.68 225.326 218.326 225.972 219.04 226.687C219.171 226.818 219.304 226.951 219.44 227.087C220.303 227.953 221.233 228.9 222.099 229.889C223.792 231.823 225.406 234.101 225.649 236.438C226.493 244.541 224.065 251.61 221.433 258.894C220.167 262.395 217.621 265.089 214.509 267.174C215.133 267.195 215.77 267.218 216.383 267.243C217.497 267.286 218.538 267.334 219.28 267.376C219.649 267.398 219.955 267.418 220.162 267.438C220.254 267.446 220.369 267.459 220.464 267.477C220.489 267.483 220.535 267.492 220.588 267.509C220.596 267.511 220.78 267.561 220.952 267.708C221.042 267.785 221.286 268.021 221.304 268.426C221.324 268.859 221.075 269.13 220.956 269.232C220.836 269.335 220.721 269.385 220.676 269.403C220.62 269.426 220.572 269.44 220.543 269.447C214.164 271.101 206.881 272.323 199.848 272.947C197.709 273.44 195.661 273.815 193.837 274.109C193.322 274.192 192.836 273.867 192.709 273.372C192.26 273.384 191.814 273.394 191.372 273.401C187.623 273.459 181.875 274.379 176.664 276.292C171.39 278.228 166.983 281.064 165.466 284.748C164.892 286.143 164.576 288.654 164.632 291.299C164.688 293.948 165.11 296.477 165.836 297.928C166.51 299.277 167.774 300.238 169.359 300.95C170.942 301.661 172.74 302.077 174.343 302.398C176.557 302.84 178.739 303.359 180.899 303.872C181.527 304.021 182.152 304.17 182.776 304.316C185.56 304.968 188.33 305.577 191.18 305.991C195.138 306.565 199.278 307.393 203.48 308.232C204.139 308.364 204.8 308.496 205.462 308.628C210.356 309.6 215.321 310.54 220.245 311.099C226.012 311.753 231.678 311.878 237.052 310.931C237.506 305.397 239.64 300.011 244.467 297.08C245.049 296.727 245.863 296.52 246.673 296.415C247.509 296.307 248.454 296.293 249.366 296.396C250.268 296.498 251.199 296.722 251.971 297.132C252.744 297.542 253.464 298.202 253.686 299.199C254.069 300.921 253.466 302.994 252.579 304.704C251.685 306.427 250.356 308.066 248.958 308.852C245.764 310.649 242.414 311.848 238.965 312.594C238.843 317.401 239.976 322.34 241.758 325.904C242.324 327.035 243.089 327.822 244.007 328.528C244.473 328.886 244.973 329.219 245.514 329.572C245.598 329.626 245.682 329.681 245.768 329.737C246.228 330.036 246.716 330.353 247.203 330.697C247.4 330.835 247.744 331.031 248.185 331.267C248.337 331.348 248.5 331.434 248.666 331.522C248.951 331.673 249.245 331.827 249.5 331.968C249.869 332.171 250.321 332.43 250.583 332.678C250.652 332.743 250.78 332.873 250.873 333.062C250.974 333.269 251.093 333.705 250.804 334.133C250.575 334.472 250.235 334.565 250.121 334.592C249.969 334.628 249.821 334.635 249.708 334.635C245.599 334.635 241.597 333.903 237.69 333.189L237.625 333.178C233.668 332.455 229.806 331.753 225.855 331.753C220.549 331.753 215.069 332.15 209.851 333.02C206.367 333.601 202.303 334.353 199.32 335.813C198.354 336.287 197.378 336.469 196.613 336.612C196.411 336.65 196.224 336.685 196.056 336.721C195.228 336.903 194.624 337.141 194.064 337.855C191.756 340.792 189.541 344.602 188.794 348.385C188.058 352.112 188.746 355.755 192.162 358.645C200.471 365.676 207.38 370.095 217.811 370.095L225.083 370.095L225.084 371.026C233.993 370.85 242.696 372.956 251.535 376.656C254.567 377.925 256.011 379.612 257.877 381.79L258.032 381.971C259.228 383.366 260.765 384.431 262.445 385.594L262.563 385.676C264.249 386.845 266.065 388.117 267.494 389.875C271.015 394.209 273.2 400.559 273.2 406.034C273.2 406.642 273.218 407.302 273.236 407.988C273.268 409.224 273.302 410.544 273.242 411.795C273.146 413.79 272.813 415.853 271.794 417.686C271.196 418.762 270.286 419.48 269.372 420.015C268.715 420.4 267.984 420.728 267.338 421.018C267.113 421.119 266.899 421.215 266.701 421.308C266.209 421.538 265.739 421.779 265.28 422.025C265.328 422.039 265.417 422.067 265.513 422.122C265.573 422.156 265.721 422.248 265.844 422.427C265.996 422.648 266.08 422.971 265.969 423.307C265.879 423.58 265.702 423.732 265.629 423.788C265.543 423.854 265.465 423.891 265.426 423.909C265.345 423.945 265.276 423.963 265.25 423.97C265.152 423.995 265.049 424.005 265.009 424.009C264.887 424.022 264.711 424.034 264.501 424.045C263.892 424.078 262.859 424.115 261.589 424.146C259.892 425.102 258.077 425.992 255.854 426.5C252.881 427.18 249.39 427.292 246.201 427.396C245.859 427.407 245.519 427.418 245.185 427.429C242.888 427.985 240.588 428.549 238.287 429.115C235.273 429.855 232.256 430.596 229.235 431.319C234.364 433.773 239.734 435.964 245.139 438.067C250.19 439.358 255.217 440.752 260.234 442.215C261.969 442.721 263.628 443.543 265.187 444.315C265.269 444.356 265.35 444.396 265.431 444.436C266.971 445.198 268.418 445.897 269.885 446.312C270.747 446.406 271.612 446.457 272.481 446.457C272.536 446.457 272.587 446.458 272.629 446.459C272.649 446.459 272.676 446.461 272.705 446.463C272.72 446.464 272.743 446.466 272.771 446.47C272.784 446.471 272.859 446.481 272.949 446.509L272.951 446.51C272.983 446.52 273.121 446.564 273.263 446.676C273.34 446.736 273.482 446.866 273.571 447.083C273.674 447.333 273.668 447.608 273.57 447.845C273.485 448.05 273.355 448.174 273.285 448.232C273.209 448.295 273.14 448.334 273.1 448.354C273.02 448.395 272.953 448.416 272.927 448.423C272.836 448.45 272.754 448.459 272.748 448.46C272.702 448.465 272.653 448.469 272.617 448.471C272.461 448.481 272.181 448.49 271.86 448.492C271.536 448.495 271.152 448.491 270.792 448.473C270.452 448.456 270.06 448.423 269.757 448.347C269.671 448.326 269.586 448.304 269.501 448.28C264.801 447.737 260.28 446.029 256.031 444.388C254.347 443.737 252.646 443.088 250.935 442.435C248.808 441.624 246.666 440.807 244.525 439.974C237.058 438.067 229.549 436.386 221.958 435.034C220.323 434.743 218.704 434.419 217.096 434.078C204.635 436.685 191.665 436.189 179.067 434.58C179.583 436.761 180.85 439.184 182.519 441.467C184.592 444.305 187.173 446.773 189.361 448.128C198.242 453.625 207.612 456.907 217.44 460.284C221.632 460.699 225.785 461.377 229.846 462.332C233.606 463.217 237.393 464.01 241.189 464.805C249.47 466.539 257.791 468.281 265.953 471.002C269.506 472.186 272.897 473.63 276.231 475.209C276.211 475.2 276.306 475.234 276.563 475.262C276.599 475.266 276.635 475.27 276.672 475.273C277.082 475.274 277.334 475.281 277.45 475.292C277.465 475.293 277.517 475.298 277.576 475.31C277.584 475.311 277.697 475.331 277.824 475.394L277.828 475.396C277.869 475.416 278.114 475.535 278.267 475.823C278.367 476.012 278.418 476.258 278.357 476.521C278.301 476.76 278.172 476.919 278.086 477.004C277.936 477.152 277.777 477.212 277.741 477.226L277.739 477.227C277.68 477.249 277.631 477.262 277.607 477.267C277.556 477.279 277.515 477.285 277.498 477.287C277.46 477.292 277.426 477.294 277.408 477.295C277.335 477.299 277.237 477.299 277.14 477.298C276.993 477.296 276.797 477.289 276.588 477.273C276.567 477.273 276.545 477.273 276.523 477.273C269.021 477.273 259.727 475.095 252.75 472.738C247.703 471.033 242.504 469.676 237.254 468.306L236.83 468.196C231.449 466.791 226.019 465.363 220.725 463.53C219.664 463.163 218.605 462.799 217.549 462.437C217.369 462.375 217.19 462.313 217.01 462.252C210.306 461.604 203.497 461.64 196.817 462.3C192.867 462.69 190.95 464.074 190.119 465.954C189.237 467.952 189.417 470.833 190.477 474.559C192.169 480.507 196.538 486.239 201.935 491.214C205.824 494.8 210.204 497.952 214.395 500.469C215.204 500.079 216.023 499.709 216.851 499.357C225.41 495.716 234.962 494.003 242.984 494.003C244.205 494.003 245.429 493.98 246.654 493.957C252.722 493.843 258.822 493.728 264.768 496.413C264.98 496.509 265.337 496.643 265.821 496.825C266.208 496.971 266.677 497.147 267.217 497.359C268.378 497.813 269.777 498.397 271.074 499.081C272.35 499.754 273.621 500.572 274.451 501.525C274.872 502.008 275.223 502.574 275.368 503.22C275.519 503.889 275.433 504.576 275.087 505.234C274.301 506.728 272.87 507.822 271.242 508.65C269.604 509.483 267.661 510.099 265.705 510.58C263.744 511.062 261.728 511.418 259.933 511.716C259.577 511.775 259.231 511.832 258.897 511.887C257.524 512.112 256.346 512.305 255.452 512.508C242.779 515.377 229.12 510.391 218.199 504.86C216.94 504.222 215.636 503.514 214.309 502.741C207.428 506.225 201.602 511.081 198.327 517.395C195.577 522.7 195.837 527.49 197.915 531.63C200.019 535.82 204.029 539.424 208.895 542.158C223.56 550.396 236.915 555.902 253.038 550.604C253.925 550.313 254.765 550.05 255.563 549.8C256.56 549.488 257.491 549.196 258.367 548.895C258.366 545.209 259.143 541.452 260.886 537.65C261.082 537.222 261.644 536.322 262.345 535.338C263.062 534.334 263.982 533.162 264.933 532.189C265.408 531.703 265.908 531.25 266.408 530.89C266.896 530.539 267.448 530.23 268.024 530.108C268.638 529.978 269.319 530.059 269.887 530.546C270.407 530.992 270.696 531.665 270.857 532.414C271.772 536.683 270.746 540.723 268.34 544.199C266.065 547.486 263.441 549.097 260.408 550.285C260.742 556.187 263.183 561.954 266.946 567.523C268.6 569.972 270.29 572.193 272.095 574.188C272.622 574.479 273.147 574.771 273.671 575.062C275.482 576.068 277.276 577.065 279.068 578.003C280.938 578.983 282.781 580.376 284.556 581.72C284.897 581.977 285.236 582.233 285.571 582.484C287.029 583.574 288.447 584.576 289.866 585.324C290.161 585.443 290.467 585.568 290.747 585.685C291.165 585.858 291.55 586.021 291.792 586.129C291.885 586.17 292.028 586.234 292.119 586.288C292.128 586.293 292.142 586.302 292.159 586.313C292.176 586.324 292.196 586.338 292.217 586.354C292.239 586.37 292.279 586.401 292.324 586.446C292.353 586.475 292.464 586.585 292.541 586.766C292.635 586.989 292.711 587.452 292.353 587.838C292.107 588.103 291.809 588.142 291.751 588.149L291.749 588.149C291.592 588.17 291.464 588.147 291.446 588.144L291.445 588.143C291.342 588.126 291.239 588.09 291.215 588.082C290.473 587.835 289.745 587.515 289.031 587.144C288.525 586.94 288.098 586.774 287.945 586.725C280.724 584.415 275.401 580.748 270.848 575.788C265.006 572.563 259.189 569.532 252.706 568.182C245.405 566.661 238.385 566.602 230.818 566.602C228.741 566.602 225.989 567.23 222.983 568.385C219.992 569.534 216.815 571.178 213.901 573.15C210.984 575.124 208.361 577.405 206.455 579.815C204.543 582.233 203.407 584.708 203.322 587.089C203.098 593.363 206.942 597.522 212.358 600.588C214.18 601.619 216.148 602.509 218.154 603.298C219.074 603.308 219.99 603.351 220.87 603.395L221.073 603.405C222.098 603.455 223.067 603.503 223.974 603.503C227.659 603.503 231.276 603.869 234.821 604.229L234.836 604.23C238.393 604.591 241.878 604.944 245.386 604.944C246.393 604.944 247.428 604.924 248.477 604.904C250.626 604.862 252.832 604.82 254.97 604.946C255.609 604.983 256.263 605.143 256.704 605.598C257.229 606.141 257.213 606.83 257.006 607.335C256.815 607.8 256.453 608.181 256.077 608.452C255.69 608.732 255.21 608.954 254.69 609.049C253.808 609.209 252.914 609.188 252.117 609.156C252.012 609.151 251.91 609.147 251.809 609.143C251.105 609.113 250.482 609.086 249.879 609.141C248.842 609.235 247.748 609.353 246.619 609.476C244.36 609.72 241.959 609.979 239.596 610.092C236.029 610.263 232.385 610.113 229.11 609.057C228.266 608.785 227.365 608.505 226.424 608.212C223.749 607.381 220.743 606.446 217.775 605.296C217.687 605.296 217.599 605.297 217.512 605.297C215.347 605.315 213.381 605.573 211.801 606.424C210.999 606.856 209.841 607.33 208.602 607.837C208.5 607.879 208.398 607.92 208.295 607.963C206.912 608.529 205.405 609.155 203.997 609.866C202.582 610.581 201.323 611.353 200.414 612.191C199.502 613.032 199.043 613.845 198.998 614.644C198.915 616.137 199.251 616.657 199.645 616.986C199.893 617.194 200.234 617.38 200.728 617.594C200.971 617.7 201.234 617.805 201.53 617.924C201.822 618.041 202.141 618.169 202.476 618.312C206.487 620.031 210.183 622.428 213.795 624.77C214.057 624.94 214.319 625.11 214.58 625.278C218.472 627.797 222.296 630.198 226.481 631.74C227.385 632.073 228.278 632.404 229.164 632.732C239.3 636.485 248.346 639.835 259.328 641.333C263.383 641.886 267.465 642.216 271.565 642.404L343.428 642.404ZM224.48 605.505C225.32 605.773 226.147 606.03 226.951 606.281C227.912 606.579 228.841 606.869 229.724 607.153C232.662 608.101 236.025 608.261 239.5 608.094C241.808 607.984 244.094 607.737 246.315 607.496C247.462 607.372 248.592 607.25 249.698 607.149C250.444 607.081 251.214 607.115 251.904 607.145C252.004 607.149 252.101 607.153 252.197 607.157C252.995 607.189 253.69 607.198 254.332 607.081C254.469 607.056 254.609 607.005 254.738 606.936C252.713 606.822 250.685 606.862 248.624 606.902C247.555 606.923 246.477 606.944 245.386 606.944C241.776 606.944 238.207 606.582 234.683 606.225L234.62 606.218C231.227 605.875 227.874 605.537 224.48 605.505ZM280.303 581.089C279.888 580.835 279.48 580.573 279.079 580.304C279.487 580.549 279.894 580.812 280.303 581.089ZM260.381 548.133C262.863 547.08 264.87 545.697 266.696 543.061C268.826 539.983 269.687 536.499 268.901 532.833C268.783 532.279 268.629 532.102 268.585 532.065C268.576 532.057 268.572 532.055 268.57 532.055C268.57 532.055 268.569 532.055 268.569 532.055C268.561 532.053 268.523 532.047 268.438 532.065C268.252 532.104 267.963 532.235 267.576 532.514C267.201 532.784 266.79 533.151 266.363 533.588C265.509 534.46 264.656 535.543 263.974 536.5C263.276 537.477 262.814 538.243 262.704 538.483C261.216 541.73 260.482 544.95 260.381 548.133ZM216.505 501.692C217.387 502.185 218.256 502.647 219.103 503.076C229.962 508.576 243.068 513.261 255.01 510.557C255.969 510.34 257.228 510.134 258.607 509.907C258.934 509.854 259.267 509.799 259.605 509.743C261.392 509.446 263.345 509.1 265.228 508.638C267.116 508.174 268.892 507.602 270.336 506.867C271.791 506.127 272.805 505.274 273.317 504.303C273.447 504.056 273.461 503.854 273.417 503.659C273.368 503.44 273.228 503.165 272.943 502.839C272.362 502.172 271.36 501.493 270.141 500.85C268.942 500.218 267.624 499.666 266.488 499.221C266.048 499.049 265.618 498.886 265.233 498.741C264.67 498.529 264.204 498.353 263.945 498.236C258.446 495.752 252.874 495.851 246.819 495.958C245.563 495.981 244.286 496.003 242.984 496.003C235.216 496.003 225.931 497.667 217.633 501.197C217.255 501.358 216.879 501.523 216.505 501.692ZM232.671 465.03C234.221 465.447 235.777 465.854 237.335 466.26L237.786 466.378C243.015 467.743 248.275 469.115 253.39 470.843C258.472 472.56 264.747 474.158 270.579 474.876C268.853 474.158 267.106 473.494 265.321 472.899C257.269 470.215 249.139 468.514 240.917 466.793C238.179 466.22 235.43 465.644 232.671 465.03ZM178.808 432.529C189.855 433.968 201.101 434.55 211.994 432.953C211.893 432.93 211.793 432.907 211.692 432.885C211.025 432.734 210.36 432.584 209.695 432.436C205.648 431.531 201.618 430.677 197.466 430.118C194.008 429.653 190.531 429.682 186.973 429.712C186.092 429.719 185.205 429.727 184.312 429.727C183.797 429.727 183.336 429.72 182.912 429.713C182.346 429.705 181.846 429.697 181.367 429.708C180.543 429.728 180.011 429.805 179.654 429.958C179.361 430.083 179.164 430.264 179.02 430.645C178.876 431.026 178.787 431.615 178.808 432.529ZM221.988 433.008C222.095 433.027 222.202 433.046 222.308 433.065C225.801 433.687 229.275 434.378 232.734 435.128C230.717 434.235 228.725 433.31 226.773 432.345C226.571 432.245 226.368 432.145 226.166 432.046C224.774 432.372 223.382 432.694 221.988 433.008ZM223.282 430.662C221.226 431.134 219.165 431.593 217.097 432.034C215.444 431.68 213.797 431.309 212.144 430.936C211.474 430.785 210.804 430.634 210.131 430.484C206.077 429.578 201.975 428.707 197.733 428.136C194.119 427.649 190.462 427.681 186.892 427.712C186.026 427.719 185.166 427.727 184.312 427.727C183.874 427.727 183.434 427.72 183.01 427.714C182.399 427.705 181.819 427.697 181.32 427.709C180.458 427.729 179.599 427.807 178.869 428.118C178.073 428.457 177.484 429.049 177.148 429.94C176.907 430.58 176.805 431.352 176.805 432.259C173.346 431.776 169.911 431.218 166.515 430.623C163.005 430.009 159.573 429.153 156.105 428.287C155.703 428.187 155.3 428.086 154.896 427.986C151.029 427.025 147.109 426.089 143.065 425.535C136.045 424.573 128.541 421.687 121.968 418.73C121.634 418.579 121.298 418.428 120.962 418.277C104.442 410.846 85.6141 402.378 73.6384 388.921C65.7002 380 61.5057 369.227 62.2828 357.474C62.2958 357.277 62.309 357.075 62.3226 356.868C62.6079 352.511 63.0368 345.963 64.578 340.064C66.2143 333.801 68.9839 328.736 73.6863 327.392C74.0781 327.28 74.4757 327.166 74.8785 327.05C78.4061 326.037 82.3345 324.908 86.2917 324.209C90.7059 323.431 95.0481 323.21 98.8025 324.234C105.405 326.035 112.085 328.869 118.516 331.597C119.082 331.837 119.646 332.077 120.208 332.314C122.837 333.427 126.347 335.14 128.573 336.764C132.42 339.571 135.404 343.786 137.884 348.469C140.046 352.552 141.787 356.915 143.385 360.92C143.621 361.509 143.853 362.091 144.083 362.663C144.995 364.931 146.403 367.124 147.875 369.199C148.492 370.07 149.109 370.906 149.712 371.721C150.581 372.898 151.419 374.033 152.185 375.174C155.005 379.378 158.596 383.737 162.102 387.359C163.61 388.918 165.012 390.566 166.438 392.242C166.675 392.521 166.913 392.801 167.153 393.082C168.819 395.034 170.538 397 172.463 398.8C173.796 400.048 175.162 401.184 176.495 402.294C176.752 402.508 177.007 402.72 177.261 402.933C178.844 404.257 180.378 405.577 181.831 407.088C186.363 411.801 193.096 416.849 199.006 419.702C203.316 421.783 207.705 423.709 212.082 425.629C212.361 425.752 212.64 425.874 212.919 425.997C216.394 427.522 219.858 429.05 223.282 430.662ZM261.154 422.091C261.443 421.923 261.737 421.751 262.034 421.576C263.225 420.877 264.484 420.138 265.853 419.497C266.112 419.375 266.365 419.262 266.612 419.151C267.226 418.876 267.805 418.616 268.361 418.289C269.114 417.848 269.69 417.356 270.046 416.715C270.848 415.27 271.155 413.562 271.244 411.699C271.302 410.506 271.27 409.343 271.239 408.17C271.22 407.464 271.2 406.756 271.2 406.034C271.2 401.007 269.166 395.105 265.941 391.136C264.718 389.631 263.135 388.506 261.424 387.32C261.358 387.274 261.291 387.228 261.225 387.182C259.609 386.064 257.881 384.868 256.513 383.272L256.425 383.169C254.527 380.955 253.354 379.586 250.763 378.501C237.058 372.764 223.889 371.017 209.762 375.726C209.031 375.97 208.285 376.233 207.538 376.52C202.275 379.633 198.25 383.975 196.135 388.933C196.01 389.335 195.896 389.74 195.796 390.145C195.231 392.433 195.163 394.562 196.013 396.262C197.136 398.508 199.216 400.623 201.588 402.697C202.427 403.431 203.313 404.168 204.194 404.9C205.729 406.176 207.248 407.439 208.468 408.645C208.59 408.766 208.712 408.886 208.833 409.006C215.358 415.459 220.479 420.523 229.337 420.523C235.891 420.523 241.82 421.069 248.195 421.892C250.737 422.22 255.958 422.243 259.951 422.178C260.086 422.176 260.22 422.173 260.352 422.171C260.618 422.141 260.885 422.115 261.154 422.091ZM250.585 424.088C249.566 424.038 248.659 423.968 247.939 423.875C241.611 423.059 235.774 422.523 229.337 422.523C219.647 422.523 213.979 416.913 207.617 410.616C207.432 410.434 207.248 410.251 207.062 410.067C205.893 408.911 204.503 407.758 203.026 406.531C202.13 405.787 201.202 405.017 200.272 404.203C198.028 402.241 195.828 400.069 194.482 397.645C194.61 401.353 195.774 405.228 198.207 409.105C204.541 419.201 216.854 423.419 228.407 425.177C233.05 425.883 238.116 425.8 242.887 425.527C243.555 425.489 244.234 425.46 244.919 425.435C246.803 424.98 248.691 424.53 250.585 424.088ZM239.099 310.514C242.178 309.799 245.149 308.7 247.977 307.109C248.904 306.588 250.003 305.326 250.803 303.783C251.609 302.229 251.965 300.674 251.734 299.633C251.684 299.408 251.505 299.149 251.034 298.898C250.56 298.647 249.898 298.469 249.14 298.383C248.392 298.298 247.609 298.311 246.93 298.399C246.224 298.49 245.734 298.65 245.505 298.79C241.593 301.165 239.622 305.556 239.099 310.514ZM210.068 269.618C210.995 269.462 211.915 269.297 212.827 269.123C212.202 269.105 211.639 269.092 211.19 269.085C210.82 269.269 210.445 269.446 210.068 269.618ZM210.724 267.079C214.858 264.949 218.153 262.085 219.552 258.214C222.195 250.901 224.451 244.236 223.66 236.645C223.487 234.986 222.273 233.124 220.594 231.206C219.774 230.269 218.884 229.362 218.023 228.499C217.893 228.368 217.763 228.238 217.634 228.109C216.921 227.396 216.235 226.709 215.67 226.088C212.085 222.145 208.063 219.858 203.121 217.686C194.95 214.096 183.997 213.918 175.27 216.1C172.264 216.852 169.745 218.486 167.144 220.271C166.956 220.401 166.767 220.531 166.578 220.661C164.192 222.306 161.687 224.033 158.774 225.003C158.345 225.146 157.633 225.536 156.752 226.141C155.892 226.731 154.938 227.479 154.041 228.278C153.14 229.079 152.316 229.914 151.705 230.675C151.059 231.479 150.768 232.058 150.723 232.366C149.646 239.631 149.298 246.582 152.133 253.197C152.348 253.697 152.834 254.444 153.543 255.34C154.238 256.218 155.101 257.184 156.017 258.113C156.932 259.041 157.889 259.921 158.766 260.631C159.661 261.356 160.414 261.855 160.933 262.077C166.456 264.444 171.151 265.638 177.269 265.638C182.939 265.638 188.496 266.001 194.007 266.361L194.016 266.361C199.535 266.721 205.008 267.079 210.567 267.079C210.616 267.079 210.668 267.079 210.724 267.079ZM192.904 705.366C194.554 710.801 198.495 716.393 201.846 720.933C204.441 724.449 208.093 726.481 212.062 728.69C212.471 728.918 212.883 729.147 213.298 729.38C219.4 732.809 227.274 736.569 234.059 737.384C238.39 737.903 242.061 738.046 244.962 735.468C246.637 733.979 248.083 732.381 248.884 730.649C249.664 728.962 249.842 727.127 248.949 725.043C248.592 724.21 248.067 723.462 247.457 722.613L247.382 722.509C246.808 721.712 246.168 720.823 245.682 719.793C244.378 717.031 243.117 714.502 241.434 712C237.382 705.973 233.964 701.833 227.293 700.165C221.027 698.598 215.484 698.434 208.886 698.434C206.41 698.434 204.626 698.947 202.855 699.72C202.025 700.082 201.204 700.499 200.296 700.96L200.054 701.083C199.057 701.588 197.968 702.134 196.715 702.674C195.335 703.27 194.054 704.22 192.904 705.366Z" fill="white" stroke="black" stroke-width="0.5" stroke-linecap="round"/>
<path fill-rule="evenodd" clip-rule="evenodd" d="M316.396 703.44C316.262 703.975 315.719 704.301 315.183 704.167C314.436 703.98 313.838 703.624 313.429 703.071C313.033 702.535 312.893 701.921 312.849 701.365C312.804 700.815 312.847 700.23 312.891 699.706C312.896 699.64 312.902 699.575 312.907 699.51C312.947 699.034 312.985 698.592 312.985 698.154C312.985 695.775 312.808 693.41 312.627 691.003L312.626 690.983C312.447 688.594 312.264 686.163 312.264 683.706L312.264 631.878C312.264 631.326 312.712 630.878 313.264 630.878C313.817 630.878 314.264 631.326 314.264 631.878L314.264 683.706C314.264 686.082 314.441 688.446 314.622 690.853L314.623 690.869C314.802 693.259 314.985 695.693 314.985 698.154C314.985 698.683 314.94 699.215 314.9 699.682C314.894 699.747 314.889 699.81 314.884 699.871C314.839 700.409 314.813 700.84 314.842 701.205C314.871 701.563 314.948 701.761 315.037 701.882C315.113 701.984 315.268 702.127 315.668 702.227C316.204 702.361 316.53 702.904 316.396 703.44Z" fill="white" stroke="black" stroke-width="0.5" stroke-linecap="round"/>
<path fill-rule="evenodd" clip-rule="evenodd" d="M289.364 605.569C290.336 607.361 290.689 609.559 289.649 611.466C288.819 612.988 287.326 613.364 285.973 613.188C285.641 613.145 285.308 613.069 284.981 612.966C284.729 612.946 284.477 612.891 284.238 612.786C284.048 612.702 283.862 612.583 283.7 612.424C283.214 612.163 282.762 611.856 282.37 611.529C281.883 611.122 281.448 610.651 281.145 610.148C280.851 609.659 280.619 609.032 280.735 608.366C280.781 608.105 280.874 607.869 281.006 607.661C280.997 607.644 280.987 607.628 280.979 607.611C280.764 607.206 280.599 606.602 280.94 606.024C281.066 605.81 281.231 605.654 281.406 605.54C281.108 604.931 280.923 604.285 280.9 603.683C280.886 603.285 280.94 602.837 281.144 602.43C281.205 601.776 281.432 601.11 281.824 600.437C282.432 599.395 283.541 599.008 284.559 598.973C285.584 598.938 286.688 599.239 287.618 599.769C288.545 600.297 289.406 601.114 289.797 602.196C290.178 603.249 290.064 604.418 289.364 605.569ZM287.988 603.69C288.04 603.378 288 603.108 287.916 602.876C287.734 602.371 287.281 601.878 286.629 601.507C285.98 601.138 285.24 600.951 284.628 600.972C284.072 600.991 283.758 601.166 283.599 601.374C285.272 601.552 286.818 602.468 287.988 603.69ZM283.224 603.349C284.535 603.431 285.909 604.255 286.912 605.49C286.831 605.575 286.751 605.652 286.673 605.722C286.396 605.65 286.096 605.556 285.787 605.436C284.788 605.05 283.916 604.482 283.464 603.818C283.36 603.665 283.28 603.509 283.224 603.349ZM283.463 609.828C283.475 609.839 283.487 609.849 283.499 609.86C283.5 609.857 283.502 609.854 283.503 609.85C283.49 609.843 283.476 609.835 283.463 609.828ZM285.312 610.706C285.284 610.768 285.262 610.824 285.244 610.876C285.237 610.896 285.231 610.914 285.225 610.932C285.258 610.945 285.292 610.958 285.325 610.971C285.377 610.966 285.435 610.958 285.499 610.947C285.594 610.929 285.695 610.903 285.799 610.87C285.641 610.823 285.489 610.771 285.344 610.718C285.333 610.714 285.322 610.71 285.312 610.706ZM286.495 608.99C286.732 609.054 286.917 609.084 287.049 609.09C287.044 608.969 287.03 608.875 287.013 608.804C287.004 608.793 286.995 608.783 286.985 608.772C286.939 608.72 286.886 608.668 286.826 608.615C286.709 608.744 286.598 608.869 286.495 608.99Z" fill="white" stroke="black" stroke-width="0.5" stroke-linecap="round"/>
</svg>
